<?xml version="1.0" standalone="no"?>
<!DOCTYPE svg PUBLIC "-//W3C//DTD SVG 1.1//EN" "http://www.w3.org/Graphics/SVG/1.1/DTD/svg11.dtd" >
<svg xmlns="http://www.w3.org/2000/svg" xmlns:xlink="http://www.w3.org/1999/xlink" version="1.1">
<metadata>
Created by FontForge 20170924 at Wed May 23 17:12:53 2018
 By www-data
Copyright (c) 2018 by Billy Argel. All rights reserved.
</metadata>
<defs>
<font id="Amsterdam" horiz-adv-x="583" >
  <font-face 
    font-family="Amsterdam"
    font-weight="400"
    font-stretch="normal"
    units-per-em="1000"
    panose-1="0 0 0 0 0 0 0 0 0 0"
    ascent="800"
    descent="-200"
    x-height="706"
    cap-height="1783"
    bbox="-798 -1375.04 2632.33 2220"
    underline-thickness="50"
    underline-position="-100"
    unicode-range="U+000D-FB02"
  />
<missing-glyph horiz-adv-x="457" 
 />
    <glyph glyph-name="k_t" unicode="kt" horiz-adv-x="1069" 
d="M485 865q9 3 19.5 -10.5t14.5 -45.5q1 -15 1 -47t-3.5 -69t-10.5 -73.5t-18 -60.5q-29 -61 -68.5 -103.5t-82 -70t-84.5 -42.5t-75.5 -22t-54.5 -9l-21 -2q0 -1 -1.5 13.5t-0.5 33t4 35.5t12 21q54 24 100 67t85 92.5t70 100.5t54 93.5t38 69.5t22 29zM-208 -121
q-12 -7 -26 -26t-24.5 -48.5t-15.5 -68t1 -83.5q10 -63 33 -99.5t49.5 -54t51.5 -20t40 2.5q58 19 116.5 58.5t119 87.5t124 99.5t132 94t143.5 71t159 30.5q52 2 82.5 -18.5t47 -49t21 -58.5t3.5 -48q-2 -36 -20.5 -65.5t-48.5 -49.5t-69 -28t-82 -2q-50 8 -92.5 42
t-79.5 85t-69.5 112t-61.5 123t-56 118.5t-53 97.5t-52 61.5t-53 9.5q-6 -3 -12.5 12.5t-11.5 35t-8 36t-4 17.5q-1 2 12.5 4t34 3.5t44.5 2.5t45 1q23 0 52.5 -27t64 -71.5t72 -101.5t76 -116.5t76 -116.5t72 -101.5t64 -71.5t52.5 -27q27 0 43.5 13t24.5 29q3 8 0 27
t-17.5 36t-42 26t-72.5 -2q-71 -16 -144 -54.5t-145 -86.5t-141 -100.5t-131.5 -96t-117.5 -73.5t-98 -33q-66 -6 -114.5 17.5t-81 62t-50 84.5t-22.5 85q-7 61 7 108.5t39.5 76.5t56.5 37t57 -9zM879 1322q48 1 74.5 -22t38.5 -54.5t13.5 -63t-1.5 -47.5
q-15 -96 -32.5 -171.5t-36 -142t-36 -129.5t-33 -135t-27.5 -157.5t-19 -197.5q-2 -21 0 -42t7 -38t13 -27.5t18 -10.5q17 0 40.5 21t49.5 55t53.5 78t53.5 90t49.5 90t41.5 79.5t29 58.5t13 25q7 11 14.5 14t13.5 -1.5t9 -16.5t0 -31q-1 -4 -11.5 -30.5t-29.5 -66
t-44.5 -89.5t-55.5 -101t-63.5 -99.5t-68 -86t-69.5 -60.5t-68 -23q-18 0 -47.5 10t-56.5 39t-44 83t-11 142q8 121 26.5 233.5t46.5 235.5t65.5 266t84.5 323zM1269 1110q-74 -35 -153.5 -36.5t-160.5 13.5t-160 39t-151.5 42t-136 21t-111.5 -23q-50 -27 -90 -82.5
t-71 -129.5t-53 -161.5t-36.5 -178t-22 -179t-9 -165.5t2 -136.5t11.5 -91.5q7 -24 -0.5 -32.5t-19.5 -11.5q-6 -2 -27 19t-44 51t-42 61.5t-22 50.5q-14 105 -11.5 226.5t23 243t59 234t98 199t139.5 138t183 51.5q30 0 86 -14t126.5 -33t151.5 -38t160.5 -29t153.5 -6
t131 31q8 4 10.5 -8t1 -28t-6 -28.5t-9.5 -8.5z" />
    <glyph glyph-name="t_l" unicode="tl" horiz-adv-x="991" 
d="M269 1399q32 1 54 -9.5t36.5 -27t22 -38t11 -42t3 -39t-2.5 -29.5q-15 -96 -34 -177.5t-39.5 -156.5t-41 -148.5t-38.5 -154t-31.5 -172t-20.5 -203.5q-2 -21 0 -42t7 -38t12.5 -27.5t17.5 -10.5q18 0 41 21t49 55t53.5 78t54 90t50 90t41.5 79.5t29 58.5t13 25
q6 11 14 14t14 -1.5t9 -16.5t0 -31q-1 -4 -12 -30.5t-29.5 -66t-44 -89.5t-55.5 -101t-63.5 -99.5t-68.5 -86t-69.5 -60.5t-67.5 -23q-18 0 -47.5 10t-56.5 39t-44 83t-11 142q8 121 30 246t54 262.5t73 292t88 334.5zM1135 1332q3 -122 -22.5 -212t-65.5 -149t-87.5 -89.5
t-89.5 -34.5q-59 -5 -126 19.5t-140 62t-150 80t-155.5 73.5t-157.5 42.5t-155 -13.5q-8 -3 -11 8t-2 25.5t3.5 27.5t5.5 14q65 22 129 21.5t125.5 -16.5t121.5 -43.5t116.5 -58.5t109.5 -62.5t102.5 -55t94.5 -36t85 -6.5q34 5 76.5 40.5t78.5 93t57.5 133t14.5 160.5
q-3 32 -12.5 36.5t-21.5 -5.5t-24.5 -27.5t-20.5 -29.5q-21 -34 -54 -98.5t-70 -151t-74 -191.5t-66.5 -219t-48 -233.5t-18.5 -234.5q0 -21 2.5 -42.5t7 -38t11.5 -27t17 -10.5q18 0 41 21t49 55t53.5 78t54 90t50 90t41.5 79.5t29 58.5t13 25q6 11 14 14t14 -1.5
t8.5 -16.5t-0.5 -31q-1 -4 -11.5 -30.5t-29.5 -66t-44 -89.5t-55 -101t-63.5 -99.5t-68.5 -86t-69.5 -60.5t-67.5 -23q-18 0 -45.5 9t-53 38t-43.5 83t-17 144q0 63 10.5 150t29.5 186.5t46 205.5t60.5 207t72.5 191.5t82.5 160t90 111t95.5 44.5q43 3 68.5 -16.5
t38.5 -49.5t17 -63.5t4 -58.5z" />
    <glyph glyph-name="t_t" unicode="tt" horiz-adv-x="972" 
d="M269 1399q32 1 54 -9.5t36.5 -27t22 -38t11 -42t3 -39t-2.5 -29.5q-15 -96 -34 -177.5t-39.5 -156.5t-41 -148.5t-38.5 -154t-31.5 -172t-20.5 -203.5q-2 -21 0 -42t7 -38t12.5 -27.5t17.5 -10.5q18 0 41 21t49 55t53.5 78t54 90t50 90t41.5 79.5t29 58.5t13 25
q6 11 14 14t14 -1.5t9 -16.5t0 -31q-1 -4 -12 -30.5t-29.5 -66t-44 -89.5t-55.5 -101t-63.5 -99.5t-68.5 -86t-69.5 -60.5t-67.5 -23q-18 0 -47.5 10t-56.5 39t-44 83t-11 142q8 121 30 246t54 262.5t73 292t88 334.5zM-64 1225q21 -25 77.5 -35.5t134.5 -12t172.5 3
t192.5 10t193 9.5t175 1t138.5 -15.5t83.5 -39.5q7 -9 9 -23.5t0.5 -27.5t-6 -20.5t-8.5 -1.5q-17 19 -59 29.5t-101 14t-132.5 2t-153 -5t-162.5 -8t-161.5 -7t-149.5 -2t-126.5 7.5t-93 21t-48.5 39q-5 11 -3 23t7.5 21.5t11.5 14.5t9 2zM755 1399q32 1 54 -9.5t36.5 -27
t22 -38t10.5 -42t2.5 -39t-2.5 -29.5q-15 -96 -34 -177.5t-39.5 -156.5t-40.5 -148.5t-38 -154t-31.5 -172t-20.5 -203.5q-2 -21 0 -42t7 -38t12.5 -27.5t17.5 -10.5q18 0 41 21t49 55t53.5 78t54 90t50 90t41.5 79.5t29 58.5t13 25q6 11 14 14t14 -1.5t9 -16.5t0 -31
q-1 -4 -12 -30.5t-29.5 -66t-44 -89.5t-55.5 -101t-63.5 -99.5t-68.5 -86t-69.5 -60.5t-67.5 -23q-18 0 -47.5 10t-56.5 39t-44 83t-11 142q8 121 29.5 246t54 262.5t73.5 292t88 334.5z" />
    <glyph glyph-name="t_f" unicode="tf" horiz-adv-x="865" 
d="M269 1399q32 1 54 -9.5t36.5 -27t22 -38t11 -42t3 -39t-2.5 -29.5q-15 -96 -34 -177.5t-39.5 -156.5t-41 -148.5t-38.5 -154t-31.5 -172t-20.5 -203.5q-2 -21 0 -42t7 -38t12.5 -27.5t17.5 -10.5q18 0 41 21t49 55t53.5 78t54 90t50 90t41.5 79.5t29 58.5t13 25
q6 11 14 14t14 -1.5t9 -16.5t0 -31q-1 -4 -12 -30.5t-29.5 -66t-44 -89.5t-55.5 -101t-63.5 -99.5t-68.5 -86t-69.5 -60.5t-67.5 -23q-18 0 -47.5 10t-56.5 39t-44 83t-11 142q8 121 30 246t54 262.5t73 292t88 334.5zM708 931q-70 2 -147 25.5t-154.5 55.5t-152 67t-139 60
t-115.5 34t-82 -9q-8 -5 -6.5 1.5t6.5 16.5t11 20t8 12q27 38 76 38.5t112.5 -21.5t137.5 -59.5t149.5 -74.5t149 -66.5t137.5 -36.5q84 4 151 32t113.5 75t71 111.5t23.5 142.5q0 21 -3.5 38.5t-9 30.5t-12 19.5t-12.5 4.5q-8 -2 -30 -47.5t-54 -121t-71 -173.5t-79.5 -205
t-80 -215t-72.5 -204q-40 -116 -75 -233.5t-62.5 -228t-45.5 -208.5t-24.5 -174t0.5 -125.5t31 -62.5q23 -13 45 15.5t39 85.5t28 134t13 162t-7 169.5t-31.5 155.5t-61.5 122t-96 67q-12 3 -16.5 17.5t-2.5 28.5t11 23.5t24 2.5q3 -1 21 -12.5t47.5 -26t67 -28.5t80 -20
t87 -0.5t87 30t80.5 71.5t68 124q4 12 12.5 7t17 -16.5t13.5 -25t4 -18.5q-27 -73 -60.5 -121.5t-69.5 -78.5t-73 -44.5t-71 -17.5q-81 -9 -167 30q26 -37 43.5 -98t26.5 -136t9.5 -158t-7.5 -163t-25 -151t-43.5 -122.5t-62 -77.5t-80.5 -16q-13 3 -27 14.5t-26 32t-21 49
t-12 65.5q-8 83 4 201t37 255t60.5 285.5t73.5 292.5q27 100 62 213.5t76 225.5t85.5 215.5t89 183.5t88 128.5t81.5 51.5q35 3 61 -12t42.5 -40.5t25 -58.5t9.5 -67q2 -93 -14 -164t-46 -123.5t-70.5 -87.5t-87 -56t-95.5 -29.5t-96 -7.5z" />
    <glyph glyph-name="t_h" unicode="th" horiz-adv-x="1147" 
d="M269 1399q32 1 54 -9.5t36.5 -27t22 -38t11 -42t3 -39t-2.5 -29.5q-15 -96 -34 -177.5t-39.5 -156.5t-41 -148.5t-38.5 -154t-31.5 -172t-20.5 -203.5q-2 -21 0 -42t7 -38t12.5 -27.5t17.5 -10.5q18 0 41 21t49 55t53.5 78t54 90t50 90t41.5 79.5t29 58.5t13 25
q6 11 14 14t14 -1.5t9 -16.5t0 -31q-1 -4 -12 -30.5t-29.5 -66t-44 -89.5t-55.5 -101t-63.5 -99.5t-68.5 -86t-69.5 -60.5t-67.5 -23q-18 0 -47.5 10t-56.5 39t-44 83t-11 142q8 121 30 246t54 262.5t73 292t88 334.5zM1105 1366q-5 -83 -52.5 -143t-124 -101t-173.5 -64
t-201 -29.5t-207 1t-190 27t-150.5 49.5t-89.5 68q-6 10 -4 21t7 19t10.5 11.5t5.5 -0.5q2 -20 49 -41.5t123.5 -39.5t174 -29.5t200 -10.5t201 17t178 53.5t131 98t59.5 151.5q2 17 -2.5 27t-23.5 13q-14 3 -35.5 -29t-46.5 -86t-52.5 -123.5t-53.5 -143.5t-50.5 -145
t-43 -128t-30 -93t-13.5 -39q-2 -4 -10.5 -30.5t-20.5 -69.5t-25.5 -100.5t-25 -125t-20 -142t-9.5 -150.5q0 -16 0.5 -26t0 -16.5t-4.5 -10.5t-13 -8q-10 -5 -32 1t-44.5 24.5t-39.5 51t-16 81.5q2 104 19 220t44.5 235t64 237t78 226t86 201t88.5 162.5t85 111t75 45.5
q45 7 72 -15t40.5 -57.5t15.5 -78t-4 -77.5zM852 130q-4 -27 5.5 -27.5t32.5 17.5q39 28 76 68.5t69.5 85.5t60 90.5t48.5 83.5t34 65t16 34q13 29 24.5 35.5t18 -2t6.5 -29t-9 -46.5q-11 -31 -33 -76t-52.5 -96.5t-67 -104.5t-76.5 -99t-82.5 -81t-84.5 -50
q-24 -9 -53 -1.5t-52.5 28t-37.5 51t-9 67.5q6 49 15.5 92.5t21 85.5t23.5 85.5t24 92.5q10 45 9 64.5t-10 21t-23.5 -12t-31.5 -34.5q-40 -49 -97 -142q3 29 7 52q3 20 5.5 37t4.5 19q10 21 25.5 48t35.5 53t44.5 49t51.5 36.5t56 14.5t60 -16q28 -16 40 -48.5t13.5 -70
t-5 -74t-16.5 -58.5q-14 -32 -28 -70.5t-26 -79t-20.5 -81t-12.5 -77.5z" />
    <glyph glyph-name="t_k" unicode="tk" horiz-adv-x="1069" 
d="M269 1399q32 1 54 -9.5t36.5 -27t22 -38t11 -42t3 -39t-2.5 -29.5q-15 -96 -34 -177.5t-39.5 -156.5t-41 -148.5t-38.5 -154t-31.5 -172t-20.5 -203.5q-2 -21 0 -42t7 -38t12.5 -27.5t17.5 -10.5q18 0 41 21t49 55t53.5 78t54 90t50 90t41.5 79.5t29 58.5t13 25
q6 11 14 14t14 -1.5t9 -16.5t0 -31q-1 -4 -12 -30.5t-29.5 -66t-44 -89.5t-55.5 -101t-63.5 -99.5t-68.5 -86t-69.5 -60.5t-67.5 -23q-18 0 -47.5 10t-56.5 39t-44 83t-11 142q8 121 30 246t54 262.5t73 292t88 334.5zM971 865q8 3 19 -10.5t15 -45.5q1 -15 1 -47t-3.5 -69
t-10.5 -73.5t-18 -60.5q-29 -61 -68.5 -103.5t-82 -70t-84.5 -42.5t-75.5 -22t-54.5 -9l-21 -2q0 -1 -1.5 13.5t-0.5 33t4 35.5t12 21q54 24 100 67t85 92.5t70 100.5t54 93.5t38 69.5t22 29zM281 -119q-11 -4 -26 -22.5t-26.5 -48.5t-17.5 -70t1 -87q10 -63 33 -99.5
t49.5 -54t51.5 -20t40 2.5q58 19 116.5 58.5t119 87.5t124.5 99.5t132.5 94t143.5 71t159 30.5q52 2 82.5 -18.5t47 -49t21 -58.5t3.5 -48q-2 -36 -20.5 -65.5t-48.5 -49.5t-69 -28t-82 -2q-50 8 -92.5 42t-80 85t-69.5 112t-61.5 123t-56 118.5t-52.5 97.5t-52 61.5
t-53 9.5q-6 -3 -12.5 12.5t-11.5 35t-8 36t-4 17.5q-1 2 12.5 4t34 3.5t44.5 2.5t45 1q23 0 52.5 -27t64 -71.5t72 -101.5t76 -116.5t76 -116.5t71.5 -101.5t63.5 -71.5t52.5 -27q28 0 44.5 13t24.5 29q3 8 0 27t-17.5 36t-42 26t-72.5 -2q-71 -16 -144 -54.5t-145 -86.5
t-141 -100.5t-131.5 -96t-117.5 -73.5t-99 -33q-66 -6 -114.5 17.5t-81 62t-50.5 84.5t-22 85q-8 65 8 114.5t43 78.5t58.5 36t54.5 -14zM1105 1366q-5 -83 -52.5 -143t-124 -101t-173.5 -64t-201 -29.5t-207 1t-190 27t-150.5 49.5t-89.5 68q-6 10 -4 21t7 19t10.5 11.5
t5.5 -0.5q2 -20 49 -41.5t123.5 -39.5t174 -29.5t200 -10.5t201 17t178 53.5t131 98t59.5 151.5q2 17 -2.5 27t-23.5 13q-14 3 -35.5 -29t-46.5 -86t-52.5 -123.5t-53.5 -143.5t-50.5 -145t-43 -128t-30 -93t-13.5 -39q-2 -4 -10.5 -30.5t-20.5 -69.5t-25.5 -100.5t-25 -125
t-20 -142t-9.5 -150.5q0 -16 0.5 -26t0 -16.5t-4.5 -10.5t-13 -8q-10 -5 -32 1t-44.5 24.5t-39.5 51t-16 81.5q2 104 19 220t44.5 235t64 237t78 226t86 201t88.5 162.5t85 111t75 45.5q45 7 72 -15t40.5 -57.5t15.5 -78t-4 -77.5z" />
    <glyph glyph-name="k_i" unicode="ki" horiz-adv-x="933" 
d="M-27 180q-4 42 2 120t24 176t47.5 210t71.5 222.5t97.5 212.5t125.5 180.5t154.5 127t184.5 52.5q64 2 114.5 -18.5t89 -55.5t66 -81.5t46 -97t29 -101.5t15.5 -95q8 -77 -5.5 -133t-38 -92.5t-55 -54.5t-56.5 -18q-54 1 -93 20t-64.5 48t-38.5 65t-15 71t5 67t21.5 54.5
t35.5 34t45 6.5q20 -5 30 -22t13 -38.5t1.5 -42.5t-4.5 -33q-12 -48 -9 -80.5t13.5 -52t26 -28t29.5 -10.5q27 -3 46.5 18.5t30.5 56.5t13.5 78t-3.5 84q-5 32 -13.5 71.5t-22.5 79t-34.5 76.5t-49.5 64.5t-67 42t-87 9.5q-70 -8 -134.5 -58.5t-121 -130t-105 -181.5
t-87.5 -212.5t-66.5 -222.5t-43.5 -212.5t-18 -182.5t10 -131q7 -24 -0.5 -32.5t-19.5 -11.5q-6 -2 -27 19t-44.5 51t-42.5 61.5t-21 50.5zM485 865q9 3 19.5 -10.5t14.5 -45.5q1 -15 1 -47t-3.5 -69t-10.5 -73.5t-18 -60.5q-29 -61 -68.5 -103.5t-82 -70t-84.5 -42.5
t-75.5 -22t-54.5 -9l-21 -2q0 -1 -1.5 13.5t-0.5 33t4 35.5t12 21q54 24 100 67t85 92.5t70 100.5t54 93.5t38 69.5t22 29zM694 -95q10 8 19 4.5t14.5 -13.5t6.5 -25t-6 -29q-11 -26 -32 -46.5t-48.5 -33.5t-60 -17.5t-67.5 1.5q-50 7 -88 35t-67.5 68.5t-52 89.5
t-41.5 97.5t-36 92.5t-35 75t-39.5 45.5t-48.5 3.5q-6 -3 -12.5 12.5t-11.5 35t-8 36t-4 17.5q-1 2 12.5 4t34 3.5t44.5 2.5t45 1q30 0 64.5 -36.5t71 -91t74 -118.5t74 -118.5t71 -91t64.5 -36.5q23 0 38 9t25 23zM649 722q-3 16 7 15.5t27.5 -12t38.5 -32.5t39.5 -46.5
t30.5 -53t12 -51.5q0 -8 -6 -32t-16 -58t-22 -74.5t-23 -81.5t-21 -78.5t-15 -65.5q-5 -26 -7 -38.5t0.5 -14.5t10 4t21.5 17q35 28 68 68.5t62 85.5t53.5 90.5t43 83.5t30 65t14.5 34q14 29 25.5 35.5t18 -2t6.5 -29t-10 -46.5q-12 -35 -35.5 -86t-54.5 -107t-69 -112
t-79.5 -100.5t-86 -72t-88.5 -27.5q-11 0 -26 5t-29.5 18.5t-24.5 38t-11 62.5q0 8 11.5 44t27.5 88.5t33.5 115.5t30.5 127t18 122.5t-5 100.5z" />
    <glyph glyph-name="t_i" unicode="ti" horiz-adv-x="836" 
d="M269 1399q32 1 54 -9.5t36.5 -27t22 -38t11 -42t3 -39t-2.5 -29.5q-15 -96 -34 -177.5t-39.5 -156.5t-41 -148.5t-38.5 -154t-31.5 -172t-20.5 -203.5q-2 -21 0 -42t7 -38t12.5 -27.5t17.5 -10.5q18 0 41 21t49 55t53.5 78t54 90t50 90t41.5 79.5t29 58.5t13 25
q6 11 14 14t14 -1.5t9 -16.5t0 -31q-1 -4 -12 -30.5t-29.5 -66t-44 -89.5t-55.5 -101t-63.5 -99.5t-68.5 -86t-69.5 -60.5t-67.5 -23q-18 0 -47.5 10t-56.5 39t-44 83t-11 142q8 121 30 246t54 262.5t73 292t88 334.5zM552 722q-4 16 6.5 15.5t28 -12t38.5 -32.5t39.5 -46.5
t30.5 -53t12 -51.5q0 -8 -6 -32t-16 -58t-22 -74.5t-23.5 -81.5t-21 -78.5t-14.5 -65.5q-6 -26 -7.5 -38.5t1 -14.5t10 4t20.5 17q35 28 68.5 68.5t62.5 85.5t53.5 90.5t43 83.5t30 65t14.5 34q13 29 24.5 35.5t18 -2t6.5 -29t-9 -46.5q-13 -35 -36 -86t-54.5 -107t-69 -112
t-79.5 -100.5t-86 -72t-88 -27.5q-11 0 -26.5 5t-29.5 18.5t-24.5 38t-10.5 62.5q0 8 11 44t27 88.5t34 115.5t31 127t18 122.5t-5 100.5zM610 858q3 38 14 59.5t25.5 33t29.5 14.5t27 5q-3 54 -16 87.5t-31 52t-38.5 25.5t-38.5 9q-57 3 -121.5 -2.5t-129.5 -13.5
t-128 -14.5t-117.5 -4.5t-98.5 16.5t-70 48.5q-7 9 -5.5 19.5t6 18.5t10 12t8.5 1q23 -31 64 -44t93 -14t113.5 7t126 19l129 22t124.5 16q38 3 69.5 -17t54.5 -54.5t38 -80t21.5 -93.5t3.5 -94.5t-15 -82.5t-34 -58.5t-54 -22.5q-12 0 -24.5 11t-22 29t-14 41.5t0.5 48.5z
" />
    <glyph glyph-name="k_f" unicode="kf" horiz-adv-x="1050" 
d="M485 865q9 3 19.5 -10.5t14.5 -45.5q1 -15 1 -47t-3.5 -69t-10.5 -73.5t-18 -60.5q-29 -61 -68.5 -103.5t-82 -70t-84.5 -42.5t-75.5 -22t-54.5 -9l-21 -2q0 -1 -1.5 13.5t-0.5 33t4 35.5t12 21q54 24 100 67t85 92.5t70 100.5t54 93.5t38 69.5t22 29zM602 -95
q10 8 19 4.5t15 -13.5t6.5 -25t-5.5 -29q-12 -26 -32.5 -46.5t-48 -33.5t-60.5 -17.5t-68 1.5q-50 7 -84 35t-57 68.5t-37.5 89.5t-24.5 97.5t-19 92.5t-20.5 75t-29 45.5t-44.5 3.5q-6 -3 -12.5 12.5t-11.5 35t-8 36t-4 17.5q-1 2 12.5 4t34 3.5t44.5 2.5t45 1
q30 0 58 -36.5t54 -91t52 -118.5t52 -118.5t53.5 -91t57.5 -36.5q23 0 38.5 9t24.5 23zM555 -550q23 -13 45 15.5t39 85.5t28 134t13 162t-7 169.5t-31.5 155.5t-61.5 122t-96 67q-12 3 -16.5 17.5t-2.5 28.5t11 23.5t24 2.5q3 -1 24.5 -12.5t56 -25.5t79.5 -27.5t94.5 -19
t101 0.5t99.5 31t89.5 72t71.5 124q4 11 11.5 10.5t14.5 -6.5t11 -14.5t3 -12.5q-27 -73 -63 -123.5t-77 -83t-84.5 -49.5t-84.5 -24q-97 -16 -202 13q25 -37 42.5 -98t27 -136t10 -158t-7.5 -163t-25.5 -151t-43.5 -122.5t-62 -77.5t-81 -16q-13 3 -27 14.5t-26 32t-21 49
t-12 65.5q-8 83 4 201t37.5 255t60.5 285.5t74 292.5q26 100 57.5 196.5t66 183.5t72 161t76 128.5t77.5 86t77 33.5q43 4 67.5 -17t36.5 -55t15.5 -76.5t4.5 -81.5q1 -81 -15.5 -155.5t-44.5 -139.5t-65 -118.5t-76 -91.5t-78 -59t-71 -22q-49 -2 -89 18.5t-69.5 48t-47 55
t-20.5 40.5q-7 27 -6.5 37.5t12.5 5.5q4 -2 13 -13.5t22.5 -28t32 -35t41 -33.5t48 -25t53.5 -9q42 2 81.5 30.5t74.5 74t64.5 102.5t50.5 115.5t33 113.5t13 97q0 21 -3.5 38.5t-9.5 30.5t-12.5 19.5t-12.5 4.5q-8 -2 -26.5 -31t-44 -78.5t-57.5 -118t-66 -150
t-69.5 -172.5t-68.5 -187q-40 -116 -75 -233.5t-62.5 -228t-46 -208.5t-24.5 -174t1 -125.5t30 -62.5zM438 1445q61 5 95 -19t49 -63.5t13.5 -86t-11.5 -86.5q-15 -56 -39 -105t-54 -91t-63 -77.5t-66 -63.5q-77 -66 -165 -113l10 68q5 -8 25.5 3.5t51 37t66 63t71 82
t66 93.5t50.5 99q5 13 8.5 32t3 35.5t-5.5 27.5t-17 10t-44.5 -36t-75 -102t-91 -165t-92 -225.5t-77 -283t-47.5 -337.5q-1 -15 -1 -32.5v-32.5t0.5 -26t-0.5 -13q-10 -27 -26.5 -29.5t-34 22.5t-32.5 78.5t-21 137.5q-2 30 5.5 96.5t24.5 155.5t41.5 192t56 207t68.5 201
t78.5 172.5t87 122.5t92.5 51z" />
    <glyph glyph-name="k_j" unicode="kj" horiz-adv-x="923" 
d="M485 865q9 3 19.5 -10.5t14.5 -45.5q1 -15 1 -47t-3.5 -69t-10.5 -73.5t-18 -60.5q-29 -61 -68.5 -103.5t-82 -70t-84.5 -42.5t-75.5 -22t-54.5 -9l-21 -2q0 -1 -1.5 13.5t-0.5 33t4 35.5t12 21q54 24 100 67t85 92.5t70 100.5t54 93.5t38 69.5t22 29zM694 -95
q10 8 19 4.5t14.5 -13.5t6.5 -25t-6 -29q-11 -26 -32 -46.5t-48.5 -33.5t-60 -17.5t-67.5 1.5q-50 7 -88 35t-67.5 68.5t-52 89.5t-41.5 97.5t-36 92.5t-35 75t-39.5 45.5t-48.5 3.5q-6 -3 -12.5 12.5t-11.5 35t-8 36t-4 17.5q-1 2 12.5 4t34 3.5t44.5 2.5t45 1
q30 0 64.5 -36.5t71 -91t74 -118.5t74 -118.5t71 -91t64.5 -36.5q23 0 38 9t25 23zM659 722q-3 18 8 15.5t29.5 -17t40 -37.5t39.5 -46.5t29.5 -44t9.5 -28.5q-44 -195 -89.5 -376t-95.5 -339.5t-105.5 -290.5t-119 -228t-137.5 -152.5t-161 -63.5q-83 -8 -139 15.5t-90 63
t-48.5 88t-14.5 90.5q0 67 23 122t65 92t99 54t124 9q72 -8 153 -37t163 -67t161.5 -79t149.5 -73t126.5 -49t93.5 -7q58 17 84.5 84.5t25.5 170.5q0 51 -11.5 90.5t-28 65.5t-36 37t-35.5 5q-21 -8 -26 -22.5t-0.5 -32t15.5 -38t23 -41.5t21.5 -41.5t11.5 -37.5
q4 -38 -1 -66t-15 -47t-23.5 -28.5t-27.5 -10.5q-16 -2 -33.5 2.5t-34 19.5t-31.5 41t-25 68q-14 55 -6.5 105.5t28.5 89.5t52.5 62.5t66.5 24.5q55 2 98 -21t72.5 -61t45 -86t15.5 -96q1 -91 -22 -149.5t-55.5 -92.5t-69 -47t-62.5 -14q-52 -1 -118 20.5t-140.5 54t-153 71
t-155 72.5t-148.5 57t-132 25q-47 2 -87.5 -16.5t-69 -50.5t-43.5 -73.5t-10 -84.5q3 -30 17 -60.5t38 -54t57.5 -36t76.5 -6.5q33 5 69.5 46t74 109t75.5 157.5t74 191t69.5 210t62 214t51.5 204t38 179t21.5 139t2.5 84.5zM685 109l13 11q35 28 68 68.5t62 85.5t53.5 90.5
t43 83.5t30 65t14.5 34q14 29 25.5 35.5t18 -2t6.5 -29t-10 -46.5q-11 -30 -29.5 -72.5t-43.5 -90t-55.5 -97t-64.5 -93.5t-71 -79t-75 -54zM-27 180q-4 42 2 120t24 176t47.5 210t71.5 222.5t97.5 212.5t125.5 180.5t154.5 127t184.5 52.5q64 2 114.5 -18.5t89 -55.5
t66 -81.5t46 -97t29 -101.5t15.5 -95q8 -77 -5.5 -133t-38 -92.5t-55 -54.5t-56.5 -18q-54 1 -93 20t-64.5 48t-38.5 65t-15 71t5 67t21.5 54.5t35.5 34t45 6.5q20 -5 30 -22t13 -38.5t1.5 -42.5t-4.5 -33q-12 -48 -9 -80.5t13.5 -52t26 -28t29.5 -10.5q27 -3 46.5 18.5
t30.5 56.5t13.5 78t-3.5 84q-5 32 -13.5 71.5t-22.5 79t-34.5 76.5t-49.5 64.5t-67 42t-87 9.5q-70 -8 -134.5 -58.5t-121 -130t-105 -181.5t-87.5 -212.5t-66.5 -222.5t-43.5 -212.5t-18 -182.5t10 -131q7 -24 -0.5 -32.5t-19.5 -11.5q-6 -2 -27 19t-44.5 51t-42.5 61.5
t-21 50.5z" />
    <glyph glyph-name="g_q" unicode="gq" horiz-adv-x="1225" 
d="M492 -162q52 20 94 6.5t70.5 -47t44 -81t15.5 -95.5q1 -90 -21.5 -148.5t-55.5 -92t-69 -46.5t-63 -13q-52 -1 -103 16.5t-103 44.5t-104.5 59t-107 60t-111 47.5t-116.5 21.5q-50 2 -87.5 -16t-62.5 -51t-37.5 -79.5t-12.5 -100.5q0 -21 9 -48.5t29.5 -50.5t52 -37
t75.5 -8q33 5 67.5 43t69.5 100.5t70 145.5t68.5 178.5t65 199.5t59.5 208t52.5 203.5t44 187.5t33 159t20.5 118q2 17 15 17.5t31 -10t38 -28.5t36.5 -37t26.5 -35.5t8 -24.5q-48 -189 -94.5 -371t-96.5 -345.5t-104 -301.5t-116.5 -240.5t-135.5 -163.5t-159 -68
q-83 -8 -139.5 15.5t-90.5 63t-49 88t-15 90.5q0 67 23 122t65 92t99.5 54t125.5 9q72 -8 137.5 -33.5t125.5 -57.5t113.5 -66.5t101 -61t89.5 -39.5t78 -3q58 15 84.5 83t26.5 170q0 50 -11 89.5t-27.5 65t-36 37t-35.5 6.5zM-31 232q-3 34 1.5 83t19 102t39 106.5
t60.5 96.5t84.5 72.5t111.5 34.5q20 2 39 -8.5t32.5 -34.5t19.5 -61t0 -88q0 -5 -5.5 -19.5t-11 -27t-10 -19t-2.5 4.5q10 64 -2.5 104t-33.5 42q-24 3 -52.5 -29.5t-54.5 -88t-45 -126.5t-23 -144q-1 -8 1 -28t7 -40t13.5 -35.5t21.5 -15.5t30.5 20t33.5 45q18 29 37 66
l30 -64q-16 -47 -41.5 -77.5t-55 -49t-59.5 -25.5t-55 -6q-35 3 -59 27t-39 57t-22.5 68t-9.5 58zM389 109l13 11q35 28 68.5 68.5t62.5 85.5t53.5 90.5t43 83.5t30 65t14.5 34q13 29 24.5 35.5t18 -2t6.5 -29t-9 -46.5q-11 -30 -30 -72.5t-44 -90t-55.5 -97t-64.5 -93.5
t-70.5 -79t-74.5 -54zM580 232q-3 34 1 83.5t17 103.5t36.5 107.5t58.5 98t83 74t110 35.5q21 2 40 -9t32.5 -34.5t19.5 -60.5t1 -88q-1 -6 -6 -20t-11 -27t-10 -19.5t-2 4.5q4 31 3 57.5t-6.5 46t-14.5 30.5t-19 12q-24 4 -51 -30t-51 -90.5t-41.5 -128.5t-21.5 -145
q0 -8 1.5 -28t7 -40t14 -35.5t21.5 -15.5t28.5 19t29.5 42q16 27 31 62l42 -56q-17 -47 -42.5 -77.5t-55 -49t-59 -25.5t-54.5 -6q-35 3 -59 27t-39.5 57t-23.5 68t-10 58zM975 773q13 0 41 -14.5t55.5 -42.5t47 -69t16.5 -94q-2 -36 -17.5 -91t-38 -124t-49 -149.5
t-50.5 -168.5t-43.5 -180.5t-28 -185t-3 -182t31.5 -172.5q13 -42 0.5 -62.5t-47.5 -15.5q-24 3 -42.5 26t-32 58t-22.5 76t-14.5 80t-7.5 70t-2 46q1 132 21.5 261.5t50 249t60.5 224.5t52.5 188.5t27.5 141.5t-16 84q-13 15 -15 24.5t1.5 14t10.5 6t13 1.5zM940 -756
q-6 -14 -15 -17t-17.5 2.5t-14 18.5t-4.5 31q-1 127 16.5 233.5t47.5 204t69.5 190.5t82.5 192.5t85.5 210t79.5 243.5q6 18 16.5 25.5t20 4.5t15 -15.5t2.5 -32.5q-30 -118 -70.5 -224t-84 -206.5t-86 -199.5t-75.5 -203t-52 -217t-16 -241z" />
    <glyph glyph-name="q_j" unicode="qj" horiz-adv-x="904" 
d="M363 773q13 0 41 -14.5t55 -42.5t46.5 -69t16.5 -94q-2 -36 -17.5 -91t-38 -124t-48.5 -149.5t-50.5 -168.5t-44 -180.5t-27.5 -185t-2.5 -182t31.5 -172.5q12 -42 -0.5 -62.5t-47.5 -15.5q-24 3 -42 26t-31.5 58t-22.5 76t-14.5 80t-8 70t-2.5 46q1 132 21.5 261.5
t50 249t60.5 224.5t52.5 188.5t27.5 141.5t-16 84q-13 15 -15 24.5t1.5 14t11 6t13.5 1.5zM-31 232q-3 34 1 83.5t17 103.5t36 107.5t58 98t82.5 74t110.5 35.5q20 2 39 -9t32.5 -34.5t20 -60.5t0.5 -88q-1 -6 -6 -20t-11 -27t-10 -19.5t-2 4.5q9 63 -3 103.5t-33 42.5
q-24 4 -51 -30t-51 -90.5t-41.5 -128.5t-21.5 -145q-1 -8 1 -28t7 -40t13.5 -35.5t21.5 -15.5t28.5 19t29.5 42q16 27 32 62l41 -56q-16 -47 -41.5 -77.5t-55 -49t-59.5 -25.5t-55 -6q-35 3 -59 27t-39 57t-22.5 68t-9.5 58zM328 -756q-7 -14 -16 -17t-17.5 2.5t-14 18.5
t-4.5 31q-1 127 16.5 233.5t47.5 204t70 190.5t82.5 192.5t85.5 210t80 243.5q6 18 16 25.5t19.5 4.5t15 -15.5t2.5 -32.5q-30 -118 -70.5 -224t-84 -206.5t-85.5 -199.5t-75 -203t-52 -217t-16 -241zM270 -998q-11 -4 -19 4t-11 21t1 26t16 19q33 10 66 57.5t64 122t60 172
t55 207t49 225.5t42 228.5t33 216.5t23 189t11.5 145.5t-1.5 86.5q-3 18 8 15.5t29.5 -17t40 -37.5t39.5 -46.5t29.5 -44t9.5 -28.5q-43 -188 -77.5 -372t-68 -352t-69.5 -313.5t-82.5 -256t-106.5 -181t-141 -87.5zM730 850q3 25 11 47t18.5 38.5t23 26t24.5 9.5t21 -9.5
t14.5 -26t6.5 -38.5t-2 -47q-4 -25 -12.5 -47t-19.5 -38.5t-23.5 -26.5t-24.5 -10t-21 10t-14 26.5t-6 38.5t4 47zM685 109l13 11q35 28 68 68.5t62 85.5t53.5 90.5t43 83.5t30 65t14.5 34q14 29 25.5 35.5t18 -2t6.5 -29t-10 -46.5q-11 -30 -29.5 -72.5t-43.5 -90
t-55.5 -97t-64.5 -93.5t-71 -79t-75 -54z" />
    <glyph glyph-name="q_g" unicode="qg" horiz-adv-x="1225" 
d="M-31 232q-3 34 1 83.5t17 103.5t36 107.5t58 98t82.5 74t110.5 35.5q20 2 39 -9t32.5 -34.5t20 -60.5t0.5 -88q-1 -6 -6 -20t-11 -27t-10 -19.5t-2 4.5q9 63 -3 103.5t-33 42.5q-24 4 -51 -30t-51 -90.5t-41.5 -128.5t-21.5 -145q-1 -8 1 -28t7 -40t13.5 -35.5
t21.5 -15.5t28.5 19t29.5 42q16 27 32 62l41 -56q-16 -47 -41.5 -77.5t-55 -49t-59.5 -25.5t-55 -6q-35 3 -59 27t-39 57t-22.5 68t-9.5 58zM465 -883q-18 0 -27.5 10t-10.5 22t4.5 22.5t17.5 10.5q41 13 84.5 73.5t87 153.5t85 210t80 244t72.5 255.5t60.5 243.5t45 208.5
t26.5 151.5q2 17 15.5 17.5t31.5 -10t38 -28.5t36.5 -37t26.5 -35.5t8 -24.5q-47 -185 -92.5 -362.5t-94 -337.5t-101 -297t-112.5 -240.5t-129.5 -168.5t-151.5 -81zM580 232q-3 34 2 83t19.5 102t39 106.5t61 96.5t85 72.5t110.5 34.5q20 2 39 -8.5t32.5 -34.5t20 -61
t0.5 -88q0 -5 -5.5 -19.5t-11 -27t-10 -19t-2.5 4.5q5 32 3.5 58.5t-6.5 45.5t-14 30t-19 12q-24 3 -52.5 -29.5t-55 -88t-45.5 -126.5t-23 -144q0 -8 1.5 -28t7 -40t14 -35.5t21.5 -15.5t30 20t33 45q18 29 37 66l31 -64q-17 -47 -42.5 -77.5t-55 -49t-59 -25.5t-54.5 -6
q-35 3 -59 27t-39.5 57t-23.5 68t-10 58zM1002 109l13 11q35 28 68 68.5t62 85.5t53.5 90.5t43 83.5t30 65t14.5 34q14 29 25.5 35.5t18 -2t6.5 -29t-10 -46.5q-11 -30 -29.5 -72.5t-43.5 -90t-55.5 -97t-64.5 -93.5t-71 -79t-75 -54zM363 773q13 0 41 -14.5t55 -42.5
t46.5 -69t16.5 -94q-2 -36 -17.5 -91t-38 -124t-48.5 -149.5t-50.5 -168.5t-44 -180.5t-27.5 -185t-2.5 -182t31.5 -172.5q12 -42 -0.5 -62.5t-47.5 -15.5q-24 3 -42 26t-31.5 58t-22.5 76t-14.5 80t-8 70t-2.5 46q1 132 21.5 261.5t50 249t60.5 224.5t52.5 188.5
t27.5 141.5t-16 84q-13 15 -15 24.5t1.5 14t11 6t13.5 1.5zM328 -756q-7 -14 -16 -17t-17.5 2.5t-14 18.5t-4.5 31q-1 127 17 233t48.5 202.5t70.5 188.5t83 190.5t86 209t80 243.5q6 18 16 26t18.5 6.5t13.5 -12.5t2 -31q-30 -118 -70.5 -224t-84 -206.5t-85.5 -199.5
t-75 -203t-52 -217t-16 -241z" />
    <glyph glyph-name="g_f" unicode="gf" horiz-adv-x="1147" 
d="M967 -410q50 16 89 1.5t66.5 -47.5t42 -78.5t14.5 -91.5q0 -91 -23 -150t-56 -93t-69 -47t-63 -13q-39 -1 -97 19.5t-129 55t-151.5 79t-163 91t-164.5 91.5t-156 81t-137 58t-108 24q-50 2 -87.5 -16t-62.5 -51t-37.5 -79.5t-12.5 -100.5q0 -21 9 -48.5t29.5 -50.5
t52 -37t75.5 -8q33 5 67.5 43t69.5 100.5t70 145.5t68.5 178.5t65 199.5t59.5 208t52.5 203.5t44 187.5t33 159t20.5 118q2 17 15 17.5t31 -10t38 -28.5t36.5 -37t26.5 -35.5t8 -24.5q-48 -189 -94.5 -371t-96.5 -345.5t-104 -301.5t-116.5 -240.5t-135.5 -163.5t-159 -68
q-83 -8 -139.5 15.5t-90.5 63t-49 88t-15 90.5q0 67 23 122t65 92t99.5 54t125.5 9q54 -6 124.5 -32.5t150 -66t164.5 -87.5t168.5 -96t161.5 -92.5t144 -77.5t116.5 -49.5t77.5 -9.5q58 16 84.5 84t25.5 169q0 46 -9 83t-23 62.5t-31 39.5t-33 15zM-31 232q-3 34 1.5 83
t19 102t39 106.5t60.5 96.5t84.5 72.5t111.5 34.5q20 2 39 -8.5t32.5 -34.5t19.5 -61t0 -88q0 -5 -5.5 -19.5t-11 -27t-10 -19t-2.5 4.5q10 64 -2.5 104t-33.5 42q-24 3 -52.5 -29.5t-54.5 -88t-45 -126.5t-23 -144q-1 -8 1 -28t7 -40t13.5 -35.5t21.5 -15.5t30.5 20
t33.5 45q18 29 37 66l30 -64q-16 -47 -41.5 -77.5t-55 -49t-59.5 -25.5t-55 -6q-35 3 -59 27t-39 57t-22.5 68t-9.5 58zM389 109l13 11q35 28 68.5 68.5t62.5 85.5t53.5 90.5t43 83.5t30 65t14.5 34q13 29 24.5 35.5t18 -2t6.5 -29t-9 -46.5q-11 -30 -30 -72.5t-44 -90
t-55.5 -97t-64.5 -93.5t-70.5 -79t-74.5 -54zM637 -550q23 -13 45 15.5t39 85.5t28 134t13 162t-7 169.5t-31.5 155.5t-61.5 122t-96 67q-12 3 -16.5 17.5t-2.5 28.5t11 23.5t24 2.5q3 -1 24.5 -12.5t56 -25.5t79.5 -27.5t94.5 -19t101 0.5t99.5 31t89.5 72t71.5 124
q4 11 11.5 10.5t14.5 -6.5t11 -14.5t3 -12.5q-27 -73 -63 -123.5t-77 -83t-84.5 -49.5t-84.5 -24q-97 -16 -202 13q25 -37 42.5 -98t27 -136t10 -158t-7.5 -163t-25.5 -151t-43.5 -122.5t-62 -77.5t-81 -16q-13 3 -27 14.5t-26 32t-21 49t-12 65.5q-8 83 4 201t37 255
t60.5 285.5t73.5 292.5q26 100 57.5 196.5t66.5 183.5t72 161t75.5 128.5t78 86t77.5 33.5q43 4 67.5 -17t36.5 -55t15.5 -76.5t4.5 -81.5q1 -81 -15.5 -155.5t-44.5 -139.5t-65 -118.5t-76 -91.5t-78 -59t-71 -22q-49 -2 -89 18.5t-69.5 48t-47 55t-20.5 40.5
q-7 27 -6.5 37.5t12.5 5.5q3 -2 12.5 -13.5t23 -28t32 -35t41 -33.5t48 -25t53.5 -9q42 2 81.5 30.5t74.5 74t64.5 102.5t50.5 115.5t33 113.5t13 97q0 21 -3.5 38.5t-9.5 30.5t-12.5 19.5t-12.5 4.5q-8 -2 -26.5 -31t-44 -78.5t-57.5 -118t-66 -150t-69.5 -172.5
t-68.5 -187q-40 -116 -75 -233.5t-62.5 -228t-46 -208.5t-24.5 -174t1 -125.5t30 -62.5z" />
    <glyph glyph-name=".notdef" horiz-adv-x="457" 
 />
    <glyph glyph-name="i" unicode="i" horiz-adv-x="350" 
d="M66 722q-4 16 6.5 15.5t28 -12t38.5 -32.5t39.5 -46.5t30.5 -53t12 -51.5q0 -8 -6 -32t-16 -58t-22 -74.5t-23.5 -81.5t-21 -78.5t-14.5 -65.5q-5 -26 -7 -38.5t0.5 -14.5t10 4t21.5 17q35 28 68 68.5t62 85.5t53.5 90.5t43 83.5t30 65t14.5 34q14 29 25.5 35.5t18 -2
t6 -29t-9.5 -46.5q-13 -35 -36 -86t-54 -107t-69 -112t-79.5 -100.5t-86 -72t-88.5 -27.5q-11 0 -26 5t-29 18.5t-24.5 38t-10.5 62.5q0 8 11 44t27.5 88.5t34 115.5t30 127t17.5 122.5t-5 100.5zM147 850q3 25 11 47t18.5 38.5t23 26t24.5 9.5t21 -9.5t14.5 -26t6.5 -38.5
t-2 -47q-4 -25 -12.5 -47t-19.5 -38.5t-23.5 -26.5t-24.5 -10t-21 10t-14 26.5t-6 38.5t4 47z" />
    <glyph glyph-name="r" unicode="r" horiz-adv-x="496" 
d="M220 62q24 -3 50 15t53 50t53.5 74t50.5 86.5t45.5 89t37.5 80.5t26.5 60.5t12.5 29.5q14 29 25.5 35.5t18 -2t6.5 -29t-10 -46.5q-12 -42 -34.5 -97.5t-52 -114.5t-64.5 -117t-72.5 -104t-76.5 -75t-75 -31q-19 -1 -45 6t-50.5 29t-42.5 62t-22 105q-1 19 4 51.5t14 70
t20 75.5t20.5 68.5t16.5 50t8 19.5t-15.5 0.5t-39 11t-43.5 36t-28 75.5q-3 23 1.5 55t14 67t24 69.5t32 62.5t38 47t41.5 22q26 4 44.5 -2t29.5 -17.5t15 -27.5t1 -33t-17 -50t-30 -66q-18 -39 -41 -82q41 15 76 28q30 11 60 21.5t46 13.5q20 4 31.5 -10.5t15.5 -35.5
t1 -43.5t-12 -34.5q-23 -32 -50.5 -82.5t-52.5 -107.5t-45 -116t-30.5 -109t-7.5 -86t24 -47z" />
    <glyph glyph-name="space" unicode=" " horiz-adv-x="457" 
 />
    <glyph glyph-name="b" unicode="b" horiz-adv-x="720" 
d="M403 1282q61 5 96 -19.5t49.5 -63.5t13 -85.5t-11.5 -86.5q-14 -56 -37 -98.5t-50.5 -73t-57.5 -51t-60 -33.5q-70 -30 -148 -31l10 68q7 -11 43 -6.5t82.5 29t93.5 71t77 120.5q6 13 9 32t2.5 36t-5.5 28.5t-17 10.5q-12 -2 -41.5 -25t-69 -72t-83 -126t-83.5 -186.5
t-71 -252.5t-45 -325q-1 -15 -1 -32.5v-32.5t0.5 -26t-0.5 -13q-10 -27 -26.5 -29.5t-34 22.5t-32.5 78.5t-21 137.5q-2 30 4 89.5t20.5 136.5t36 166t49.5 177.5t62 170.5t73 146t83 104.5t91 44.5zM364 684q32 0 57.5 -14.5t44.5 -39t32.5 -56t22 -65t12.5 -66t5 -59.5
q0 -13 -1 -49t-8.5 -83t-24 -98t-46.5 -94.5t-75.5 -72.5t-111.5 -31q-23 -2 -48.5 7.5t-47 31.5t-37.5 57t-19 84q-4 57 13.5 104.5t44.5 83t58 56.5t54 26q40 9 80 7.5t79.5 -3.5t80 2t82.5 24t86.5 62t91.5 116q7 12 17 13.5t17 -6t8 -23.5t-8 -39q-30 -74 -73.5 -119
t-93 -70.5t-100 -35t-95 -10t-78 2.5t-48.5 3q-45 -2 -75.5 -25t-49 -53.5t-25 -62.5t-3.5 -53q6 -32 13.5 -52t18.5 -30.5t24.5 -13.5t31.5 -2q17 2 38.5 25.5t39.5 67t27.5 107t2.5 146.5q-4 45 -15 80.5t-26 60.5t-31.5 38.5t-29.5 12.5q-16 -2 -31.5 -13t-29.5 -29
t-26.5 -40.5t-23.5 -45.5q-26 -55 -48 -122q-5 15 -7 33q-2 15 -1.5 33t6.5 38q3 12 11.5 36t22.5 52t34 57.5t46.5 53.5t60 39.5t74.5 15.5z" />
    <glyph glyph-name="e" unicode="e" horiz-adv-x="486" 
d="M599 564q-16 -47 -44 -109t-65 -127.5t-80.5 -129t-89.5 -112t-92.5 -77.5t-88.5 -26q-63 4 -105.5 30t-68 64t-37 82t-13.5 85q-6 94 19 179.5t70 151.5t102.5 105.5t116.5 41.5q48 2 74.5 -13t39 -37t14 -47t0.5 -43q-3 -39 -16 -73t-32.5 -62.5t-43 -52t-47.5 -41.5
q-56 -43 -126 -71q-28 30 -40 51q-5 9 -7.5 17t0.5 13t12 6.5t27 -2.5q33 -8 70 14t69.5 57.5t55.5 77t27 72.5q2 9 1 19t-4 17.5t-9 11.5t-14 2q-14 -4 -33 -26t-38.5 -56.5t-38.5 -79.5t-34 -95t-24.5 -103t-9.5 -103q1 -50 13.5 -78.5t44.5 -23.5q24 4 52 17.5t57 35
t57.5 52t54.5 69.5q28 42 56.5 94t53.5 103t44.5 94.5t29.5 67.5q14 29 25.5 35.5t18 -2.5t6.5 -29.5t-10 -45.5z" />
    <glyph glyph-name="c" unicode="c" horiz-adv-x="545" 
d="M304 415q-8 -9 -18.5 -8t-18.5 9t-10.5 20.5t5.5 26.5q23 30 37.5 60t17.5 53q4 21 -2.5 35.5t-23.5 14.5q-12 0 -29.5 -19.5t-37 -52.5t-39 -77.5t-35 -94.5t-25 -103.5t-9.5 -103.5q0 -25 4 -49.5t12 -43t20 -29.5t28 -9q24 4 51.5 22t55 45t55 62t53.5 74
q27 42 51.5 85t44.5 83t36 74.5t27 57.5q13 29 24.5 35.5t18 -2t6.5 -29t-10 -46.5q-16 -47 -42.5 -105t-60.5 -117t-74.5 -114t-83.5 -97.5t-87.5 -67t-86.5 -21.5q-63 4 -105 30t-67.5 64t-37 82t-14.5 85q-6 94 19 178t69.5 147.5t101.5 102t116 40.5q49 2 75.5 -13
t38.5 -37.5t13.5 -48t0.5 -43.5q-3 -48 -20.5 -86t-43.5 -69z" />
    <glyph glyph-name="d" unicode="d" horiz-adv-x="652" 
d="M365 667q0 -1 5.5 27t14 75t18 107t18 122.5t13.5 122.5t5 106.5t-7.5 74t-25.5 25.5q-24 -3 -41 -27t-27 -61.5t-12.5 -85.5t1 -98.5t13.5 -100t26 -90t37 -68t48 -35.5q4 -2 5.5 -13t0.5 -23.5t-4.5 -22.5t-10.5 -8q-43 12 -76 50t-55.5 92.5t-35.5 120t-15 131.5
t6.5 127.5t27.5 107.5t49 72.5t71 22.5q64 -6 99.5 -53.5t49.5 -123t9 -172t-20.5 -201.5t-38 -211.5t-45.5 -201t-42.5 -171t-27.5 -121.5q-11 -52 -3 -58.5t35 15.5q35 28 68 68.5t62 85.5t53.5 90.5t43 83.5t30 65t14.5 34q14 29 25.5 35.5t18 -2t6 -29t-9.5 -46.5
q-12 -35 -35.5 -86t-54.5 -107t-69 -112t-79.5 -100.5t-86 -72t-88.5 -27.5q-11 0 -26 5t-29.5 18.5t-25 38t-10.5 62.5q0 7 8 40.5t20 83t26.5 108.5t28.5 117t26 109.5t19 84.5zM-40 232q-4 34 1 83t19 102t38.5 106.5t61 96.5t85 72.5t110.5 34.5q21 2 40 -8.5
t32.5 -34.5t19.5 -61t0 -88q0 -5 -5.5 -19.5t-11 -27t-10 -19t-2.5 4.5q10 64 -2.5 104t-33.5 42q-24 3 -52.5 -29.5t-54.5 -88t-45 -126.5t-23 -144q-1 -8 1 -28t7 -40t13.5 -35.5t21.5 -15.5t28.5 19t29.5 42q16 27 31 62l42 -56q-16 -47 -41.5 -77.5t-55 -49t-59.5 -25.5
t-55 -6q-35 3 -58.5 27t-38.5 57t-23 68t-10 58z" />
    <glyph glyph-name="f" unicode="f" horiz-adv-x="467" 
d="M-27 -550q23 -13 44.5 15.5t38.5 85.5t28.5 134t13.5 162t-7 169.5t-32 155.5t-61.5 122t-95.5 67q-12 3 -16.5 17.5t-2.5 28.5t11 23.5t24 2.5q3 -1 24.5 -12.5t56 -25.5t79 -27.5t94 -19t101 0.5t99.5 31t89.5 72t71.5 124q4 11 11.5 10.5t14.5 -6.5t11 -14.5t3 -12.5
q-27 -73 -63 -123.5t-77 -83t-84.5 -49.5t-84.5 -24q-97 -16 -202 13q25 -37 42.5 -98t27 -136t10 -158t-7.5 -163t-25 -151t-43.5 -122.5t-62 -77.5t-80.5 -16q-13 3 -27 14.5t-26 32t-21 49t-12 65.5q-8 83 4 201t37 255t60 285.5t73 292.5q27 100 58 196.5t66 183.5
t72 161t75.5 128.5t78 86t77.5 33.5q43 4 67.5 -17t36.5 -55t15.5 -76.5t4.5 -81.5q1 -81 -15.5 -155.5t-44.5 -139.5t-65 -118.5t-76 -91.5t-78 -59t-71 -22q-49 -2 -89 18.5t-69.5 48t-46.5 55t-20 40.5q-7 27 -6.5 37.5t12.5 5.5q3 -2 12 -13.5t23 -28t32 -35t40.5 -33.5
t48 -25t53.5 -9q42 2 81.5 30.5t74.5 74t64.5 102.5t50.5 115.5t33 113.5t13 97q0 21 -3.5 38.5t-9.5 30.5t-12.5 19.5t-12.5 4.5q-8 -2 -26.5 -31t-44 -78.5t-57.5 -118t-66 -150t-69.5 -172.5t-68.5 -187q-40 -116 -75 -233.5t-62 -228t-45.5 -208.5t-24.5 -174t1 -125.5
t30 -62.5z" />
    <glyph glyph-name="g" unicode="g" horiz-adv-x="612" 
d="M776 -280q78 -17 118.5 -57t50.5 -90.5t-5.5 -104.5t-49.5 -98.5t-81.5 -72.5t-101.5 -27q-52 1 -118 23t-140 54.5t-152.5 71t-155 71.5t-148 55.5t-131.5 24.5q-50 2 -87.5 -16t-62.5 -51t-37.5 -79.5t-12.5 -100.5q0 -21 9 -48.5t29.5 -50.5t52 -37t75.5 -8
q33 5 67.5 43t69.5 100.5t70 145.5t68.5 178.5t65 199.5t59.5 208t52.5 203.5t44 187.5t33 159t20.5 118q2 17 15 17.5t31 -10t38 -28.5t36.5 -37t26.5 -35.5t8 -24.5q-48 -189 -94.5 -371t-96.5 -345.5t-104 -301.5t-116.5 -240.5t-135.5 -163.5t-159 -68
q-83 -8 -139.5 15.5t-90.5 63t-49 88t-15 90.5q0 67 23 122t65 92t99.5 54t125.5 9q72 -8 152.5 -37t162.5 -67t161.5 -79t149 -73t126.5 -49t93 -7q32 9 53.5 33.5t35 58.5t18.5 74t4 79.5t-8 76t-18 62.5zM-31 232q-3 34 1.5 83t19 102t39 106.5t60.5 96.5t84.5 72.5
t111.5 34.5q20 2 39 -8.5t32.5 -34.5t19.5 -61t0 -88q0 -5 -5.5 -19.5t-11 -27t-10 -19t-2.5 4.5q10 64 -2.5 104t-33.5 42q-24 3 -52.5 -29.5t-54.5 -88t-45 -126.5t-23 -144q-1 -8 1 -28t7 -40t13.5 -35.5t21.5 -15.5t30.5 20t33.5 45q18 29 37 66l30 -64
q-16 -47 -41.5 -77.5t-55 -49t-59.5 -25.5t-55 -6q-35 3 -59 27t-39 57t-22.5 68t-9.5 58zM389 109l13 11q35 28 68.5 68.5t62.5 85.5t53.5 90.5t43 83.5t30 65t14.5 34q13 29 24.5 35.5t18 -2t6.5 -29t-9 -46.5q-11 -30 -30 -72.5t-44 -90t-55.5 -97t-64.5 -93.5t-70.5 -79
t-74.5 -54z" />
    <glyph glyph-name="j" unicode="j" horiz-adv-x="291" 
d="M390 -165q46 -6 82.5 -31.5t61.5 -62t38.5 -80.5t13.5 -88q0 -91 -22.5 -149.5t-55.5 -92.5t-69 -47t-63 -14q-52 -1 -118 20.5t-140 54t-152.5 71t-155 72.5t-148 57t-131.5 25q-47 2 -87.5 -16.5t-69.5 -50.5t-44 -73.5t-10 -84.5q3 -30 17 -60.5t38 -54t57.5 -36
t76.5 -6.5q33 5 69.5 46t74 109t75.5 157.5t74 191t69 210t61.5 214t51.5 204t38.5 179t22 139t2.5 84.5q-3 18 8 15.5t29 -17t39.5 -37.5t40 -46.5t30 -44t9.5 -28.5q-44 -195 -89.5 -376t-95.5 -339.5t-105 -290.5t-119 -228t-138 -152.5t-161 -63.5q-83 -8 -139 15.5
t-90 63t-49 88t-15 90.5q0 67 23 122t65 92t99.5 54t125.5 9q72 -8 152.5 -37t162.5 -67t161.5 -79t149.5 -73t126.5 -49t92.5 -7q58 17 85 84.5t25 170.5q0 36 -6 67t-16.5 60t-25.5 58t-32 59zM117 850q3 25 11.5 47t19 38.5t23 26t24.5 9.5t21 -9.5t14.5 -26t6.5 -38.5
t-2 -47q-5 -25 -13.5 -47t-19 -38.5t-23 -26.5t-24.5 -10t-21 10t-14 26.5t-6 38.5t3 47zM72 109l13 11q35 28 68.5 68.5t62.5 85.5t53.5 90.5t43 83.5t30 65t14.5 34q13 29 24.5 35.5t18 -2t6.5 -29t-9 -46.5q-11 -30 -30 -72.5t-44 -90t-55.5 -97t-64.5 -93.5t-71 -79
t-75 -54z" />
    <glyph glyph-name="h" unicode="h" horiz-adv-x="661" 
d="M447 1399q44 6 71 -15.5t40.5 -57t15.5 -78t-4 -77.5q-11 -63 -33.5 -119t-52.5 -105t-65 -91.5t-69 -76.5q-81 -81 -176 -143l18 86q28 13 61 43t67 69.5t67 85.5t61 93t47.5 91t27 79.5t1 58.5t-32.5 28q-14 3 -33.5 -20.5t-41 -64t-44.5 -92.5t-44.5 -107.5
t-41.5 -109.5t-35 -97t-24.5 -71t-11.5 -31q-2 -4 -10.5 -30.5t-20.5 -69.5t-25.5 -100.5t-25 -125t-19.5 -142t-9 -150.5q0 -16 0.5 -26t-0.5 -16.5t-5 -10.5t-13 -8q-10 -5 -32 1t-44 24.5t-39 51t-16 81.5q3 138 27.5 282.5t64 280.5t89.5 257t103.5 213t107 148t99.5 62
zM366 130q-4 -27 5.5 -27.5t32.5 17.5q39 28 76 68.5t69.5 85.5t60 90.5t48.5 83.5t34 65t16 34q14 29 25.5 35.5t18 -2t6 -29t-9.5 -46.5q-11 -31 -33 -76t-52.5 -96.5t-67 -104.5t-76.5 -99t-82.5 -81t-84.5 -50q-24 -9 -53 -1.5t-52.5 28t-37.5 51t-9 67.5
q6 49 15.5 92.5t21 85.5t23.5 85.5t24 92.5q10 45 9 64.5t-10 21t-23.5 -12t-31.5 -34.5q-40 -49 -97 -142q3 29 7 52q3 20 5.5 37t4.5 19q10 21 25.5 48t36 53t44.5 49t51 36.5t56 14.5t60 -16q28 -16 40 -48.5t13.5 -70t-5 -74t-16.5 -58.5q-14 -32 -28 -70.5t-26 -79
t-20.5 -81t-12.5 -77.5z" />
    <glyph glyph-name="l" unicode="l" horiz-adv-x="477" 
d="M455 1352q43 3 70 -17t41 -50t17.5 -63.5t0.5 -57.5q-14 -123 -49 -220.5t-80.5 -170.5t-96 -122.5t-95 -77t-77 -34t-41.5 6.5q-1 2 -8.5 9.5t-16 17t-14.5 19.5t-3.5 16t16 7t44.5 -8q27 -8 62 9.5t72.5 54t75 91t70.5 121.5t59 144.5t39 160.5q5 31 -4 35t-23 -6
t-29.5 -27.5t-23.5 -29.5q-21 -33 -51 -84.5t-63 -119.5t-65 -151t-57 -178.5t-41 -202.5t-15 -222q0 -21 2 -42.5t6.5 -38t12 -27t17.5 -10.5q17 0 40.5 21t49.5 55t53.5 78t53.5 90t49.5 90t41.5 79.5t29 58.5t13 25q7 11 14.5 14t13.5 -1.5t9 -16.5t0 -31
q-1 -4 -11.5 -30.5t-29.5 -66t-44.5 -89.5t-55.5 -101t-63.5 -99.5t-68 -86t-69.5 -60.5t-68 -23q-18 0 -45.5 9t-53 38t-43 83t-17.5 144q0 63 9 143t25.5 167t40 178t53.5 176t65.5 161t76.5 133t86 92t94 38z" />
    <glyph glyph-name="m" unicode="m" horiz-adv-x="1050" 
d="M171 764q48 -2 76 -39t26 -106q-2 -50 -16 -101.5t-33.5 -102t-40.5 -99.5t-35.5 -94.5t-19 -87t8.5 -75.5q4 -9 -4.5 -22t-24 -24t-37 -18.5t-44.5 -4.5t-44.5 16.5t-36 37t-20 55.5t5.5 71q16 61 36.5 116.5t39.5 106.5t34 96.5t21 86.5q5 32 1 57.5t-21 40.5
q-9 8 -9 17.5t3 17.5t7.5 13.5t5.5 7.5q2 1 10 7.5t23 12.5t36.5 10.5t51.5 3.5zM436 35q-24 -15 -55 -15.5t-58 13.5t-43 41.5t-9 68.5q7 49 18 92.5t24 85.5t26.5 85.5t27.5 92.5q12 45 11.5 64.5t-9.5 21t-24 -12t-33 -34.5q-41 -49 -102 -142q5 29 9 52q4 20 7 37t5 19
q11 21 27.5 48t37.5 53t45.5 49t52 36.5t57 14.5t59.5 -16q27 -16 38.5 -48.5t11.5 -70t-8 -74t-18 -58.5q-21 -45 -41.5 -99.5t-35.5 -109.5t-21.5 -106t0.5 -88zM744 130q-5 -27 4 -27.5t32 17.5q40 28 78 68.5t71.5 85.5t62 90.5t50 83.5t35 65t16.5 34q14 29 25.5 35.5
t18 -2t6 -29t-9.5 -46.5q-11 -31 -34 -76t-54.5 -96.5t-69.5 -104.5t-80 -99t-85.5 -81t-85.5 -50q-24 -9 -52.5 -1.5t-51 28t-36 51t-7.5 67.5q8 49 19 92.5t23.5 85.5t26.5 85.5t27 92.5q12 45 11.5 64.5t-9 21t-23.5 -12t-33 -34.5q-41 -49 -102 -142q5 29 9 52
q4 20 6.5 37t4.5 19q11 21 27.5 48t37.5 53t46 49t52.5 36.5t57 14.5t59.5 -16q27 -16 38 -48.5t11.5 -70t-7.5 -74t-19 -58.5q-15 -32 -30.5 -70.5t-28.5 -79t-23 -81t-14 -77.5z" />
    <glyph glyph-name="n" unicode="n" horiz-adv-x="739" 
d="M157 764q48 -2 78 -39t29 -106q0 -50 -12.5 -101.5t-30 -102t-36.5 -99.5t-32 -94.5t-16 -87t11 -75.5q4 -9 -4 -22t-24 -24t-37 -18.5t-44 -4.5q-22 3 -44 16.5t-38 37t-22 55.5t4 71q14 61 32.5 116.5l35.5 106.5t30.5 96.5t18.5 86.5q4 32 -1 57.5t-22 40.5
q-9 8 -9.5 17.5t2.5 17.5t7 13.5t5 7.5q2 1 10 7.5t22.5 12.5t36 10.5t50.5 3.5zM445 130q-5 -27 4.5 -27.5t32.5 17.5q39 28 76.5 70.5t71.5 91t63 98t51 91t36 70.5t17 36q13 29 24.5 35.5t18 -2t6.5 -29t-9 -46.5q-11 -31 -34 -78.5t-54.5 -102t-69.5 -111.5
t-79.5 -106.5t-84.5 -86.5t-85 -52q-24 -9 -52.5 -1.5t-52 28t-37.5 51t-9 67.5q6 49 15 92.5t20.5 85.5t24 85.5t24.5 92.5q10 45 9 64.5t-10 21t-23.5 -12t-31.5 -34.5q-40 -49 -98 -142q3 29 7 52q3 20 5.5 37t4.5 19q10 21 25.5 48t36 53t44.5 49t51 36.5t56.5 14.5
t60.5 -16q28 -16 40 -48.5t13.5 -70t-5 -74t-16.5 -58.5q-15 -32 -29 -70.5t-26 -79t-20.5 -81t-11.5 -77.5z" />
    <glyph glyph-name="o" unicode="o" horiz-adv-x="592" 
d="M247 712q49 1 81 -7t50 -19t24 -23t5 -20q-2 -6 -7 -7.5t-13.5 -2t-20 -2.5t-24.5 -11q-44 9 -79 -14t-61.5 -63.5t-45.5 -92t-31 -100t-17.5 -87.5t-4.5 -54q2 -64 20 -87t45 -16.5t58.5 37t60.5 72.5q23 33 38 75t24 80.5t13 68.5t6 41q1 12 8 13.5t15.5 -4.5t16 -19
t10.5 -30q2 -11 -4.5 -48t-22 -86.5t-39.5 -105t-57.5 -103t-76.5 -81t-95 -38.5q-22 -3 -53 5.5t-61 31t-55 62t-35 98.5q-9 52 -5 111.5t20 118.5t43.5 114t67 97.5t90 68t112.5 27.5zM387 791q15 15 35.5 20.5t37 -4.5t26 -39t3.5 -84q-1 -8 -8.5 -28t-17.5 -43t-19 -45
t-12 -33q-9 -29 -6 -48.5t15 -30.5t31 -13.5t40 2.5q22 6 47.5 28.5t48.5 47t40 44.5t22 23q14 8 27.5 4t21 -15.5t7.5 -27.5t-13 -31q-11 -11 -36.5 -37t-56.5 -53.5t-62 -49t-53 -23.5q-33 -3 -62.5 2.5t-53 24t-40.5 51.5t-25 85q-7 49 -4.5 91t12 76.5t24 61t31.5 44.5z
" />
    <glyph glyph-name="p" unicode="p" horiz-adv-x="700" 
d="M62 886q13 0 41 -14.5t55 -42t46.5 -68.5t15.5 -94q-2 -36 -17 -94.5t-37.5 -133.5t-48.5 -163t-50 -183t-43 -195t-27 -198t-2.5 -191t31.5 -176q12 -40 -0.5 -61t-46.5 -16q-24 3 -42 26t-31.5 58t-22.5 76.5t-15 80t-8.5 69.5t-2.5 45q1 133 22 268.5t50 263.5
t59.5 243t52 207.5t27 157t-16.5 90.5q-13 15 -15 24t1.5 13.5t11 6t13.5 1.5zM374 684q32 0 57.5 -14.5t44.5 -39t32.5 -56t22 -65t12.5 -66t5 -59.5q0 -13 -1.5 -47t-9.5 -77.5t-24.5 -91t-46.5 -88t-76.5 -67.5t-112.5 -30q-23 -1 -47.5 4.5t-45.5 22t-36.5 47
t-18.5 79.5q-4 57 13.5 104.5t44.5 83t58 56.5t54 26q40 9 80 7.5t79.5 -3.5t80 2t82.5 24t86.5 62t91.5 116q7 12 17 13.5t17 -6t8 -23.5t-8 -39q-30 -74 -73.5 -119t-93 -70.5t-100.5 -35t-95 -10t-77.5 2.5t-48.5 3q-45 -2 -75.5 -25t-49 -53.5t-25 -62.5t-3.5 -53
q5 -32 13 -52t18.5 -30.5t24.5 -13.5t32 -2q17 2 38.5 25.5t39 67t27 107t3.5 146.5q-4 45 -15 80.5t-26 60.5t-31.5 38.5t-29.5 12.5q-16 -2 -31.5 -13t-29.5 -29t-26.5 -40.5t-23.5 -45.5q-26 -55 -48 -122q-5 15 -7 33q-2 15 -1.5 33t6.5 38q3 12 11.5 36t22.5 52
t34 57.5t46.5 53.5t60 39.5t74.5 15.5z" />
    <glyph glyph-name="q" unicode="q" horiz-adv-x="612" 
d="M363 773q13 0 41 -14.5t55 -42.5t46.5 -69t16.5 -94q-2 -36 -17.5 -91t-38 -124t-48.5 -149.5t-50.5 -168.5t-44 -180.5t-27.5 -185t-2.5 -182t31.5 -172.5q12 -42 -0.5 -62.5t-47.5 -15.5q-24 3 -42 26t-31.5 58t-22.5 76t-14.5 80t-8 70t-2.5 46q1 132 21.5 261.5
t50 249t60.5 224.5t52.5 188.5t27.5 141.5t-16 84q-13 15 -15 24.5t1.5 14t11 6t13.5 1.5zM-31 232q-3 34 1 83.5t17 103.5t36 107.5t58 98t82.5 74t110.5 35.5q20 2 39 -9t32.5 -34.5t20 -60.5t0.5 -88q-1 -6 -6 -20t-11 -27t-10 -19.5t-2 4.5q9 63 -3 103.5t-33 42.5
q-24 4 -51 -30t-51 -90.5t-41.5 -128.5t-21.5 -145q-1 -8 1 -28t7 -40t13.5 -35.5t21.5 -15.5t28.5 19t29.5 42q16 27 32 62l41 -56q-16 -47 -41.5 -77.5t-55 -49t-59.5 -25.5t-55 -6q-35 3 -59 27t-39 57t-22.5 68t-9.5 58zM328 -756q-7 -14 -16 -17t-17.5 2.5t-14 18.5
t-4.5 31q-1 127 16.5 233.5t47.5 204t70 190.5t82.5 192.5t85.5 210t80 243.5q6 18 16 25.5t19.5 4.5t15 -15.5t2.5 -32.5q-30 -118 -70.5 -224t-84 -206.5t-85.5 -199.5t-75 -203t-52 -217t-16 -241z" />
    <glyph glyph-name="s" unicode="s" horiz-adv-x="408" 
d="M71 593q-2 54 10 92.5t32.5 65.5t46 44t49 26.5t42.5 13.5t26 6q16 4 28.5 -4.5t18 -21.5t2.5 -27t-17 -20q-5 -2 -14.5 -15.5t-19.5 -34t-17.5 -46t-9.5 -52.5q-4 -50 1 -117t8.5 -139.5t2 -145t-17.5 -133t-51 -103t-98 -55.5q-37 -8 -65 1.5t-45.5 30.5t-24.5 51
t-2 61.5t21.5 62.5t46.5 54q33 25 76.5 51t90.5 54t94 59t88 67t72 77t46 90q7 24 18.5 30t20.5 -1t12.5 -25t-4.5 -43q-14 -44 -48 -87.5t-78.5 -85t-95.5 -80.5t-100 -73.5t-91.5 -63.5t-69.5 -50q-20 -16 -32 -32t-14 -27.5t7 -16t30 2.5q23 7 33.5 47.5t13.5 98.5t0 125
t-7.5 126.5t-9.5 104t-5 57.5z" />
    <glyph glyph-name="u" unicode="u" horiz-adv-x="700" 
d="M438 712q2 16 12 18t24.5 -6.5t30.5 -25.5t30 -38.5t22.5 -46.5t8.5 -49q0 -8 -6.5 -32.5t-16 -59t-21.5 -75.5t-23 -82.5t-20.5 -79t-14.5 -65.5q-5 -26 -5.5 -40.5t3 -19t12 -0.5t21.5 15q35 28 68.5 69t62.5 86t53.5 91t43 84t30 64.5t15.5 33.5q13 28 24.5 34.5
t17.5 -2t6 -28.5t-10 -45q-13 -35 -36 -86t-54 -107.5t-68.5 -112t-79.5 -100t-86 -72.5t-88 -28q-11 0 -26 5t-29.5 19t-24.5 38t-11 62q0 6 5.5 32t14.5 64t21 86l24.5 98t24.5 99t21.5 90t16 71t7.5 42zM86 706q2 23 22.5 16.5t44 -31t42.5 -60.5t18 -72q0 -8 -3.5 -34
t-9.5 -62.5t-13 -80.5t-15 -87t-15 -82.5t-12 -67.5q-10 -51 -2.5 -58t35.5 15q35 28 65.5 70t55.5 89t45 95t34.5 88t23.5 68t12 35q14 29 25.5 35.5t18 -2t6 -29t-9.5 -46.5q-13 -35 -33.5 -87.5t-48 -110.5t-60.5 -115.5t-71 -104t-80 -75.5t-86 -29q-11 0 -26 5
t-29 18.5t-24 38t-10 62.5q0 8 7 51t17.5 104.5t23 132.5t24 135t19 112t9.5 64z" />
    <glyph glyph-name="v" unicode="v" horiz-adv-x="505" 
d="M44 706q-1 21 11 21.5t30.5 -12.5t40 -35.5t38.5 -46t27 -44t5 -30.5t-15 -50.5t-21 -95.5t-19.5 -115.5t-10.5 -111t5.5 -83t28.5 -30.5q42 4 76 41.5t59 96.5t43 132t28.5 148.5t14 146.5t1 125.5t-11 85.5t-21.5 27q-13 -5 -21 -18t-11.5 -30.5t-4 -36.5t0.5 -37
t3 -32.5t3 -21.5q16 -105 48.5 -152.5t70 -53t74 23t61.5 75.5q4 8 14.5 6t20.5 -9.5t16.5 -19t3.5 -23.5q-10 -35 -36.5 -65.5t-61 -47.5t-74.5 -16.5t-76.5 27t-67 82.5t-46.5 150q-2 15 -4 40.5t-2 56.5t3.5 64t11.5 63t22.5 54t36.5 37q15 9 34 -3t35.5 -40t29 -70
t15.5 -94q4 -72 -1 -160t-20 -177t-39.5 -172.5t-59 -147.5t-79.5 -101t-100 -33q-32 2 -63 18.5t-55 46t-38.5 70.5t-13.5 92q0 19 5 56.5t12.5 84.5t15.5 98.5t14.5 99t10.5 86t3 60.5z" />
    <glyph glyph-name="w" unicode="w" horiz-adv-x="865" 
d="M433 458q-15 -91 -39.5 -176.5t-59.5 -150.5t-80 -103t-101 -34q-32 2 -63 18.5t-55 46t-38.5 70.5t-13.5 92q0 19 5 56.5t12.5 84.5t15.5 98.5t14.5 99t10.5 86t3 60.5q-1 21 11 21.5t30.5 -12.5t40 -35.5t38.5 -46t27 -44t5 -30.5t-15 -50.5t-21 -95.5t-19.5 -115.5
t-10.5 -111t5.5 -83t28.5 -30.5q43 4 77 43t60 99t43.5 135t27.5 152zM365 553q-1 21 11 21.5t30.5 -12.5t39.5 -35.5t38.5 -46t27 -44t4.5 -30.5t-13 -39t-16 -67t-13.5 -78.5t-5 -74.5t9.5 -55t31 -19q42 4 75.5 41.5t59 96.5t43 132t28 148.5t14 146.5t1 125.5t-11 85.5
t-21.5 27q-13 -5 -21 -18t-11.5 -30.5t-4 -36.5t0.5 -37t3 -32.5t3 -21.5q16 -105 48.5 -152.5t70 -53t74 23t61.5 75.5q4 8 14.5 6t20.5 -9.5t16.5 -19t3.5 -23.5q-10 -35 -36 -65.5t-61 -47.5t-74.5 -16.5t-76.5 27t-67 82.5t-46 150q-2 15 -4 40.5t-2 56.5t3 64t11.5 63
t22.5 54t37 37q15 9 33.5 -3t35.5 -40t29.5 -70t15.5 -94q4 -72 -1.5 -160t-20 -177t-39 -172.5t-59.5 -147.5t-80 -101t-100 -33q-32 2 -63 18.5t-55.5 46t-39 70.5t-12.5 92q0 29 7 72.5t14.5 90.5t13 92t3.5 77z" />
    <glyph glyph-name="t" unicode="t" horiz-adv-x="447" 
d="M208 1322q48 1 74.5 -22t38.5 -54.5t13.5 -63t-1.5 -47.5q-15 -96 -32.5 -171.5t-36 -142t-36 -129.5t-33 -135t-27.5 -157.5t-19 -197.5q-2 -21 0 -42t7 -38t12.5 -27.5t17.5 -10.5q18 0 41 21t49 55t53.5 78t54 90t50 90t41.5 79.5t29 58.5t13 25q6 11 14 14t14 -1.5
t9 -16.5t0 -31q-1 -4 -12 -30.5t-29.5 -66t-44 -89.5t-55.5 -101t-63.5 -99.5t-68.5 -86t-69.5 -60.5t-67.5 -23q-18 0 -47.5 10t-56 39t-43.5 83t-11 142q7 121 25.5 233.5t46.5 235.5t65.5 266t84.5 323zM101 1138q1 -10 29.5 -9.5t73.5 6.5t101 13t112 9.5t106.5 -3
t84.5 -24.5q9 -5 11 -18.5t0.5 -27t-6.5 -23t-10 -4.5q-30 22 -77 28t-101.5 3t-111 -11t-104 -12t-82 -0.5t-44.5 22.5q-5 10 -3 21t6.5 19.5t9.5 11.5t5 -1z" />
    <glyph glyph-name="y" unicode="y" horiz-adv-x="680" 
d="M86 706q2 23 22.5 16.5t44 -31t42.5 -60.5t18 -72q0 -8 -3.5 -34t-9.5 -62.5t-13 -80.5t-15 -87t-15 -82.5t-12 -67.5q-10 -51 -2.5 -58t35.5 15q35 28 65.5 70t55.5 89t45 95t34.5 88t23.5 68t12 35q14 29 25.5 35.5t18 -2t6 -29t-9.5 -46.5q-13 -35 -33.5 -87.5
t-48 -110.5t-60.5 -115.5t-71 -104t-80 -75.5t-86 -29q-11 0 -26 5t-29 18.5t-24 38t-10 62.5q0 8 7 51t17.5 104.5t23 132.5t24 135t19 112t9.5 64zM760 -163q52 -1 93 -24.5t69.5 -61t43 -84.5t14.5 -94q0 -91 -22.5 -149.5t-55.5 -92.5t-69 -47t-63 -14q-52 -1 -118 20.5
t-140 54t-152.5 71t-155 72.5t-148 57t-131.5 25q-50 2 -87.5 -16t-62.5 -51t-37.5 -79.5t-12.5 -100.5q0 -21 9 -48.5t29.5 -50.5t52 -37t75.5 -8q33 5 67.5 43t69.5 100.5t70 145.5t68.5 178.5t65 199.5t59.5 208t52.5 203.5t44 187.5t33 159t20.5 118q2 17 13.5 10
t27 -28.5t32.5 -52t31 -60.5t22 -54.5t6 -32.5q-48 -189 -93 -363.5t-92 -326.5t-98.5 -277.5t-111.5 -217t-131 -145t-157 -60.5q-83 -8 -139.5 15.5t-90.5 63t-48.5 88t-14.5 90.5q-1 67 22.5 122t65 92t99 54t125.5 9q72 -8 152.5 -37t162.5 -67t161.5 -79t149 -73
t126.5 -49t93 -7q58 17 85 84.5t25 170.5q0 81 -29.5 139t-74.5 107zM454 109l13 11q35 28 68 68.5t62 85.5t53.5 90.5t43 83.5t30 65t14.5 34q14 29 25.5 35.5t18 -2t6.5 -29t-10 -46.5q-11 -30 -29.5 -72.5t-43.5 -90t-55.5 -97t-64.5 -93.5t-71 -79t-75 -54z" />
    <glyph glyph-name="x" unicode="x" horiz-adv-x="700" 
d="M126 802q29 -11 54.5 -43.5t48.5 -79t44 -102t41 -113t39 -112t38 -98.5t38.5 -73t40.5 -35q15 -4 35 12t43 45.5t47.5 69t48 82t45 85t39 78t29 61.5t14.5 35q5 13 16 13.5t20.5 -7t14 -21.5t-2.5 -30q-16 -36 -41.5 -98.5t-59 -133t-74.5 -139.5t-88 -119t-100 -72
t-111 3q-34 14 -59.5 49.5t-46.5 84.5t-39 107t-36 117.5t-37.5 116t-44.5 101.5t-56.5 75.5t-73.5 38.5q-12 3 -22.5 18.5t-2.5 35.5q4 9 24.5 21.5t49.5 22t62 12t63 -7.5zM443 914q25 4 45.5 -11.5t35 -39.5t22.5 -49.5t9 -40.5q4 -87 -17.5 -158t-59 -130t-86.5 -106.5
t-101 -86.5t-101.5 -71.5t-88 -60t-61 -52.5t-20.5 -50q3 -30 13 -44t22 -26.5t23 -29.5t16 -53q9 -69 -9.5 -107t-56.5 -45q-21 -5 -43.5 1t-42 23t-33 46t-17.5 70q-7 79 12 142.5t55 115t85 93t101 77.5t103 68.5t92.5 65.5t68.5 69.5t30 79.5q0 6 -7 26.5t-16 47t-18 54
t-12 47.5q-3 19 -4 41t4.5 41.5t18.5 33.5t38 19z" />
    <glyph glyph-name="z" unicode="z" horiz-adv-x="661" 
d="M30 405q-55 64 -71.5 112t-6 82.5t41 56t69.5 33.5t79.5 15.5t70.5 1.5q24 -2 57 -4.5t69.5 -5.5t72.5 -5.5t66 -4t50.5 -1t26.5 3.5q8 4 15 1.5t10.5 -9.5t4 -17.5t-4.5 -20.5q-3 -5 -15.5 -38.5t-33.5 -84t-48 -113.5t-58.5 -127.5t-66 -126t-69.5 -109.5t-70.5 -77
t-67.5 -29q-31 0 -59.5 5.5t-50 21t-35.5 43t-17 71.5q-5 65 14 95.5t52 36.5q25 5 57.5 -9t68 -36.5t71 -50t67 -51t56.5 -37.5t39 -10q38 10 69.5 42t64.5 95t72.5 162t93.5 243q6 17 15.5 21t17.5 -2t11.5 -20t-2.5 -32q-54 -163 -94.5 -277t-76.5 -186t-73.5 -106
t-85.5 -36q-26 -1 -58 16.5t-66.5 43t-69.5 55t-67 53.5t-59 37t-45 6q-14 -5 -22.5 -21t-10.5 -49q0 -10 2.5 -20t9 -16.5t16.5 -8t24 4.5q7 3 23.5 30t39 69t49 94.5t52.5 106.5q62 128 135 288q-34 7 -63 11q-25 4 -48.5 6t-31.5 -1q-6 -2 -24.5 -4t-43 -9.5t-51 -21
t-47.5 -37.5t-33 -60.5t-7 -88.5z" />
    <glyph glyph-name="g.001" horiz-adv-x="612" 
d="M-162 -886q-20 -3 -29 8.5t-9 25t8.5 24.5t24.5 8q41 10 84.5 69t87 151t85.5 210t81 245.5t73 257t61 245.5t46 211t27 153q2 17 15 17.5t31 -10t38 -28.5t36.5 -37t26.5 -35.5t8 -24.5q-47 -187 -93.5 -367.5t-95.5 -342t-102.5 -299.5t-115 -241t-133 -166t-155.5 -74
zM-31 232q-3 34 1.5 83t19 102t39 106.5t60.5 96.5t84.5 72.5t111.5 34.5q20 2 39 -8.5t32.5 -34.5t19.5 -61t0 -88q0 -5 -5.5 -19.5t-11 -27t-10 -19t-2.5 4.5q10 64 -2.5 104t-33.5 42q-24 3 -52.5 -29.5t-54.5 -88t-45 -126.5t-23 -144q-1 -8 1 -28t7 -40t13.5 -35.5
t21.5 -15.5t30.5 20t33.5 45q18 29 37 66l30 -64q-16 -47 -41.5 -77.5t-55 -49t-59.5 -25.5t-55 -6q-35 3 -59 27t-39 57t-22.5 68t-9.5 58zM389 109l13 11q35 28 68.5 68.5t62.5 85.5t53.5 90.5t43 83.5t30 65t14.5 34q13 29 24.5 35.5t18 -2t6.5 -29t-9 -46.5
q-11 -30 -30 -72.5t-44 -90t-55.5 -97t-64.5 -93.5t-70.5 -79t-74.5 -54z" />
    <glyph glyph-name="j.001" horiz-adv-x="340" 
d="M147 850q3 25 11 47t18.5 38.5t23 26t24.5 9.5t21 -9.5t14.5 -26t6.5 -38.5t-2 -47q-4 -25 -12.5 -47t-19.5 -38.5t-23.5 -26.5t-24.5 -10t-21 10t-14 26.5t-6 38.5t4 47zM102 109l13 11q35 28 68 68.5t62 85.5t53.5 90.5t43 83.5t30 65t14.5 34q14 29 25.5 35.5t18 -2
t6 -29t-9.5 -46.5q-11 -30 -29.5 -72.5t-44 -90t-55.5 -97t-64.5 -93.5t-71 -79t-74.5 -54zM232 564q-39 -172 -81.5 -344t-91 -330.5t-103 -296t-116.5 -241.5t-133.5 -167t-152.5 -71q-20 -2 -29 9.5t-9 25t8.5 24t24.5 7.5q39 30 79 87t79 133t76 168t72 190.5
t65.5 201.5t56.5 201t46.5 188t33.5 164t18 128.5t1 80.5q-3 18 8 15.5t29.5 -17t40 -37.5t39.5 -46.5t29.5 -44t9.5 -28.5z" />
    <glyph glyph-name="y.001" horiz-adv-x="680" 
d="M86 706q2 23 22.5 16.5t44 -31t42.5 -60.5t18 -72q0 -8 -3.5 -34t-9.5 -62.5t-13 -80.5t-15 -87t-15 -82.5t-12 -67.5q-10 -51 -2.5 -58t35.5 15q35 28 65.5 70t55.5 89t45 95t34.5 88t23.5 68t12 35q14 29 25.5 35.5t18 -2t6 -29t-9.5 -46.5q-13 -35 -33.5 -87.5
t-48 -110.5t-60.5 -115.5t-71 -104t-80 -75.5t-86 -29q-11 0 -26 5t-29 18.5t-24 38t-10 62.5q0 8 7 51t17.5 104.5t23 132.5t24 135t19 112t9.5 64zM454 109l13 11q35 28 68 68.5t62 85.5t53.5 90.5t43 83.5t30 65t14.5 34q14 29 25.5 35.5t18 -2t6.5 -29t-10 -46.5
q-11 -30 -29.5 -72.5t-43.5 -90t-55.5 -97t-64.5 -93.5t-71 -79t-75 -54zM573 504q-46 -183 -89 -353.5t-88.5 -321t-95.5 -276.5t-109.5 -219.5t-130.5 -150.5t-159 -69q-20 -3 -29 8.5t-9 25t8.5 24.5t24.5 8q46 24 92.5 90.5t91 161.5t86 211t79 240.5t69.5 249
t57.5 236.5t43.5 203.5t26 149.5q2 17 13.5 10t27 -28.5t32.5 -52t31 -60.5t22 -54.5t6 -32.5z" />
    <glyph glyph-name="h.001" horiz-adv-x="661" 
d="M366 130q-4 -27 5.5 -27.5t32.5 17.5q39 28 76 68.5t69.5 85.5t60 90.5t48.5 83.5t34 65t16 34q14 29 25.5 35.5t18 -2t6 -29t-9.5 -46.5q-11 -31 -33 -76t-52.5 -96.5t-67 -104.5t-76.5 -99t-82.5 -81t-84.5 -50q-24 -9 -53 -1.5t-52.5 28t-37.5 51t-9 67.5
q6 49 15.5 92.5t21 85.5t23.5 85.5t24 92.5q10 45 9 64.5t-10 21t-23.5 -12t-31.5 -34.5q-40 -49 -97 -142q3 29 7 52q3 20 5.5 37t4.5 19q10 21 25.5 48t36 53t44.5 49t51 36.5t56 14.5t60 -16q28 -16 40 -48.5t13.5 -70t-5 -74t-16.5 -58.5q-14 -32 -28 -70.5t-26 -79
t-20.5 -81t-12.5 -77.5zM641 1197q-9 -45 -5.5 -74.5t14 -48t25.5 -27t29 -9.5q15 -1 32 12.5t31.5 38.5t23 59t6.5 75q-1 21 -11 53t-31 61.5t-55 50t-83 18.5q-51 -2 -97.5 -36t-88.5 -92t-78.5 -135t-68 -165.5t-57 -184t-45.5 -189.5q-8 -41 -21 -100t-25 -130
t-21 -151.5t-10 -163.5q0 -16 0.5 -26t-0.5 -16.5t-5 -10.5t-13 -8q-10 -5 -32 1t-44 24.5t-39 51t-16 81.5q2 87 16.5 189.5t39.5 212t59.5 220t77.5 212.5t93 190.5t105.5 154.5t115.5 103.5t123 37.5q70 0 122 -23t86.5 -59.5t53 -81t21.5 -87.5q6 -77 -13.5 -125
t-48 -75t-57.5 -36.5t-42 -9.5q-38 0 -66.5 11t-40.5 36.5t-3.5 67t43.5 103.5z" />
    <glyph glyph-name="b.001" horiz-adv-x="720" 
d="M364 684q32 0 57.5 -14.5t44.5 -39t32.5 -56t22 -65t12.5 -66t5 -59.5q0 -13 -1 -49t-8.5 -83t-24 -98t-46.5 -94.5t-75.5 -72.5t-111.5 -31q-23 -2 -48.5 7.5t-47 31.5t-37.5 57t-19 84q-4 57 13.5 104.5t44.5 83t58 56.5t54 26q40 9 80 7.5t79.5 -3.5t80 2t82.5 24
t86.5 62t91.5 116q7 12 17 13.5t17 -6t8 -23.5t-8 -39q-30 -74 -73.5 -119t-93 -70.5t-100 -35t-95 -10t-78 2.5t-48.5 3q-45 -2 -75.5 -25t-49 -53.5t-25 -62.5t-3.5 -53q6 -32 13.5 -52t18.5 -30.5t24.5 -13.5t31.5 -2q17 2 38.5 25.5t39.5 67t27.5 107t2.5 146.5
q-4 45 -15 80.5t-26 60.5t-31.5 38.5t-29.5 12.5q-16 -2 -31.5 -13t-29.5 -29t-26.5 -40.5t-23.5 -45.5q-26 -55 -48 -122q-5 15 -7 33q-2 15 -1.5 33t6.5 38q3 12 11.5 36t22.5 52t34 57.5t46.5 53.5t60 39.5t74.5 15.5zM635 1128q1 -24 8.5 -41t17 -27.5t21 -15.5t22.5 -6
q15 -1 32 12.5t31.5 38.5t23 59t6.5 75q-1 21 -11 53t-31 61.5t-55 50t-83 18.5q-51 -2 -97.5 -36t-88.5 -92t-78.5 -135t-68 -165.5t-57 -184t-45.5 -189.5q-8 -41 -21 -100t-25 -130t-21 -151.5t-10 -163.5q0 -16 0.5 -26t-0.5 -16.5t-5 -10.5t-13 -8q-10 -5 -32 1
t-44 24.5t-39 51t-16 81.5q2 87 16.5 189.5t39.5 212t59.5 220t77.5 212.5t93 190.5t105.5 154.5t115.5 103.5t123 37.5q70 0 122 -23t86.5 -59.5t53 -81t21.5 -87.5q6 -77 -13.5 -125t-48 -75t-57.5 -36.5t-42 -9.5q-19 0 -35 4t-26.5 19.5t-14 45t2.5 80.5z" />
    <glyph glyph-name="k" unicode="k" 
d="M586 1476q70 0 122 -23t86.5 -59.5t53 -81t21.5 -87.5q6 -77 -13.5 -125t-48 -75t-57.5 -36.5t-42 -9.5q-54 0 -93 18.5t-64.5 48t-38.5 66t-16 71.5q-2 36 5 67.5t22 54t35.5 34t45.5 6.5q20 -5 30 -22t13 -38.5t1.5 -43t-4.5 -33.5q-12 -48 -9 -80t13.5 -51.5t26 -28.5
t29.5 -10q15 -1 32 12.5t31.5 38.5t23 59t6.5 75q-1 21 -11 53t-31 61.5t-55 50t-83 18.5q-64 -3 -121 -55t-106 -137t-90 -195t-73 -228.5t-55 -236.5t-35.5 -220t-15 -179t6.5 -113q7 -24 -0.5 -32.5t-19.5 -11.5q-6 -2 -27 19t-44.5 51t-42.5 61.5t-21 50.5q-2 22 2.5 72
t16 119t29.5 153.5t42.5 175t55.5 183.5t68.5 179t81 161.5t93.5 131.5t106 88.5t118 32.5zM485 865q9 3 19.5 -10.5t14.5 -45.5q1 -15 1 -47t-3.5 -69t-10.5 -73.5t-18 -60.5q-29 -61 -68.5 -103.5t-82 -70t-84.5 -42.5t-75.5 -22t-54.5 -9l-21 -2q0 -1 -1.5 13.5t-0.5 33
t4 35.5t12 21q54 24 100 67t85 92.5t70 100.5t54 93.5t38 69.5t22 29zM694 -95q10 8 19 4.5t14.5 -13.5t6.5 -25t-6 -29q-11 -26 -32 -46.5t-48.5 -33.5t-60 -17.5t-67.5 1.5q-50 7 -88 35t-67.5 68.5t-52 89.5t-41.5 97.5t-36 92.5t-35 75t-39.5 45.5t-48.5 3.5
q-6 -3 -12.5 12.5t-11.5 35t-8 36t-4 17.5q-1 2 12.5 4t34 3.5t44.5 2.5t45 1q30 0 64.5 -36.5t71 -91t74 -118.5t74 -118.5t71 -91t64.5 -36.5q23 0 38 9t25 23z" />
    <glyph glyph-name="k.001" 
d="M712 1039q15 3 31 18t28.5 39t20 56.5t5.5 70.5q-1 21 -11 53t-31 61.5t-55 50t-83 18.5q-64 -3 -121 -55t-106 -137t-90 -195t-73 -228.5t-55 -236.5t-35.5 -220t-15 -179t6.5 -113q7 -24 -0.5 -32.5t-19.5 -11.5q-6 -2 -27 19t-44.5 51t-42.5 61.5t-21 50.5
q-2 22 2.5 72t16 119t29.5 153.5t42.5 175t55.5 183.5t68.5 179t81 161.5t93.5 131.5t106 88.5t118 32.5q70 0 122 -23t86.5 -59.5t53 -81t21.5 -87.5q6 -74 -12.5 -120.5t-45.5 -68t-55.5 -20t-43.5 22.5zM485 865q9 3 19.5 -10.5t14.5 -45.5q1 -15 1 -47t-3.5 -69
t-10.5 -73.5t-18 -60.5q-29 -61 -68.5 -103.5t-82 -70t-84.5 -42.5t-75.5 -22t-54.5 -9l-21 -2q0 -1 -1.5 13.5t-0.5 33t4 35.5t12 21q54 24 100 67t85 92.5t70 100.5t54 93.5t38 69.5t22 29zM-207 -119q-11 -4 -26 -22.5t-26.5 -48.5t-17.5 -70t1 -87q10 -63 33 -99.5
t49.5 -54t51.5 -20t40 2.5q58 19 116.5 58.5t119 87.5t124.5 99.5t132.5 94t143.5 71t159 30.5q52 2 82.5 -18.5t47 -49t21 -58.5t3.5 -48q-2 -36 -20.5 -65.5t-48.5 -49.5t-69 -28t-82 -2q-50 8 -92.5 42t-80 85t-69.5 112t-61.5 123t-56 118.5t-52.5 97.5t-52 61.5
t-53 9.5q-6 -3 -12.5 12.5t-11.5 35t-8 36t-4 17.5q-1 2 12.5 4t34 3.5t44.5 2.5t45 1q23 0 52.5 -27t64 -71.5t72 -101.5t76 -116.5t76 -116.5t71.5 -101.5t63.5 -71.5t52.5 -27q28 0 44.5 13t24.5 29q3 8 0 27t-17.5 36t-42 26t-72.5 -2q-71 -16 -144 -54.5t-145 -86.5
t-141 -100.5t-131.5 -96t-117.5 -73.5t-99 -33q-66 -6 -114.5 17.5t-81 62t-50.5 84.5t-22 85q-8 65 8 114.5t43 78.5t58.5 36t54.5 -14z" />
    <glyph glyph-name="A" unicode="A" horiz-adv-x="1370" 
d="M795 1120q-83 27 -128 68t-63.5 92t-15 109t17.5 118q18 79 64.5 142t118 106t165.5 64.5t208 17.5q71 -3 125.5 -18t96 -37.5t70 -50.5t48.5 -57q46 -68 56 -152l-107 -128q-3 28 -7 57q-3 25 -7.5 54.5t-9.5 58.5q-6 27 -24 64t-50 70.5t-79 57.5t-111 27
q-71 3 -130.5 -21.5t-107 -67t-82.5 -97.5t-57 -113t-31.5 -114t-4.5 -100q10 -108 45 -150zM511 505q8 13 14 41.5t10 77.5q4 55 -12.5 94.5t-44 64.5t-61.5 36t-65 8q-77 -7 -129.5 -57.5t-81.5 -127.5t-35.5 -173t8.5 -193q9 -59 30 -110t52 -88.5t70 -58.5t83 -19
q61 2 127 53t134.5 136t139 197t141 237.5t141 257.5t139 255.5t134.5 232t127 187.5q3 4 8 -7t10 -26q6 -18 13 -42q-97 -137 -179.5 -279t-155 -281t-137 -270.5t-125.5 -248t-120.5 -214t-122 -168t-130 -110.5t-144.5 -41q-75 -1 -138.5 30t-112 87.5t-80.5 135
t-44 172.5q-16 124 8 230t76 187.5t127.5 134t162.5 68.5q56 11 111.5 -4.5t99 -47.5t70 -77t26 -94t-34 -97.5t-109.5 -88.5zM1137 624q5 -54 5 -93q0 -17 -1 -31.5t-3.5 -24.5t-7.5 -12.5t-12 5.5q-33 34 -64 51t-61 20.5t-59.5 -3.5t-59.5 -22q-6 5 -7 15q-1 8 2.5 22.5
t16.5 37.5q10 19 26.5 30.5t36.5 17.5t41.5 7t42.5 0q49 -4 104 -20zM1389 1433q1 0 11 12.5t24 30.5t31.5 38.5t34 35.5t30.5 22t22 -1q12 -13 18 -30.5t8.5 -36.5t1 -39t-4.5 -38q-1 -9 -19.5 -71.5t-47 -161.5t-63 -225.5t-68 -263.5t-62 -275.5t-45 -261.5t-16.5 -221
t23 -155q9 -23 1.5 -37.5t-24.5 -14.5q-6 0 -22 11t-37 32.5t-44.5 55t-44 78t-35 101t-17.5 124.5q-3 51 10 134t36.5 183t54.5 211.5t63.5 219.5t64.5 206.5t57.5 173t41.5 119t17 44.5z" />
    <glyph glyph-name="D" unicode="D" horiz-adv-x="1306" 
d="M227 1137q-93 14 -141.5 57.5t-62.5 102.5t-1 126.5t42.5 130t68.5 112.5t76 74q51 40 120.5 66t163.5 36q109 10 205 -11.5t177.5 -67.5t148 -113t118 -148t86.5 -173.5t53 -188.5q30 -160 25.5 -315.5t-38 -295.5t-93.5 -259t-141.5 -207t-182.5 -140t-215 -57
q-64 -3 -115.5 20.5t-95 60.5t-81 81.5t-73.5 83.5t-72.5 66.5t-78.5 30.5q-15 1 -22.5 -15t-6.5 -40t10.5 -52t29.5 -50.5t49.5 -34.5t70.5 -5q22 3 44.5 41t45.5 101t47 146t48 177.5t49 195.5t50 199t50.5 189t51 165t51 127t51.5 75q32 28 69.5 38.5t69.5 12.5
q38 2 76 -4q6 0 11.5 -5t9 -12t3.5 -15.5t-6 -15.5q-61 -73 -106.5 -179.5t-82.5 -230.5t-69 -258t-65 -263t-71 -244t-87.5 -201.5t-113 -136.5t-148.5 -48q-34 1 -67 19.5t-62 48.5t-52.5 68t-38.5 78t-20 78t2.5 68.5t29 49t60.5 19.5q50 1 94 -23.5t84.5 -62.5t80.5 -83
t82 -83t89 -63t103 -24q85 1 158.5 51.5t133 137t103 202.5t68.5 249t30 276.5t-12 285.5q-6 49 -18 113.5t-36 132.5t-64 133.5t-102 117t-149.5 83t-206.5 31.5q-93 0 -155.5 -28t-100.5 -72q-30 -36 -50.5 -79t-32 -91t-15 -98t1.5 -99q6 -62 23 -102.5t37 -62.5z" />
    <glyph glyph-name="B" unicode="B" horiz-adv-x="1239" 
d="M346 1010q-15 -8 -31.5 -12.5t-33.5 -5.5q-38 -2 -81 11.5t-81.5 47.5t-67 90t-36.5 139q-9 85 8 158t51.5 133.5t83 107.5t104.5 81.5t115.5 54.5t115.5 27q85 10 176 0t177.5 -40.5t165 -80.5t139.5 -120t99.5 -159t46.5 -198q7 -96 -10.5 -177t-51 -146t-78.5 -113
t-94 -78.5t-97 -42t-87.5 -3.5t-66 36.5t-31.5 78.5q-3 27 12 46.5t40 25.5t58 -3t66 -38q31 -26 69.5 -50t74 -61.5t62 -95t32.5 -150.5q9 -111 -9.5 -203t-57 -164.5t-94.5 -125.5t-120.5 -86t-134.5 -46t-137 -6q-57 6 -106.5 34.5t-93.5 68.5t-84 85t-79 83.5t-78 65.5
t-81 30q-15 1 -22.5 -15t-6.5 -40t10.5 -52t29.5 -50.5t49.5 -34.5t70.5 -5q22 3 44.5 41t45.5 101t47 146t48 177.5t49 195.5t50 199t50.5 189t51 165t51 127t51.5 75q32 28 69.5 38.5t69.5 12.5q38 2 76 -4q6 0 11.5 -5t9 -12t3.5 -15.5t-6 -15.5q-61 -73 -106.5 -179.5
t-82.5 -230.5t-69 -258t-65 -263t-71 -244t-87.5 -201.5t-113 -136.5t-148.5 -48q-34 1 -67 19.5t-62 48.5t-52.5 68t-38.5 78t-20 78t2.5 68.5t29 49t60.5 19.5q50 2 94 -23t84.5 -62.5t80.5 -82t82 -82.5t89 -63.5t103 -25.5q81 0 155 36t131 97.5t94 143.5t43 175
t-22 192t-100 194q73 40 119.5 105.5t67.5 144.5t17 166t-31 170.5t-77 158t-122 128.5t-164.5 82.5t-205.5 19.5q-79 -7 -150 -40.5t-122.5 -93.5t-77 -147.5t-14.5 -201.5q2 -19 11.5 -57.5t31 -80.5t57.5 -80.5t91 -57.5z" />
    <glyph glyph-name="C" unicode="C" horiz-adv-x="1245" 
d="M63 951q-92 31 -135 85t-47.5 117t22.5 128.5t74 119.5t107.5 89t122.5 39q56 3 110 -16t106.5 -53.5t104.5 -79.5t105 -92.5t107.5 -94t112 -84t119 -61.5t128.5 -27q45 -2 81.5 18t64 54.5t45 79.5t24.5 93.5t3 96t-21 86.5t-46.5 65.5t-72.5 32.5q-31 4 -75 -14.5
t-95 -58.5t-105.5 -101.5t-106 -143t-96.5 -182t-77 -220t-47.5 -256t-7.5 -290.5q1 -19 3 -55.5t8.5 -78.5t19.5 -85.5t36 -77t58 -51.5t85 -11q58 8 111 38.5t100 75t87.5 99t75 110.5t61 109.5t46 96t30.5 70.5t14 32q4 9 11.5 11.5t14.5 -0.5t11.5 -13t3.5 -27
q0 -5 -11 -40t-32 -88t-52 -119t-71 -133.5t-88.5 -132t-105.5 -114t-121.5 -79t-136.5 -27.5q-66 2 -131 38t-118.5 107.5t-88.5 178.5t-40 252q-6 163 15.5 328.5t67 317.5t112.5 283.5t150.5 228t182 150.5t206.5 51q90 -3 153 -38t101.5 -90.5t54.5 -125.5t12.5 -142.5
t-25.5 -141.5t-59 -123.5t-88 -88t-112 -34.5q-57 -1 -115 20t-117 56.5t-118.5 80t-117.5 89.5t-114.5 87t-110.5 72t-105 43.5t-97 1.5q-57 -14 -97 -47t-64.5 -76.5t-34 -93.5t-5.5 -97q4 -35 15 -68.5t25 -58.5z" />
    <glyph glyph-name="E" unicode="E" horiz-adv-x="1156" 
d="M76 1149q-70 22 -112 58.5t-60.5 81t-16 94t20.5 98.5t50.5 93.5t73 79.5t87.5 56.5t95 24.5q56 3 101 -12.5t83 -43.5t71.5 -65.5t67.5 -77t70 -78t79.5 -70t96 -52t118.5 -23.5q40 -2 80 12.5t71.5 41t50 64t15.5 81.5q-3 46 -18 73.5t-39 42t-56 19.5t-69 7
q-27 0 -65.5 -17.5t-80.5 -49.5t-84.5 -77t-78.5 -99.5t-62 -117t-34.5 -130t4 -137.5t52.5 -140q-47 23 -90.5 8t-81 -57t-67.5 -105.5t-51 -137.5t-31.5 -153.5t-7.5 -153.5q1 -28 8 -68t23 -83.5t41 -86t61 -77t84.5 -56.5t110.5 -23q76 -1 142 22.5t122 63.5t103 92.5
t84.5 110.5t67 116.5t50.5 110.5t34.5 93t20.5 64q6 18 17 21t20.5 -4t13.5 -22.5t-4 -34.5q-6 -15 -16.5 -53.5t-28 -91t-43.5 -115.5t-64 -127t-88 -125t-116 -110.5t-149 -82.5t-186 -42q-34 -3 -83 5t-103 30t-108.5 59.5t-100 93.5t-78 132.5t-42.5 176.5
q-16 160 24 292.5t122 230t200 156.5t259 72q25 2 51.5 -4t48.5 -22.5t37.5 -46t17.5 -74.5q1 -30 -11 -51.5t-32 -35t-44.5 -19.5t-46.5 -6t-59 15t-76 51t-72 95.5t-47 148.5q-4 24 -5 65t3.5 91t17 106.5t35.5 112.5t59 108t87.5 93.5t121 69.5t160.5 35q76 7 132.5 -11
t94.5 -53.5t57.5 -84.5t22.5 -104q3 -61 -23.5 -110.5t-69.5 -85t-95 -55.5t-100 -21q-57 -1 -106.5 17t-94 47t-85.5 66t-80 74.5t-77 71.5t-77.5 58t-81.5 34t-88 -2q-57 -14 -97 -47.5t-64.5 -77.5t-34 -94t-4.5 -97q4 -38 16.5 -73.5t28.5 -61.5z" />
    <glyph glyph-name="F" unicode="F" horiz-adv-x="1166" 
d="M254 1099q-73 21 -116 55.5t-62 77t-17 91t20.5 97t51 94.5t73 84t87 65t93.5 38q44 10 96 4.5t110 -20t119.5 -35.5t123.5 -42.5t123 -40.5t117 -29t106 -9t91 19q29 10 50.5 29.5t26.5 36t-11.5 25.5t-64.5 0q-55 -11 -100 -60t-82.5 -126t-69.5 -177t-61.5 -213.5
t-58 -234.5t-59 -240t-64.5 -231t-74 -207q-14 -34 -36 -74.5t-51 -80.5t-63.5 -77t-74 -64.5t-83 -43t-89.5 -12.5q-67 4 -116.5 28t-84 58t-57 74.5t-35.5 78t-19 68t-7 45.5q-8 79 3.5 148.5t37 121t62.5 81.5t81 32q41 1 72.5 -10.5t55 -31.5t39 -45.5t24.5 -50.5
t12.5 -47t2.5 -36q-4 -76 -27 -111t-53.5 -33t-61 39t-49.5 105q-9 34 -21.5 43t-26 0t-25.5 -33t-21 -56.5t-13 -70.5t0 -74q4 -45 22 -92t47 -84.5t67.5 -59.5t83.5 -17q58 6 105.5 62.5t87.5 150t74.5 215.5t68 258.5t67.5 280t72.5 279t84 256t101.5 211t124.5 144
t153.5 55.5q49 1 83.5 -10t56.5 -30t32.5 -44t10.5 -52q-1 -32 -18.5 -69t-46.5 -68.5t-68.5 -52.5t-83.5 -19q-84 1 -175 21.5t-178 45.5t-166 49t-140 33q-59 9 -122 -4t-114.5 -52t-83.5 -106.5t-29 -167.5q0 -13 3.5 -32.5t10.5 -41.5t18 -43.5t27 -37.5zM923 564
q7 34 17 81.5t22 99.5t27.5 103t34.5 91.5t41 65.5t48 25q21 0 35.5 -9t23.5 -24t13 -33.5t4 -37.5q0 -50 -22 -75t-54.5 -35.5t-70 -10t-70.5 2.5q-27 2 -64.5 6t-78.5 7t-83 3t-79 -7t-66 -23t-44 -44q-5 -9 -7.5 0.5t-4.5 24.5q-2 18 -2 43q8 42 37.5 62.5t71.5 26t93 1
t103 -12.5t101.5 -15t89 -5.5t64.5 15t28 47.5q1 16 -8 18t-23 -24q-14 -23 -27 -55.5t-24.5 -68.5t-21.5 -72t-17.5 -66.5t-12.5 -52.5t-7 -30q-2 -6 -14 -19t-25.5 -21t-23 -6.5t-4.5 24.5z" />
    <glyph glyph-name="G" unicode="G" horiz-adv-x="1565" 
d="M392 -858q-9 -18 -16 -40.5t-11.5 -48.5t-6 -53t1.5 -54q4 -44 22.5 -91t47.5 -84.5t67.5 -60t83.5 -18.5q56 6 102 59.5t84.5 141t72.5 203t66 245.5t64.5 268t69 271t78 254t92.5 217.5t113 161.5t138 85q12 3 27.5 4.5t26.5 -3t11.5 -18t-17.5 -39.5
q-65 -89 -116 -208.5t-93.5 -256t-79 -284t-73 -292t-76 -279.5t-86.5 -247q-21 -51 -60 -111.5t-90.5 -113t-114.5 -88.5t-132 -37q-80 -1 -142 26t-104 71.5t-62 101t-15.5 114.5t35.5 111.5t92 92.5zM77 930q-73 25 -117 64t-63.5 85t-17.5 96.5t20.5 99.5t51 94
t73.5 79.5t88 56t95 24.5q56 3 110 -16t106.5 -53.5t104.5 -79.5t105 -92.5t107.5 -94t112 -84t119 -61.5t128.5 -27q45 -2 81.5 18t64 54.5t45 79.5t24.5 93.5t3 96t-21 86.5t-46.5 65.5t-72.5 32.5q-31 4 -75 -14.5t-95 -58.5t-105.5 -101.5t-106 -143t-96.5 -182
t-77 -220t-47.5 -256t-7.5 -290.5q1 -19 2.5 -53.5t8 -74.5t19 -81t35.5 -74.5t58.5 -54.5t86.5 -21q46 0 90 21t85.5 55.5t79.5 79t72 92.5t62 95.5t50 88.5l31 -97q-23 -49 -52.5 -103.5t-66.5 -106.5t-81 -99.5t-94 -82.5t-107.5 -55.5t-120.5 -18.5q-66 2 -131 38
t-118.5 107.5t-88.5 178.5t-40 252q-6 163 15.5 328.5t67 317.5t112.5 283.5t150.5 228t182 150.5t206.5 51q90 -3 153 -38t101.5 -90.5t54.5 -125.5t12.5 -142.5t-25.5 -141.5t-59 -123.5t-88 -88t-112 -34.5q-57 -1 -115 20t-117 56.5t-118.5 80t-117.5 89.5t-114.5 87
t-110.5 72t-105 43.5t-97 1.5q-57 -14 -97 -47t-64.5 -76.5t-34 -93.5t-5.5 -97q5 -45 20 -84.5t34 -63.5z" />
    <glyph glyph-name="H" unicode="H" horiz-adv-x="1441" 
d="M215 1040q-83 24 -127.5 66t-57.5 94.5t1.5 112t48.5 117.5t83.5 111t107.5 93.5t119 64.5t119 23q39 -1 85 -11t92.5 -35t90 -67.5t77.5 -108.5t55.5 -157.5t23.5 -214.5q1 -53 -9.5 -140.5t-33 -195.5t-56 -229t-78.5 -240t-101 -228.5t-123 -194.5t-144.5 -138.5
t-165.5 -59.5q-54 -4 -94 14t-66 49.5t-38.5 74t-10.5 88.5q0 38 9.5 75.5t27.5 71.5t44.5 61.5t61.5 45.5q6 4 45.5 21t103 47.5t147.5 73t178.5 96.5t195 119t198 140t188 159.5t164 177.5t125.5 194.5t74 209.5q6 31 2.5 50t-14 24t-26 -5.5t-33.5 -38.5
q-26 -42 -63.5 -117t-77 -172.5t-78.5 -213t-68 -239t-45.5 -250t-11 -246t35.5 -227t94 -193.5q31 -43 41.5 -69.5t6.5 -41t-18.5 -19.5t-32.5 -5t-48.5 5.5t-64.5 22t-66.5 48t-53.5 82.5q-39 97 -52 223t-5 267t34.5 289t65 290t87.5 270t102 229t108.5 167t106.5 84
q47 17 77 2.5t44.5 -51t16 -90t-8.5 -113.5q-17 -103 -66 -201.5t-119.5 -191t-158.5 -178.5t-184 -164t-195.5 -146t-193 -126t-177 -104t-146.5 -78.5t-102 -50.5t-44 -21q-26 -14 -51 -35.5t-44.5 -47.5t-32 -54.5t-12.5 -55.5q-1 -36 8.5 -67.5t26.5 -52.5t41 -27t51 11
q56 35 117 108t121 174t114 225.5t95 263t64.5 286t22.5 295.5q-1 108 -21 201t-53.5 161.5t-78 107.5t-93.5 41q-86 1 -150.5 -39.5t-107.5 -105t-65 -145t-23 -158.5q-2 -63 11 -104t31 -63z" />
    <glyph glyph-name="I" unicode="I" horiz-adv-x="1079" 
d="M454 754q-93 58 -143.5 133.5t-66.5 158.5t-2.5 169.5t49 168t88 153.5t113 126.5t125 86.5t124.5 33q58 1 118.5 -18.5t112 -71t88 -140.5t45.5 -227q7 -104 -2.5 -227.5t-35 -254.5t-66 -263t-95 -252.5t-122 -223.5t-146.5 -176t-169.5 -109t-190.5 -23
q-73 9 -130.5 48t-96 93.5t-57.5 117.5t-14 120t34.5 101.5t87.5 61.5q-16 -36 -24.5 -87t-3.5 -101q4 -45 22 -91t47 -82.5t67.5 -59t83.5 -20.5q53 2 111 53.5t116 139.5t114 204t105 247t88 268.5t64 267.5t32.5 245.5t-7 202.5t-53.5 137.5t-107 50.5q-50 1 -99.5 -28.5
t-94 -82t-81.5 -124.5t-60.5 -157.5t-31 -180t6.5 -191.5q3 -24 8 -51.5t11.5 -54t16 -50.5t21.5 -40z" />
    <glyph glyph-name="J" unicode="J" horiz-adv-x="1157" 
d="M-62 -40q-13 -20 -23.5 -49t-18 -63t-10 -71t0.5 -73q5 -54 27 -109t58 -99t83.5 -72t104.5 -26q94 3 179.5 73.5t160 188t137 272.5t112 327.5t84.5 352.5t54.5 348t22.5 314t-12.5 250t-50.5 156.5t-90 33.5q-37 1 -77 -24t-80 -69.5t-78.5 -105.5t-72 -133.5
t-60.5 -152.5t-44.5 -162t-24 -163.5t1.5 -155.5q3 -31 8.5 -65.5t15 -65.5t23.5 -55.5t33 -34.5q-56 -6 -93.5 13t-61.5 54t-37 80.5t-19 90.5q-13 93 -5.5 188t30 187t58.5 179.5t79.5 164.5t93.5 141.5t101 112t100.5 75t92.5 29.5q39 2 80 -5.5t81 -28t76 -55.5
t65 -86.5t48.5 -122t25.5 -162.5q7 -107 2 -235t-21 -267.5t-43 -285.5t-65.5 -289.5t-87.5 -279t-109.5 -255t-131.5 -217t-152.5 -164t-173.5 -97.5t-195 -17q-88 12 -160 53t-122 99t-74 129t-17 143t48 140t123 121z" />
    <glyph glyph-name="K" unicode="K" horiz-adv-x="1415" 
d="M110 176q-15 -36 -23.5 -87t-3.5 -101q4 -45 22 -91t47 -82.5t67.5 -59.5t84.5 -21q54 2 114.5 59t122 153.5t119.5 223.5t106.5 269.5t84.5 291.5t52.5 288.5t10.5 262t-41 211.5t-102.5 136t-174.5 37q-79 -6 -139.5 -51t-99.5 -119t-54.5 -172.5t-4.5 -213.5
q7 -72 28 -114.5t44 -61.5q-89 18 -142.5 62t-77.5 102.5t-20.5 128t28 139.5t67 136t97.5 117.5t118.5 84t130.5 36.5q50 3 104.5 2.5t107 -12.5t101.5 -39.5t87.5 -79t64.5 -131.5t34 -196q7 -104 -1 -233t-30.5 -268.5t-59 -282t-86.5 -274.5t-113.5 -246t-139.5 -195
t-164.5 -123t-188.5 -29q-73 9 -130.5 48t-96.5 93.5t-57.5 117.5t-14 120.5t34 101.5t87.5 62zM1801 1750q61 1 102 -12.5t68 -36.5t43 -54.5t27 -66.5q-96 16 -190 -19t-185 -106t-176.5 -171.5t-164.5 -216.5t-149 -241t-130 -244.5t-107.5 -226.5t-81 -188.5
t-51.5 -129.5t-18 -49l19 310q144 339 308 630q70 124 150.5 250t168 237t180 199t187.5 136zM1897 -565q69 -3 109 -41t52.5 -93t-1 -118t-50 -115.5t-95.5 -85.5t-138 -28q-67 10 -126 53.5t-110 112.5t-94.5 159t-80.5 194t-67.5 217t-54.5 227q-87 402 -130 904
q26 55 46 99q9 19 17 37t14 32t8.5 22.5t1.5 8.5t1 -55.5t8.5 -150t18.5 -221t31 -269t45 -292.5t61.5 -292.5t80.5 -269t101 -221t124 -150t149 -55.5h-1q39 5 67.5 25.5t47 49.5t26.5 64t6 69q-4 63 -24 110.5t-43 72.5z" />
    <glyph glyph-name="L" unicode="L" horiz-adv-x="1069" 
d="M313 1537q-46 24 -75 12.5t-40 -46.5t-5.5 -87t28.5 -108q39 -75 96 -126.5t124.5 -80t140 -34.5t141.5 11q65 15 136.5 45.5t140.5 73.5t131.5 97.5t110 116.5t75.5 130.5t29 140.5q1 88 -23.5 133.5t-61.5 43.5t-76 -47.5t-78 -123t-77.5 -180t-75.5 -218t-70.5 -237.5
t-63 -237.5t-54 -219t-41.5 -181.5t-27 -125t-11 -50q-36 -144 -80 -233t-93.5 -141.5t-103 -76.5t-110.5 -36q-51 -12 -96.5 -0.5t-82 38t-62 65t-36.5 81t-5.5 85.5t30 79t70 60.5t116.5 30.5q45 4 112.5 -18t151 -59.5t179 -85t195 -95t200.5 -90.5t194.5 -71t177 -35.5
t149.5 15.5q8 3 20.5 9t25 10.5t22.5 5.5t14.5 -6t1.5 -24.5t-18 -48.5q-17 -38 -55.5 -74t-103.5 -63q-83 -35 -170.5 -31.5t-176.5 32.5t-177 78.5t-173 106.5t-165.5 115.5t-153 106t-135.5 79t-114 33.5q-30 1 -50.5 -19t-29.5 -49.5t-6.5 -63.5t18 -60.5t44 -39
t72.5 0.5q48 14 85 82.5t68.5 175t59 243.5t57 287.5t62 307t74.5 303.5t94.5 276t121 223.5t156 147.5t197.5 48q39 -2 69.5 -15.5t53 -34.5t37.5 -47.5t24 -54.5t12 -54.5t2 -48.5q-6 -103 -40.5 -188.5t-88.5 -155t-125 -124t-150 -94.5t-162.5 -67t-162.5 -41
q-77 -14 -166.5 -14.5t-175 23t-158 77t-114.5 148.5q-27 62 -34.5 128t1 122.5t31 96.5t54 51t69.5 -14.5t79 -100.5z" />
    <glyph glyph-name="M" unicode="M" horiz-adv-x="1886" 
d="M461 454q8 55 -5.5 97.5t-40 69.5t-62.5 36.5t-72 -1.5q-45 -14 -78 -43.5t-55.5 -70.5t-34.5 -92t-15 -107t3.5 -114.5t21.5 -115.5q13 -52 36.5 -94.5t54 -71t66.5 -40t75 -1.5q54 13 101 70.5t88.5 147.5t78.5 208t71 253.5t67 282t65.5 294.5t66.5 292t71 273
q2 5 12.5 -0.5t23.5 -13.5q15 -10 34 -23q-61 -249 -108.5 -481.5t-91.5 -437t-88.5 -376t-98.5 -300t-122 -208.5t-158 -101q-65 -14 -124.5 2.5t-107.5 58.5t-83 107t-52 148q-18 85 -17.5 163.5t15.5 147t42.5 125.5t63.5 99t79 67t88 30q56 7 100 -3.5t70.5 -43.5
t32.5 -90t-13 -143zM950 1745q0 2 7.5 8t20 13.5t28.5 16.5t33 18q40 21 90 47q14 -511 36 -935q6 -120 13.5 -241t16.5 -234.5t19 -215.5t21.5 -184.5t24.5 -142.5t28 -88q7 -13 7.5 -25t-6 -19t-19.5 -6t-33 15q-39 28 -71.5 100t-59 175t-47 230.5t-36.5 265.5
t-27.5 280.5t-19.5 275.5t-13 250t-8 204.5t-4 138.5t-1 53zM1960 1882q66 3 92 -3t20 -20q-87 -201 -145.5 -402t-95.5 -388.5t-55.5 -354.5t-24 -300t-1 -225t13.5 -130q24 -109 52.5 -186t60 -129t63.5 -82.5t62.5 -45t58.5 -17.5t50 0.5t37 9.5t21 8q12 4 21 -3
t12.5 -17.5t1 -21.5t-13.5 -14q-8 -3 -21.5 -14.5t-35 -24.5t-51 -24.5t-68.5 -14t-88 6t-110 36.5q-77 35 -130.5 97.5t-88 145.5t-51.5 183.5t-21 210.5t4 227.5t24 235t37.5 231.5t45.5 217.5t48 193.5t44 160q-12 13 -34.5 -17t-52 -91t-64 -149t-70 -191.5t-70.5 -217
t-65.5 -227t-55 -221t-38.5 -198.5t-16.5 -160t11.5 -106l-79 126q-2 33 8 105.5t30 173.5t49.5 224t66.5 255t81 267.5t93 262t102 237.5t108.5 194.5t113 133.5t114.5 53zM203 1212q-56 -19 -98 -14.5t-71.5 29t-47.5 67t-25 100.5q-15 115 7 199.5t64 137.5t95.5 74.5
t101.5 10.5q96 -22 176 -42.5t148.5 -34.5t128.5 -21t117 -2t114 23.5t119 54.5q16 9 24 -1.5t12 -27.5q4 -19 4 -47q-85 -46 -167 -64t-160 -18t-151 13.5t-139 31.5t-124 36.5t-106 27.5q-38 8 -67 -8t-49 -47t-32 -72t-17.5 -82.5t-4.5 -79t7 -62.5q15 -60 33 -96t36 -55
t36.5 -25t35.5 -6z" />
    <glyph glyph-name="N" unicode="N" horiz-adv-x="1448" 
d="M950 1745q0 2 7.5 8t20 13.5t28.5 16.5t33 18q40 21 90 47q14 -511 36 -935q6 -120 13.5 -241t16.5 -234.5t19 -215.5t21.5 -184.5t24.5 -142.5t28 -88q7 -13 7.5 -25t-6 -19t-19.5 -6t-33 15q-39 28 -71.5 100t-59 175t-47 230.5t-36.5 265.5t-27.5 280.5t-19.5 275.5
t-13 250t-8 204.5t-4 138.5t-1 53zM2195 1495q10 24 14.5 54t4.5 62.5t-2.5 64t-6.5 58.5q-5 34 -14.5 70t-25 66.5t-37.5 52t-52 27.5q-110 3 -202 -51.5t-168.5 -150.5t-138 -225t-109.5 -276.5t-83.5 -304t-59.5 -307t-37.5 -286.5t-18 -242.5t-1 -174.5t14.5 -82
l-97 205q6 67 15 169t22.5 225.5t33.5 263t48 282.5t66.5 283.5t88.5 266t113.5 230t143 175.5t176.5 102.5t213 11.5q57 -10 106.5 -47t84 -89.5t51 -114.5t8.5 -121.5t-44 -112t-107 -84.5zM461 454q8 55 -5.5 97.5t-40 69.5t-62.5 36.5t-72 -1.5q-45 -14 -78 -43.5
t-55.5 -70.5t-34.5 -92t-15 -107t3.5 -114.5t21.5 -115.5q13 -52 36.5 -94.5t54 -71t66.5 -40t75 -1.5q54 13 101 70.5t88.5 147.5t78.5 208t71 253.5t67 282t65.5 294.5t66.5 292t71 273q2 5 12.5 -0.5t23.5 -13.5q15 -10 34 -23q-61 -249 -108.5 -481.5t-91.5 -437
t-88.5 -376t-98.5 -300t-122 -208.5t-158 -101q-65 -14 -124.5 2.5t-107.5 58.5t-83 107t-52 148q-18 85 -17.5 163.5t15.5 147t42.5 125.5t63.5 99t79 67t88 30q56 7 100 -3.5t70.5 -43.5t32.5 -90t-13 -143zM203 1212q-56 -19 -98 -14.5t-71.5 29t-47.5 67t-25 100.5
q-15 115 7 199.5t64 137.5t95.5 74.5t101.5 10.5q96 -22 176 -42.5t148.5 -34.5t128.5 -21t117 -2t114 23.5t119 54.5q16 9 24 -1.5t12 -27.5q4 -19 4 -47q-85 -46 -167 -64t-160 -18t-151 13.5t-139 31.5t-124 36.5t-106 27.5q-38 8 -67 -8t-49 -47t-32 -72t-17.5 -82.5
t-4.5 -79t7 -62.5q15 -60 33 -96t36 -55t36.5 -25t35.5 -6z" />
    <glyph glyph-name="T" unicode="T" horiz-adv-x="933" 
d="M254 1099q-73 21 -116 55.5t-62 77t-17 91t20.5 97t51 94.5t73 84t87 65t93.5 38q44 10 96 4.5t110 -20t119.5 -35.5t123.5 -42.5t123 -40.5t117 -29t106 -9t91 19q29 10 50.5 29.5t26.5 36t-11.5 25.5t-64.5 0q-55 -11 -100 -60t-82.5 -126t-69.5 -177t-61.5 -213.5
t-58 -234.5t-59 -240t-64.5 -231t-74 -207q-14 -34 -36 -74.5t-51 -80.5t-63.5 -77t-74 -64.5t-83 -43t-89.5 -12.5q-67 4 -116.5 28t-84 58t-57 74.5t-35.5 78t-19 68t-7 45.5q-8 79 3.5 148.5t37 121t62.5 81.5t81 32q41 1 72.5 -10.5t55 -31.5t39 -45.5t24.5 -50.5
t12.5 -47t2.5 -36q-4 -76 -27 -111t-53.5 -33t-61 39t-49.5 105q-9 34 -21.5 43t-26 0t-25.5 -33t-21 -56.5t-13 -70.5t0 -74q4 -45 22 -92t47 -84.5t67.5 -59.5t83.5 -17q58 6 105.5 62.5t87.5 150t74.5 215.5t68 258.5t67.5 280t72.5 279t84 256t101.5 211t124.5 144
t153.5 55.5q49 1 83.5 -10t56.5 -30t32.5 -44t10.5 -52q-1 -32 -18.5 -69t-46.5 -68.5t-68.5 -52.5t-83.5 -19q-84 1 -175 21.5t-178 45.5t-166 49t-140 33q-59 9 -122 -4t-114.5 -52t-83.5 -106.5t-29 -167.5q0 -13 3.5 -32.5t10.5 -41.5t18 -43.5t27 -37.5z" />
    <glyph glyph-name="P" unicode="P" horiz-adv-x="1357" 
d="M508 1194q18 -64 19.5 -103t-7.5 -60.5t-26 -29.5t-36 -9q-38 -2 -81 11.5t-81.5 47.5t-67 90t-36.5 139q-9 85 7.5 158t51 133.5t83.5 107.5t105 81.5t115.5 54.5t115.5 27q85 10 176.5 -2t179 -45.5t167 -88.5t141 -131t100.5 -173t46 -214q9 -147 -23.5 -267
t-93 -211.5t-144.5 -155t-178 -97.5t-193 -38t-189.5 22.5t-168 84.5t-128.5 148q28 -30 84.5 -60t130 -51t157.5 -29t167.5 7.5t160 59t134 124t90.5 203.5t29 297q-2 66 -22 134t-57 130.5t-91 116t-122 92t-150.5 58t-176.5 13.5q-80 -6 -151 -39t-122 -93.5
t-76.5 -148.5t-14.5 -202q5 -48 16.5 -83.5t26.5 -59t31.5 -35.5t31.5 -14q65 4 70 100zM157 360q-15 -1 -29.5 -23t-25.5 -56.5t-16 -77t-1 -82.5q4 -45 22 -91.5t47 -84t67.5 -59.5t83.5 -18q42 3 81 44.5t74.5 111t68.5 162t64 197.5t60 217t56.5 220.5t53.5 209
t51.5 181.5t51 138t50.5 79q32 28 69.5 38.5t69.5 12.5q38 2 76 -4q6 0 11.5 -5t9.5 -12t3.5 -15.5t-6.5 -15.5q-54 -69 -96 -163t-77.5 -203.5t-66.5 -229t-62 -238.5t-64.5 -232.5t-73.5 -210.5q-14 -34 -36 -74.5t-51 -80.5t-63.5 -77t-74 -64.5t-83 -43t-89.5 -12.5
q-67 4 -116.5 28t-84 58t-57 74.5t-35.5 78t-19 68t-7 45.5q-6 59 0 110.5t25.5 83.5t53.5 39t85 -23z" />
    <glyph glyph-name="R" unicode="R" horiz-adv-x="1357" 
d="M1531 -217q10 16 20 9.5t17 -26.5t9.5 -49t-3.5 -58q-10 -52 -30.5 -92.5t-49 -66.5t-63 -35t-72.5 2q-54 15 -102 70t-90.5 134t-80.5 173.5t-72 188.5t-65.5 180t-61 146.5t-58 88.5t-56.5 6q-6 -6 -6 -5t2 4.5t4.5 8t1.5 7.5t13 7t36 7t48 5t49 2q24 0 54 -34
t63.5 -90.5t69.5 -128t72 -146t72 -146t69.5 -128t63.5 -90.5t54 -34q12 0 26.5 9.5t27.5 23t23.5 29t14.5 28.5zM508 1194q18 -64 19.5 -103t-7.5 -60.5t-26 -29.5t-36 -9q-38 -2 -81 11.5t-81.5 47.5t-67 90t-36.5 139q-9 85 7.5 158t51 133.5t83.5 107.5t105 81.5
t115.5 54.5t115.5 27q85 10 176.5 -2t179 -45.5t167 -88.5t141 -131t100.5 -173t46 -214q9 -147 -23.5 -267t-93 -211.5t-144.5 -155t-178 -97.5t-193 -38t-189.5 22.5t-168 84.5t-128.5 148q28 -30 84.5 -60t130 -51t157.5 -29t167.5 7.5t160 59t134 124t90.5 203.5t29 297
q-2 66 -22 134t-57 130.5t-91 116t-122 92t-150.5 58t-176.5 13.5q-80 -6 -151 -39t-122 -93.5t-76.5 -148.5t-14.5 -202q5 -48 16.5 -83.5t26.5 -59t31.5 -35.5t31.5 -14q65 4 70 100zM157 360q-15 -1 -29.5 -23t-25.5 -56.5t-16 -77t-1 -82.5q4 -45 22 -91.5t47 -84
t67.5 -59.5t83.5 -18q42 3 81 44.5t74.5 111t68.5 162t64 197.5t60 217t56.5 220.5t53.5 209t51.5 181.5t51 138t50.5 79q32 28 69.5 38.5t69.5 12.5q38 2 76 -4q6 0 11.5 -5t9.5 -12t3.5 -15.5t-6.5 -15.5q-54 -69 -96 -163t-77.5 -203.5t-66.5 -229t-62 -238.5
t-64.5 -232.5t-73.5 -210.5q-14 -34 -36 -74.5t-51 -80.5t-63.5 -77t-74 -64.5t-83 -43t-89.5 -12.5q-67 4 -116.5 28t-84 58t-57 74.5t-35.5 78t-19 68t-7 45.5q-6 59 0 110.5t25.5 83.5t53.5 39t85 -23z" />
    <glyph glyph-name="O" unicode="O" horiz-adv-x="1137" 
d="M584 786q28 -95 29 -157.5t-14.5 -99.5t-44 -51t-60.5 -12q-74 3 -134 44.5t-105 109.5t-75.5 158t-44.5 190.5t-11.5 206t22 205.5t57.5 189t94.5 156t132 107t171.5 41q135 2 233 -61.5t162.5 -173.5t97 -256t36 -309.5t-19 -333.5t-68.5 -327t-113.5 -291.5
t-153 -226.5t-187 -132t-215.5 -8q-83 23 -145 71.5t-106.5 111t-73.5 133t-47 138t-27 126.5t-13 98q-12 134 -2 254t34 225t58.5 194.5t72.5 163.5q89 172 210 302q11 12 35.5 7.5t54 -19.5t59 -37t50 -45t27.5 -43t-9 -31q-4 -3 -36 -25.5t-78.5 -69.5t-100.5 -120.5
t-101.5 -178.5t-81.5 -244.5t-40 -316.5q-1 -46 3 -107.5t15.5 -128t31.5 -131t50.5 -117t73 -86.5t98.5 -39q66 -6 131 44.5t125 141.5t112 214.5t92.5 264t66.5 290t33 291t-6.5 268.5t-52 222.5t-105 152t-164.5 58.5q-89 1 -155.5 -33.5t-113 -94t-74.5 -139.5
t-40.5 -170.5t-10 -185.5t16.5 -185.5t39 -170.5t57.5 -140t72 -94.5t82.5 -33.5q26 0 45.5 21t31.5 55.5t16 79t0 91.5z" />
    <glyph glyph-name="Q" unicode="Q" horiz-adv-x="1137" 
d="M489 67q12 3 45 -21t80 -63.5t106 -90.5t123.5 -103t131 -99t130 -80t120 -45.5t100.5 4.5q23 9 28.5 -4t-1 -36t-23.5 -50t-39 -45q-44 -37 -97 -31.5t-111 40t-119 90t-120.5 119t-116.5 127.5t-107.5 114.5t-92 80.5t-70.5 26q-4 0 -7.5 8.5t-1.5 20t11 22.5t31 16z
M584 786q28 -95 29 -157.5t-14.5 -99.5t-44 -51t-60.5 -12q-74 3 -134 44.5t-105 109.5t-75.5 158t-44.5 190.5t-11.5 206t22 205.5t57.5 189t94.5 156t132 107t171.5 41q135 2 233 -61.5t162.5 -173.5t97 -256t36 -309.5t-19 -333.5t-68.5 -327t-113.5 -291.5t-153 -226.5
t-187 -132t-215.5 -8q-83 23 -145 71.5t-106.5 111t-73.5 133t-47 138t-27 126.5t-13 98q-12 134 -2 254t34 225t58.5 194.5t72.5 163.5q89 172 210 302q11 12 35.5 7.5t54 -19.5t59 -37t50 -45t27.5 -43t-9 -31q-4 -3 -36 -25.5t-78.5 -69.5t-100.5 -120.5t-101.5 -178.5
t-81.5 -244.5t-40 -316.5q-1 -46 3 -107.5t15.5 -128t31.5 -131t50.5 -117t73 -86.5t98.5 -39q66 -6 131 44.5t125 141.5t112 214.5t92.5 264t66.5 290t33 291t-6.5 268.5t-52 222.5t-105 152t-164.5 58.5q-89 1 -155.5 -33.5t-113 -94t-74.5 -139.5t-40.5 -170.5
t-10 -185.5t16.5 -185.5t39 -170.5t57.5 -140t72 -94.5t82.5 -33.5q26 0 45.5 21t31.5 55.5t16 79t0 91.5z" />
    <glyph glyph-name="S" unicode="S" horiz-adv-x="1108" 
d="M223 459q-15 -11 -29.5 -31.5t-26 -50.5t-18 -68t-4.5 -83q2 -69 23.5 -126.5t57.5 -101t83 -71t101 -36.5q52 -8 103 3.5t93.5 47t73 97t40.5 153.5q8 71 -3 140.5t-32 141t-47.5 148.5t-50 162.5t-39.5 182.5t-16 209q0 91 18 178.5t51.5 165t81.5 140.5t108.5 106
t132.5 62t154 7q83 -12 138 -52t87.5 -92t45 -108t11.5 -100q-3 -86 -33.5 -146.5t-72.5 -99t-88.5 -55.5t-80.5 -17q-73 1 -139 31t-128.5 75t-125 99t-128 104t-137.5 90t-154 57q-35 7 -63 -1.5t-49 -27t-36 -45t-24 -54.5t-13 -56t-2 -49q3 -47 10.5 -77t19 -48.5
t24.5 -27t27 -11.5q-43 -11 -77 -0.5t-57 39t-34.5 72.5t-9.5 100q2 85 27 148.5t65.5 103.5t91.5 56.5t106 8.5q61 -9 125.5 -47.5t130.5 -92.5t132.5 -115t131 -115t126.5 -94t119 -50q61 -11 112.5 22t89.5 128q6 16 12 46.5t6.5 67.5t-6.5 77t-27 74.5t-55.5 60.5
t-91.5 36t-101 -3.5t-79.5 -42t-60 -68.5t-43.5 -83.5t-29.5 -87t-18 -79.5t-9 -60t-2.5 -28q-5 -119 8.5 -217t37 -183t51.5 -160t51.5 -148t37.5 -148t10 -159q-5 -96 -30 -172.5t-64 -135.5t-89.5 -100.5t-106.5 -67t-115.5 -35t-116.5 -4.5q-77 6 -146.5 45t-120.5 105
t-77.5 155.5t-16.5 197.5q3 36 11.5 68t27 57.5t49.5 42t81 20.5z" />
    <glyph glyph-name="Y" unicode="Y" horiz-adv-x="1662" 
d="M621 -416q-17 0 -34.5 -26t-30 -67.5t-18.5 -93t0 -101.5q6 -54 29 -111t59 -103t83 -73t102 -22q68 7 125.5 80.5t107.5 195t94.5 281.5t86.5 340t83 370.5t84.5 373t91.5 347.5t103 294t118.5 213t139.5 104q11 4 27 5.5t26.5 -3t11.5 -17.5t-17 -39q-47 -67 -89 -175
t-80 -243.5t-73.5 -292t-70 -321t-68 -329.5t-68.5 -318t-72.5 -287t-78.5 -236q-16 -41 -42 -89.5t-59.5 -97t-74.5 -93t-88.5 -78t-100 -52t-108.5 -14.5q-81 5 -141.5 33.5t-104 70t-71.5 90t-45 94t-24.5 82.5t-9.5 54q-9 74 -2 138t30.5 103t65 46t103.5 -33zM544 1100
q-59 -2 -96 14t-58.5 43.5t-29.5 63t-8 74.5q1 82 21.5 156t60.5 132t97.5 97.5t132.5 52.5q46 8 102.5 5t114.5 -21t112.5 -53t97 -92t68 -138t25.5 -191q0 -53 -15 -136.5t-38 -185t-51 -213t-56 -220t-53 -207t-40 -173.5t-18.5 -119t11.5 -44q42 1 89 48.5t95.5 124.5
t96.5 175t92 200q103 239 205 544l-48 -319q-85 -259 -178 -462q-40 -87 -85.5 -169.5t-95 -147t-101 -103.5t-103.5 -38q-51 1 -82.5 29.5t-50 67t-26.5 78t-10 62.5q-5 46 4.5 116t28 154t44 177.5t53.5 187.5t55 183.5t49 165.5t36.5 133.5t16.5 88.5q7 98 -8.5 165
t-44.5 109.5t-67 64.5t-77 29.5t-75.5 3.5t-61.5 -12q-53 -17 -90.5 -55.5t-60.5 -86.5t-32.5 -100t-7.5 -97q1 -25 6.5 -49.5t14 -46.5t18.5 -39t21 -27z" />
    <glyph glyph-name="U" unicode="U" horiz-adv-x="1225" 
d="M55 1100q-59 -2 -96 14t-58.5 43.5t-29.5 63t-8 74.5q1 82 21.5 156t60.5 132t97.5 97.5t132.5 52.5q46 8 102.5 5t114.5 -21t112.5 -53t97 -92t68 -138t25.5 -191q0 -53 -15 -136.5t-38 -185t-51 -213t-56 -220t-53 -207t-40 -173.5t-18.5 -119t11.5 -44q42 1 89 48.5
t95.5 124.5t96.5 175t92 200q103 239 205 544l-48 -319q-85 -259 -178 -462q-40 -87 -85.5 -169.5t-95 -147t-101 -103.5t-103.5 -38q-51 1 -82.5 29.5t-50 67t-26.5 78t-10 62.5q-5 46 4.5 116t28 154t44 177.5t53.5 187.5t55 183.5t49 165.5t36.5 133.5t16.5 88.5
q6 98 -9 165t-44 109.5t-67 64.5t-77 29.5t-75.5 3.5t-61.5 -12q-53 -17 -90.5 -55.5t-60.5 -86.5t-32.5 -100t-7.5 -97q1 -25 6.5 -49.5t14 -46.5t18.5 -39t21 -27zM1176 1394q45 58 96.5 87.5t98 40.5t80.5 10.5t44 -1.5t17 -10.5t9 -22t-1 -24.5t-12 -17
q-57 -31 -107.5 -88.5t-94 -134t-80 -168.5t-65.5 -192t-51 -205.5t-37 -208.5t-23 -200t-8 -181q-1 -93 8.5 -154t23.5 -101t28.5 -63.5t24.5 -41.5q10 -19 11 -31t-4 -19t-13 -10t-14 -3q-5 1 -21.5 3t-40 14t-50.5 38.5t-51.5 76t-44 126t-27.5 189.5q-6 86 -4 190.5
t13.5 218.5t34 232.5t58 233t85.5 221t117 195.5z" />
    <glyph glyph-name="V" unicode="V" horiz-adv-x="1011" 
d="M1850 1875q-127 6 -237.5 -50t-207.5 -156t-180.5 -236t-156.5 -290t-137.5 -317.5t-122 -318t-109.5 -292t-101 -240.5t-96.5 -162t-95.5 -57q-34 2 -59 15.5t-43.5 35t-30.5 47.5t-19.5 52t-11.5 49t-5 38q-5 47 4.5 116.5t28 153.5t44.5 177.5t53.5 187t55 183
t49.5 166t36 134.5t16 89q6 97 -9 164t-44 109.5t-67 64t-77 29t-75.5 4.5t-61.5 -11q-53 -18 -90.5 -56t-60.5 -86t-32.5 -100t-7.5 -96t16.5 -84.5t31.5 -64.5q-70 25 -111.5 63t-59 83.5t-14.5 96t21.5 100t50.5 95.5t71.5 83.5t84.5 62.5t90 33q46 8 102 5.5t114 -20.5
t113 -53t97.5 -92t68 -138.5t24.5 -190.5q0 -53 -14.5 -138t-37 -188.5t-50 -217.5t-55.5 -224t-52 -209t-40 -172.5t-20 -114t9 -33.5q24 12 53.5 65t65.5 136t77.5 191t88.5 232t101 259t113.5 270.5t125.5 267t138 249t151 216.5t164 170q12 10 33.5 23t48.5 21.5t59 9.5
t64.5 -11.5t65 -43t62.5 -84.5z" />
    <glyph glyph-name="W" unicode="W" horiz-adv-x="1507" 
d="M2439 2054q-129 10 -241 -43.5t-209.5 -152.5t-182 -234.5t-159 -290t-139 -318.5t-122.5 -320t-110 -295t-101.5 -242.5t-97 -163.5t-95.5 -58q-34 1 -59.5 15t-43.5 35.5t-30 47.5t-20 52t-11.5 49t-5.5 38q-7 62 3 135.5t28.5 151t42.5 155t45.5 148t37 130
t18.5 101.5q4 65 -1.5 115.5t-19.5 90.5q57 25 95 18t60.5 -36.5t31.5 -78.5t8 -108q0 -53 -9.5 -121.5t-24 -144.5t-32 -155.5t-35 -153.5t-31.5 -138.5t-22 -110.5t-7 -70t14 -17q25 13 55.5 67t67 139.5t79 197t91 238.5t103.5 265t116.5 275.5t129.5 270.5t142.5 250.5
t155.5 214.5t169 163q13 10 37.5 22t54 18.5t62 5t63 -17t56.5 -49t43 -90.5zM56 1099q-61 4 -99 22t-59 45t-28 60t-7 69q1 82 21.5 156t60.5 132t97.5 97.5t132.5 52.5q46 8 102.5 5t114.5 -21t112.5 -53t97 -92t68 -138t25.5 -191q0 -53 -14.5 -138t-37 -188.5
t-50.5 -217.5t-55.5 -224.5t-52 -209.5t-40 -172.5t-19.5 -114t9 -33.5q21 11 57 66.5t80 139t93 187t96 212t89 214t72 192t44.5 146t7.5 76.5q13 -33 18 -58.5t5 -49.5t-2 -49.5t-3 -58.5q-42 -122 -88.5 -256t-95.5 -264t-100 -247.5t-102.5 -206.5t-102.5 -140.5
t-101 -49.5q-51 2 -82.5 31t-50 67t-26.5 77t-10 62q-5 46 4.5 116t28 154t44 177.5t53.5 187.5t55 183.5t49 165.5t36.5 133.5t16.5 88.5q6 98 -9 165t-44 109.5t-67 64.5t-77 29.5t-75.5 3.5t-61.5 -12q-53 -17 -90.5 -55.5t-60.5 -86.5t-32.5 -100t-7.5 -97q1 -26 7 -51
t14.5 -47t18.5 -39t21 -26z" />
    <glyph glyph-name="X" unicode="X" horiz-adv-x="1137" 
d="M361 -274q16 -50 14 -81.5t-15.5 -49t-36 -23.5t-49.5 -4q-33 2 -68 19.5t-65.5 51t-52.5 84t-28 119.5q-9 108 12 206.5t62 186t96 163t114 138.5q138 147 321 262l45 -84q3 -5 -20 -20t-62 -42t-89.5 -66.5t-102.5 -92t-101.5 -119t-86 -147t-56.5 -176.5t-13 -208
q3 -53 13 -88.5t23 -57.5t27.5 -31.5t26.5 -9.5q22 -2 38.5 3.5t27 16t17 23.5t9.5 27zM240 1694q67 -21 128 -85.5t117 -160t108.5 -216t101.5 -254t95 -274t90.5 -275.5t88 -258.5t86 -223.5t85.5 -170.5t87 -98.5q35 -22 42.5 -46.5t-8.5 -41.5t-53.5 -22t-93.5 13
q-62 19 -119 83.5t-110 162.5t-103 222t-98 261t-95 280.5t-94.5 280.5t-95.5 260.5t-98 221t-103 161.5t-110 82q-13 4 -18 16.5t-1.5 28t16 31t33.5 25t51.5 10t70.5 -12.5zM980 1663q-40 70 -48 118t5.5 77t44.5 41t70 10q33 -2 68.5 -19.5t65.5 -51t52 -84.5t28 -120
q9 -108 -12 -206.5t-61.5 -186t-95.5 -163t-114 -138.5q-138 -147 -321 -261l-46 84q-4 5 18 21t60.5 43.5t88.5 66.5t102.5 91.5t102 118.5t87 146.5t58.5 176t15 206.5q-3 54 -12.5 90t-23 57.5t-28 31.5t-26.5 11q-34 0 -55.5 -14.5t-31 -38t-7.5 -52t16 -55.5z" />
    <glyph glyph-name="Z" unicode="Z" horiz-adv-x="1480" 
d="M1183 323q84 1 141 -24.5t89 -68.5t41 -99t-3 -114.5t-43 -115t-79 -101t-111 -73t-138 -30.5q-62 -2 -125 16t-127 47.5t-127 67.5t-124.5 75.5t-119.5 72t-112 58t-102.5 31.5t-90.5 -6q-29 -11 -50.5 -31t-26.5 -37t12 -25.5t65 3.5q63 15 122 76.5t116 156t113 215
t113 253t116.5 270.5t123 268t133 245t147 201t163.5 136.5t183 51.5q48 0 83 -11t57 -30t32 -44t10 -52q0 -32 -14 -63.5t-39.5 -56.5t-61.5 -40t-81 -14q-11 0 -54 7t-104.5 17.5t-135.5 24t-146 26t-135 23.5t-104 17q-59 8 -122 -4.5t-114.5 -51.5t-84 -106.5
t-29.5 -167.5q1 -19 8 -51t22 -62.5t40 -52.5t62 -22q-41 -23 -83 -20.5t-78 23.5t-61.5 58t-34.5 85q-17 94 -3.5 168t47.5 129t84.5 91.5t108 57t117.5 25.5t113 -3q51 -8 113 -24.5t130 -36t137.5 -38.5t134 -31t121 -14t97.5 12q29 10 51 29t27 36t-12 26t-65 -1
q-68 -13 -130 -73t-121.5 -153.5t-117 -213t-115.5 -252t-117 -270.5t-122 -268t-130.5 -245.5t-142.5 -203t-158 -139.5t-176 -55q-48 -2 -80.5 9t-53.5 30t-32 44.5t-17 52.5q-6 30 0.5 65.5t28.5 68t60.5 57t96.5 31.5q26 3 65.5 -11t87.5 -38.5t102.5 -57t111 -67.5
t112.5 -69t106.5 -62.5t93 -48t73.5 -24.5q59 -8 122 5t114.5 52t83.5 106t29 167q0 17 -6 45t-18.5 56.5t-32.5 52.5t-49 32z" />
    <glyph glyph-name="circumflex" unicode="&#x2c6;" 
d="M244 1024l3.5 -6.5t10 -17.5t15 -25t17.5 -29q20 -34 47 -77q-10 -28 -19 -50q-8 -19 -15 -34.5t-9 -14.5q-2 2 -16 19.5t-30 38.5q-18 25 -42 55q-16 -25 -30 -45l-24 -34t-17 -22t-10.5 -0.5t-10 12.5t-6 16t2.5 10q2 1 13 16.5t26 38t32 48.5t31 48.5t23 37.5t8 15z
" />
    <glyph glyph-name="cent" unicode="&#xa2;" horiz-adv-x="282" 
d="M126 841q27 0 45.5 -15.5t29.5 -39.5t14 -52.5t-0.5 -55t-14.5 -46.5t-28 -26q-14 -5 -24.5 -2t-18 11t-11.5 20t-3 25q1 19 6 25.5t12.5 6.5t15.5 -3t15 -3t12 6.5t5 25.5q0 6 -2 18t-6.5 23.5t-13 20t-23.5 7.5q-14 0 -29.5 -24t-27.5 -60t-18 -80t-1 -84q1 -8 5 -26.5
t11 -37t15 -31.5t16 -11q17 4 32 17.5t28 51.5q3 10 13 -0.5t10 -31.5q-2 -23 -14 -41.5t-29.5 -31t-36 -19t-31.5 -6.5q-15 0 -34.5 8.5t-38 26.5t-32.5 46.5t-18 69.5q-3 31 -0.5 66.5t11 71t22 68t33.5 57.5t46 40t58 15zM136 908q-1 0 4 0.5t12 1.5t17 2l-15 -84l-39 7z
M32 395q-1 -1 4.5 -0.5t13.5 0.5t19 1l-17 -82l-38 -4q5 25 9 43q2 8 3 15.5t3 13.5q2 7 3 13z" />
    <glyph glyph-name="germandbls" unicode="&#xdf;" horiz-adv-x="593" 
d="M305 1064q54 4 93 -14.5t66 -50t44 -70.5t26 -76t11.5 -66.5t1.5 -40.5q-5 -52 -21 -104.5t-34 -96.5t-33.5 -76t-18.5 -42t3.5 -37.5t15.5 -61t17.5 -68t8.5 -58.5q3 -68 -9 -119.5t-32 -88.5t-45.5 -61t-51.5 -38t-48.5 -18.5t-35.5 -3.5q-22 3 -41.5 16t-33 30
t-19 34.5t0.5 29.5q8 15 14 9.5t15 -18t23.5 -24.5t39.5 -9q16 2 31.5 17.5t28.5 40t23.5 55t17 60.5t9 57t-0.5 45q-5 28 -16.5 50t-24.5 45t-24 49.5t-14 64.5q-3 46 18.5 84t48 78.5t47 89.5t15.5 117q-1 15 -3.5 37t-8 42.5t-15.5 35t-26 14.5q-13 0 -34.5 -34
t-46 -93.5t-50 -140t-47.5 -173t-38 -192.5t-21.5 -199.5t2.5 -193t33 -173.5q9 -26 3.5 -39.5t-25.5 -6.5q-7 2 -19.5 4t-28.5 8t-33.5 18t-34 36t-31 61.5t-23.5 94.5q-10 59 -8 140t14 173t31.5 190.5t45 192t55.5 177.5t62.5 147.5t65.5 102t65 41.5z" />
    <glyph glyph-name="cedilla" unicode="&#xb8;" 
d="M236 8q-4 10 8.5 15t28.5 6t30.5 -3t15.5 -12l-20 -127q13 -18 22 -36q8 -16 13 -34t2 -33q-7 -29 -19.5 -44.5t-27.5 -22t-30.5 -5.5t-28.5 5t-22 9.5t-10 8.5q-2 4 -4.5 12t-3 15t2 10t10.5 -2q7 -6 18.5 -3.5t22 10t18 17.5t7.5 19q-2 34 -8 53.5t-12.5 29.5t-12 14
t-6.5 8q-2 4 -1.5 19.5t1.5 32t3 28.5t3 10z" />
    <glyph glyph-name="ogonek" unicode="&#x2db;" 
d="M235 49q1 0 13.5 -0.5t26.5 -1.5q17 -1 38 -1q-4 2 -7.5 -15.5t-4 -45t2.5 -59t12 -59t24.5 -45t39.5 -15.5q6 0 9 -9.5t0.5 -21.5t-11 -22.5t-25.5 -13.5q-35 -5 -57.5 15.5t-36 55t-19 76t-7 77.5t-0.5 60.5t2 24.5z" />
    <glyph glyph-name="tilde" unicode="&#x2dc;" 
d="M234 950q10 0 22 -8t25.5 -17.5t28.5 -17t32 -6.5q12 2 20.5 9.5t14 16.5t9.5 17.5t7 13.5q4 4 8 2t7.5 -8t6 -13.5t2.5 -14.5q1 -7 -3 -26t-12.5 -39t-22.5 -36.5t-33 -17.5q-10 -1 -23.5 4t-29.5 11.5t-32.5 12t-32.5 6t-29.5 -7t-23.5 -26.5q-3 -7 -6 -7.5t-5.5 3.5
t-4.5 10l-4 12t3 26.5t15.5 43t25.5 40t35 17.5z" />
    <glyph glyph-name="caron" unicode="&#x2c7;" 
d="M184 768l-3.5 6.5t-10 17.5t-15 24.5t-17.5 28.5l-48 78l20 50q8 19 14.5 34t8.5 13t15.5 -20t30.5 -38q19 -25 43 -54l30 45q12 17 23.5 34t16.5 22q6 5 11.5 0.5t10 -12t5.5 -15.5t-2 -10q-2 -1 -13.5 -16.5t-26.5 -38.5t-31.5 -49t-30.5 -48t-23 -37t-8 -15z" />
    <glyph glyph-name="macron" unicode="&#xaf;" 
d="M328 876l-18 -106h-177l11 110z" />
    <glyph glyph-name="dieresis" unicode="&#xa8;" 
d="M114 845q-3 29 8.5 48.5t31.5 19.5t36.5 -19.5t19.5 -48.5q3 -28 -10 -47t-33 -19t-35 19t-18 47zM257 838q-3 27 9 45t32 18t35 -18t18 -45q2 -26 -9.5 -44.5t-31.5 -18.5t-35.5 18.5t-17.5 44.5z" />
    <glyph glyph-name="breve" unicode="&#x2d8;" 
d="M198 958q1 0 -1.5 -17t-1 -37t11 -37t33.5 -17q12 0 20.5 18t13.5 40q6 26 10 58l56 -4q-5 -52 -19 -92q-6 -17 -15 -33.5t-21 -29.5t-27.5 -20.5t-34.5 -7.5q-20 0 -35 7.5t-25.5 20.5t-17.5 29.5t-11 33.5q-10 40 -9 92q19 -1 35 -2q14 -1 25 -1.5t13 -0.5z" />
    <glyph glyph-name="ring" unicode="&#x2da;" 
d="M134 872q-2 24 2.5 45.5t15 37t25.5 25t33 9.5t34.5 -9.5t29.5 -25t22 -37t11 -45.5q3 -24 -2 -44.5t-15 -36.5t-24.5 -25t-32.5 -9t-34.5 9t-30 25t-22.5 36.5t-12 44.5zM183 874q2 -20 14.5 -34t28.5 -14t25.5 14t7.5 34t-14.5 34.5t-28.5 14.5t-25.5 -14.5t-7.5 -34.5
z" />
    <glyph glyph-name="grave" unicode="`" 
d="M280 838l-26 -63l-147 156l56 90z" />
    <glyph glyph-name="acute" unicode="&#xb4;" 
d="M264 978q0 -3 11.5 -16t25.5 -28q16 -18 36 -39l-128 -123l-36 54q25 45 45 79q9 15 17 28.5t14.5 24t10.5 16t4 4.5z" />
    <glyph glyph-name="dotaccent" unicode="&#x2d9;" 
d="M114 845q-3 29 8.5 48.5t31.5 19.5t36.5 -19.5t19.5 -48.5q3 -28 -10 -47t-33 -19t-35 19t-18 47z" />
    <glyph glyph-name="hungarumlaut" unicode="&#x2dd;" horiz-adv-x="850" 
d="M264 978q0 -3 11.5 -16t25.5 -28q16 -18 36 -39l-128 -123l-36 54q25 45 45 79q9 15 17 28.5t14.5 24t10.5 16t4 4.5zM409 978q0 -3 11.5 -16t25.5 -28q16 -18 36 -39l-128 -123l-36 54q25 45 45 79q9 15 17 28.5t14.5 24t10.5 16t4 4.5z" />
    <glyph glyph-name="Euro" unicode="&#x20ac;" horiz-adv-x="773" 
d="M146 665l-9 -94l-227 -3l7 93zM166 823l-9 -93l-226 -4l7 94zM443 528q1 14 11 14.5t24.5 -9t30 -27.5t26.5 -40.5t15 -48t-4 -50.5q-35 -111 -74.5 -183t-80.5 -115t-82.5 -60.5t-79.5 -18.5q-52 -2 -94.5 26.5t-74.5 76t-53 108t-29 123.5q-22 159 -16 302t32 263.5
t67.5 218t91.5 166t104 106t105 40.5t88 -15.5t62 -51.5t39.5 -75.5t20 -87.5t4.5 -88t-7 -77q-4 -6 -15.5 -15t-27.5 -17t-33 -13t-31 -3t-22.5 12t-6.5 33q0 21 2.5 49t5 58t4 60t-1.5 54t-12 40.5t-26 20.5q-39 9 -74 -14t-66.5 -70.5t-58 -114t-48 -143t-37 -158.5
t-24 -161t-10 -150t5.5 -125q15 -129 45 -198t75 -67q28 2 65.5 35t72 89.5t60.5 133.5t32 167z" />
    <glyph glyph-name="dotlessi" unicode="&#x131;" horiz-adv-x="350" 
d="M66 722q-4 16 6.5 15.5t28 -12t38.5 -32.5t39.5 -46.5t30.5 -53t12 -51.5q0 -8 -6 -32t-16 -58t-22 -74.5t-23.5 -81.5t-21 -78.5t-14.5 -65.5q-5 -26 -7 -38.5t0.5 -14.5t10 4t21.5 17q35 28 68 68.5t62 85.5t53.5 90.5t43 83.5t30 65t14.5 34q14 29 25.5 35.5t18 -2
t6 -29t-9.5 -46.5q-13 -35 -36 -86t-54 -107t-69 -112t-79.5 -100.5t-86 -72t-88.5 -27.5q-11 0 -26 5t-29 18.5t-24.5 38t-10.5 62.5q0 8 11 44t27.5 88.5t34 115.5t30 127t17.5 122.5t-5 100.5z" />
    <glyph glyph-name="Ccedilla" unicode="&#xc7;" horiz-adv-x="1245" 
d="M63 951q-92 31 -135 85t-47.5 117t22.5 128.5t74 119.5t107.5 89t122.5 39q56 3 110 -16t106.5 -53.5t104.5 -79.5t105 -92.5t107.5 -94t112 -84t119 -61.5t128.5 -27q45 -2 81.5 18t64 54.5t45 79.5t24.5 93.5t3 96t-21 86.5t-46.5 65.5t-72.5 32.5q-31 4 -75 -14.5
t-95 -58.5t-105.5 -101.5t-106 -143t-96.5 -182t-77 -220t-47.5 -256t-7.5 -290.5q1 -19 3 -55.5t8.5 -78.5t19.5 -85.5t36 -77t58 -51.5t85 -11q58 8 111 38.5t100 75t87.5 99t75 110.5t61 109.5t46 96t30.5 70.5t14 32q4 9 11.5 11.5t14.5 -0.5t11.5 -13t3.5 -27
q0 -5 -11 -40t-32 -88t-52 -119t-71 -133.5t-88.5 -132t-105.5 -114t-121.5 -79t-136.5 -27.5q-66 2 -131 38t-118.5 107.5t-88.5 178.5t-40 252q-6 163 15.5 328.5t67 317.5t112.5 283.5t150.5 228t182 150.5t206.5 51q90 -3 153 -38t101.5 -90.5t54.5 -125.5t12.5 -142.5
t-25.5 -141.5t-59 -123.5t-88 -88t-112 -34.5q-57 -1 -115 20t-117 56.5t-118.5 80t-117.5 89.5t-114.5 87t-110.5 72t-105 43.5t-97 1.5q-57 -14 -97 -47t-64.5 -76.5t-34 -93.5t-5.5 -97q4 -35 15 -68.5t25 -58.5zM645 -173q-4 10 8.5 15t28.5 6t30.5 -3t15.5 -12
l-20 -127q13 -18 22 -36q8 -16 13 -34t2 -33q-7 -29 -19.5 -44.5t-27.5 -22t-30.5 -5.5t-28.5 5t-22 9.5t-10 8.5q-2 4 -4.5 12t-3 15t2 10t10.5 -2q7 -6 18.5 -3.5t22 10t18 17.5t7.5 19q-2 34 -8 53.5t-12.5 29.5t-12 14t-6.5 8q-2 4 -1.5 19.5t1.5 32t3 28.5t3 10z" />
    <glyph glyph-name="Eacute" unicode="&#xc9;" horiz-adv-x="1156" 
d="M76 1149q-70 22 -112 58.5t-60.5 81t-16 94t20.5 98.5t50.5 93.5t73 79.5t87.5 56.5t95 24.5q56 3 101 -12.5t83 -43.5t71.5 -65.5t67.5 -77t70 -78t79.5 -70t96 -52t118.5 -23.5q40 -2 80 12.5t71.5 41t50 64t15.5 81.5q-3 46 -18 73.5t-39 42t-56 19.5t-69 7
q-27 0 -65.5 -17.5t-80.5 -49.5t-84.5 -77t-78.5 -99.5t-62 -117t-34.5 -130t4 -137.5t52.5 -140q-47 23 -90.5 8t-81 -57t-67.5 -105.5t-51 -137.5t-31.5 -153.5t-7.5 -153.5q1 -28 8 -68t23 -83.5t41 -86t61 -77t84.5 -56.5t110.5 -23q76 -1 142 22.5t122 63.5t103 92.5
t84.5 110.5t67 116.5t50.5 110.5t34.5 93t20.5 64q6 18 17 21t20.5 -4t13.5 -22.5t-4 -34.5q-6 -15 -16.5 -53.5t-28 -91t-43.5 -115.5t-64 -127t-88 -125t-116 -110.5t-149 -82.5t-186 -42q-34 -3 -83 5t-103 30t-108.5 59.5t-100 93.5t-78 132.5t-42.5 176.5
q-16 160 24 292.5t122 230t200 156.5t259 72q25 2 51.5 -4t48.5 -22.5t37.5 -46t17.5 -74.5q1 -30 -11 -51.5t-32 -35t-44.5 -19.5t-46.5 -6t-59 15t-76 51t-72 95.5t-47 148.5q-4 24 -5 65t3.5 91t17 106.5t35.5 112.5t59 108t87.5 93.5t121 69.5t160.5 35q76 7 132.5 -11
t94.5 -53.5t57.5 -84.5t22.5 -104q3 -61 -23.5 -110.5t-69.5 -85t-95 -55.5t-100 -21q-57 -1 -106.5 17t-94 47t-85.5 66t-80 74.5t-77 71.5t-77.5 58t-81.5 34t-88 -2q-57 -14 -97 -47.5t-64.5 -77.5t-34 -94t-4.5 -97q4 -38 16.5 -73.5t28.5 -61.5zM1063 2084
q0 -3 11.5 -16t25.5 -28q16 -18 36 -39l-128 -123l-36 54q25 45 45 79q9 15 17 28.5t14.5 24t10.5 16t4 4.5z" />
    <glyph glyph-name="Adieresis" unicode="&#xc4;" horiz-adv-x="1370" 
d="M795 1120q-83 27 -128 68t-63.5 92t-15 109t17.5 118q18 79 64.5 142t118 106t165.5 64.5t208 17.5q71 -3 125.5 -18t96 -37.5t70 -50.5t48.5 -57q46 -68 56 -152l-107 -128q-3 28 -7 57q-3 25 -7.5 54.5t-9.5 58.5q-6 27 -24 64t-50 70.5t-79 57.5t-111 27
q-71 3 -130.5 -21.5t-107 -67t-82.5 -97.5t-57 -113t-31.5 -114t-4.5 -100q10 -108 45 -150zM511 505q8 13 14 41.5t10 77.5q4 55 -12.5 94.5t-44 64.5t-61.5 36t-65 8q-77 -7 -129.5 -57.5t-81.5 -127.5t-35.5 -173t8.5 -193q9 -59 30 -110t52 -88.5t70 -58.5t83 -19
q61 2 127 53t134.5 136t139 197t141 237.5t141 257.5t139 255.5t134.5 232t127 187.5q3 4 8 -7t10 -26q6 -18 13 -42q-97 -137 -179.5 -279t-155 -281t-137 -270.5t-125.5 -248t-120.5 -214t-122 -168t-130 -110.5t-144.5 -41q-75 -1 -138.5 30t-112 87.5t-80.5 135
t-44 172.5q-16 124 8 230t76 187.5t127.5 134t162.5 68.5q56 11 111.5 -4.5t99 -47.5t70 -77t26 -94t-34 -97.5t-109.5 -88.5zM1137 624q5 -54 5 -93q0 -17 -1 -31.5t-3.5 -24.5t-7.5 -12.5t-12 5.5q-33 34 -64 51t-61 20.5t-59.5 -3.5t-59.5 -22q-6 5 -7 15q-1 8 2.5 22.5
t16.5 37.5q10 19 26.5 30.5t36.5 17.5t41.5 7t42.5 0q49 -4 104 -20zM1389 1433q1 0 11 12.5t24 30.5t31.5 38.5t34 35.5t30.5 22t22 -1q12 -13 18 -30.5t8.5 -36.5t1 -39t-4.5 -38q-1 -9 -19.5 -71.5t-47 -161.5t-63 -225.5t-68 -263.5t-62 -275.5t-45 -261.5t-16.5 -221
t23 -155q9 -23 1.5 -37.5t-24.5 -14.5q-6 0 -22 11t-37 32.5t-44.5 55t-44 78t-35 101t-17.5 124.5q-3 51 10 134t36.5 183t54.5 211.5t63.5 219.5t64.5 206.5t57.5 173t41.5 119t17 44.5zM1038 2019q-3 29 8.5 48.5t31.5 19.5t36.5 -19.5t19.5 -48.5q3 -28 -10 -47t-33 -19
t-35 19t-18 47zM1181 2012q-3 27 9 45t32 18t35 -18t18 -45q2 -26 -9.5 -44.5t-31.5 -18.5t-35.5 18.5t-17.5 44.5z" />
    <glyph glyph-name="Aring" unicode="&#xc5;" horiz-adv-x="1370" 
d="M795 1120q-83 27 -128 68t-63.5 92t-15 109t17.5 118q18 79 64.5 142t118 106t165.5 64.5t208 17.5q71 -3 125.5 -18t96 -37.5t70 -50.5t48.5 -57q46 -68 56 -152l-107 -128q-3 28 -7 57q-3 25 -7.5 54.5t-9.5 58.5q-6 27 -24 64t-50 70.5t-79 57.5t-111 27
q-71 3 -130.5 -21.5t-107 -67t-82.5 -97.5t-57 -113t-31.5 -114t-4.5 -100q10 -108 45 -150zM511 505q8 13 14 41.5t10 77.5q4 55 -12.5 94.5t-44 64.5t-61.5 36t-65 8q-77 -7 -129.5 -57.5t-81.5 -127.5t-35.5 -173t8.5 -193q9 -59 30 -110t52 -88.5t70 -58.5t83 -19
q61 2 127 53t134.5 136t139 197t141 237.5t141 257.5t139 255.5t134.5 232t127 187.5q3 4 8 -7t10 -26q6 -18 13 -42q-97 -137 -179.5 -279t-155 -281t-137 -270.5t-125.5 -248t-120.5 -214t-122 -168t-130 -110.5t-144.5 -41q-75 -1 -138.5 30t-112 87.5t-80.5 135
t-44 172.5q-16 124 8 230t76 187.5t127.5 134t162.5 68.5q56 11 111.5 -4.5t99 -47.5t70 -77t26 -94t-34 -97.5t-109.5 -88.5zM1137 624q5 -54 5 -93q0 -17 -1 -31.5t-3.5 -24.5t-7.5 -12.5t-12 5.5q-33 34 -64 51t-61 20.5t-59.5 -3.5t-59.5 -22q-6 5 -7 15q-1 8 2.5 22.5
t16.5 37.5q10 19 26.5 30.5t36.5 17.5t41.5 7t42.5 0q49 -4 104 -20zM1389 1433q1 0 11 12.5t24 30.5t31.5 38.5t34 35.5t30.5 22t22 -1q12 -13 18 -30.5t8.5 -36.5t1 -39t-4.5 -38q-1 -9 -19.5 -71.5t-47 -161.5t-63 -225.5t-68 -263.5t-62 -275.5t-45 -261.5t-16.5 -221
t23 -155q9 -23 1.5 -37.5t-24.5 -14.5q-6 0 -22 11t-37 32.5t-44.5 55t-44 78t-35 101t-17.5 124.5q-3 51 10 134t36.5 183t54.5 211.5t63.5 219.5t64.5 206.5t57.5 173t41.5 119t17 44.5zM1089 2055q-2 24 2.5 45.5t15 37t25.5 25t33 9.5t34.5 -9.5t29.5 -25t22 -37
t11 -45.5q3 -24 -2 -44.5t-15 -36.5t-24.5 -25t-32.5 -9t-34.5 9t-30 25t-22.5 36.5t-12 44.5zM1138 2057q2 -20 14.5 -34t28.5 -14t25.5 14t7.5 34t-14.5 34.5t-28.5 14.5t-25.5 -14.5t-7.5 -34.5z" />
    <glyph glyph-name="aacute" unicode="&#xe1;" horiz-adv-x="641" 
d="M362 706q1 15 11.5 17t25 -6.5t30.5 -25t30 -38t22.5 -46t8.5 -48.5q0 -8 -6.5 -32.5t-16 -59.5t-21.5 -76.5t-23 -82.5t-20.5 -79t-14.5 -66q-11 -52 -3 -58.5t34 15.5q35 28 69.5 70.5t65.5 91t57.5 98t46.5 91t33 70.5t16 36q13 29 24.5 35.5t18 -2t6.5 -29t-10 -46.5
q-13 -35 -37 -88t-57 -112.5t-73 -119.5t-83 -107.5t-88.5 -77.5t-89.5 -30q-11 0 -26.5 5t-29.5 18.5t-24.5 38t-11.5 62.5q0 6 5.5 32t15 64t21 86t24 98t24.5 99t22 90t16.5 71t7.5 42zM-51 232q-3 34 1.5 83t19 102t39 106.5t61 96.5t85 72.5t110.5 34.5q20 2 39 -8.5
t32.5 -34.5t19.5 -61t0 -88q0 -5 -5 -19.5t-11 -27t-10.5 -19t-2.5 4.5q5 32 4 58.5t-6.5 45.5t-14 30t-18.5 12q-24 3 -53 -29.5t-55 -88t-45 -126.5t-23 -144q0 -8 1.5 -28t7 -40t14 -35.5t21.5 -15.5t28.5 19t29.5 42q16 27 31 62l42 -56q-17 -47 -42.5 -77.5t-55 -49
t-59 -25.5t-54.5 -6q-35 3 -59 27t-39 57t-23 68t-10 58zM324 1048q0 -3 11.5 -16t25.5 -28q16 -18 36 -39l-128 -123l-36 54q25 45 45 79q9 15 17 28.5t14.5 24t10.5 16t4 4.5z" />
    <glyph glyph-name="agrave" unicode="&#xe0;" horiz-adv-x="641" 
d="M362 706q1 15 11.5 17t25 -6.5t30.5 -25t30 -38t22.5 -46t8.5 -48.5q0 -8 -6.5 -32.5t-16 -59.5t-21.5 -76.5t-23 -82.5t-20.5 -79t-14.5 -66q-11 -52 -3 -58.5t34 15.5q35 28 69.5 70.5t65.5 91t57.5 98t46.5 91t33 70.5t16 36q13 29 24.5 35.5t18 -2t6.5 -29t-10 -46.5
q-13 -35 -37 -88t-57 -112.5t-73 -119.5t-83 -107.5t-88.5 -77.5t-89.5 -30q-11 0 -26.5 5t-29.5 18.5t-24.5 38t-11.5 62.5q0 6 5.5 32t15 64t21 86t24 98t24.5 99t22 90t16.5 71t7.5 42zM-51 232q-3 34 1.5 83t19 102t39 106.5t61 96.5t85 72.5t110.5 34.5q20 2 39 -8.5
t32.5 -34.5t19.5 -61t0 -88q0 -5 -5 -19.5t-11 -27t-10.5 -19t-2.5 4.5q5 32 4 58.5t-6.5 45.5t-14 30t-18.5 12q-24 3 -53 -29.5t-55 -88t-45 -126.5t-23 -144q0 -8 1.5 -28t7 -40t14 -35.5t21.5 -15.5t28.5 19t29.5 42q16 27 31 62l42 -56q-17 -47 -42.5 -77.5t-55 -49
t-59 -25.5t-54.5 -6q-35 3 -59 27t-39 57t-23 68t-10 58zM321 838l-26 -63l-147 156l56 90z" />
    <glyph glyph-name="acircumflex" unicode="&#xe2;" horiz-adv-x="641" 
d="M362 706q1 15 11.5 17t25 -6.5t30.5 -25t30 -38t22.5 -46t8.5 -48.5q0 -8 -6.5 -32.5t-16 -59.5t-21.5 -76.5t-23 -82.5t-20.5 -79t-14.5 -66q-11 -52 -3 -58.5t34 15.5q35 28 69.5 70.5t65.5 91t57.5 98t46.5 91t33 70.5t16 36q13 29 24.5 35.5t18 -2t6.5 -29t-10 -46.5
q-13 -35 -37 -88t-57 -112.5t-73 -119.5t-83 -107.5t-88.5 -77.5t-89.5 -30q-11 0 -26.5 5t-29.5 18.5t-24.5 38t-11.5 62.5q0 6 5.5 32t15 64t21 86t24 98t24.5 99t22 90t16.5 71t7.5 42zM-51 232q-3 34 1.5 83t19 102t39 106.5t61 96.5t85 72.5t110.5 34.5q20 2 39 -8.5
t32.5 -34.5t19.5 -61t0 -88q0 -5 -5 -19.5t-11 -27t-10.5 -19t-2.5 4.5q5 32 4 58.5t-6.5 45.5t-14 30t-18.5 12q-24 3 -53 -29.5t-55 -88t-45 -126.5t-23 -144q0 -8 1.5 -28t7 -40t14 -35.5t21.5 -15.5t28.5 19t29.5 42q16 27 31 62l42 -56q-17 -47 -42.5 -77.5t-55 -49
t-59 -25.5t-54.5 -6q-35 3 -59 27t-39 57t-23 68t-10 58zM263 1024l3.5 -6.5t10 -17.5t15 -25t17.5 -29q20 -34 47 -77q-10 -28 -19 -50q-8 -19 -15 -34.5t-9 -14.5q-2 2 -16 19.5t-30 38.5q-18 25 -42 55q-16 -25 -30 -45l-24 -34t-17 -22t-10.5 -0.5t-10 12.5t-6 16
t2.5 10q2 1 13 16.5t26 38t32 48.5t31 48.5t23 37.5t8 15z" />
    <glyph glyph-name="adieresis" unicode="&#xe4;" horiz-adv-x="641" 
d="M362 706q1 15 11.5 17t25 -6.5t30.5 -25t30 -38t22.5 -46t8.5 -48.5q0 -8 -6.5 -32.5t-16 -59.5t-21.5 -76.5t-23 -82.5t-20.5 -79t-14.5 -66q-11 -52 -3 -58.5t34 15.5q35 28 69.5 70.5t65.5 91t57.5 98t46.5 91t33 70.5t16 36q13 29 24.5 35.5t18 -2t6.5 -29t-10 -46.5
q-13 -35 -37 -88t-57 -112.5t-73 -119.5t-83 -107.5t-88.5 -77.5t-89.5 -30q-11 0 -26.5 5t-29.5 18.5t-24.5 38t-11.5 62.5q0 6 5.5 32t15 64t21 86t24 98t24.5 99t22 90t16.5 71t7.5 42zM-51 232q-3 34 1.5 83t19 102t39 106.5t61 96.5t85 72.5t110.5 34.5q20 2 39 -8.5
t32.5 -34.5t19.5 -61t0 -88q0 -5 -5 -19.5t-11 -27t-10.5 -19t-2.5 4.5q5 32 4 58.5t-6.5 45.5t-14 30t-18.5 12q-24 3 -53 -29.5t-55 -88t-45 -126.5t-23 -144q0 -8 1.5 -28t7 -40t14 -35.5t21.5 -15.5t28.5 19t29.5 42q16 27 31 62l42 -56q-17 -47 -42.5 -77.5t-55 -49
t-59 -25.5t-54.5 -6q-35 3 -59 27t-39 57t-23 68t-10 58zM120 845q-3 29 8.5 48.5t31.5 19.5t36.5 -19.5t19.5 -48.5q3 -28 -10 -47t-33 -19t-35 19t-18 47zM263 838q-3 27 9 45t32 18t35 -18t18 -45q2 -26 -9.5 -44.5t-31.5 -18.5t-35.5 18.5t-17.5 44.5z" />
    <glyph glyph-name="atilde" unicode="&#xe3;" horiz-adv-x="641" 
d="M362 706q1 15 11.5 17t25 -6.5t30.5 -25t30 -38t22.5 -46t8.5 -48.5q0 -8 -6.5 -32.5t-16 -59.5t-21.5 -76.5t-23 -82.5t-20.5 -79t-14.5 -66q-11 -52 -3 -58.5t34 15.5q35 28 69.5 70.5t65.5 91t57.5 98t46.5 91t33 70.5t16 36q13 29 24.5 35.5t18 -2t6.5 -29t-10 -46.5
q-13 -35 -37 -88t-57 -112.5t-73 -119.5t-83 -107.5t-88.5 -77.5t-89.5 -30q-11 0 -26.5 5t-29.5 18.5t-24.5 38t-11.5 62.5q0 6 5.5 32t15 64t21 86t24 98t24.5 99t22 90t16.5 71t7.5 42zM-51 232q-3 34 1.5 83t19 102t39 106.5t61 96.5t85 72.5t110.5 34.5q20 2 39 -8.5
t32.5 -34.5t19.5 -61t0 -88q0 -5 -5 -19.5t-11 -27t-10.5 -19t-2.5 4.5q5 32 4 58.5t-6.5 45.5t-14 30t-18.5 12q-24 3 -53 -29.5t-55 -88t-45 -126.5t-23 -144q0 -8 1.5 -28t7 -40t14 -35.5t21.5 -15.5t28.5 19t29.5 42q16 27 31 62l42 -56q-17 -47 -42.5 -77.5t-55 -49
t-59 -25.5t-54.5 -6q-35 3 -59 27t-39 57t-23 68t-10 58zM184 950q10 0 22 -8t25.5 -17.5t28.5 -17t32 -6.5q12 2 20.5 9.5t14 16.5t9.5 17.5t7 13.5q4 4 8 2t7.5 -8t6 -13.5t2.5 -14.5q1 -7 -3 -26t-12.5 -39t-22.5 -36.5t-33 -17.5q-10 -1 -23.5 4t-29.5 11.5t-32.5 12
t-32.5 6t-29.5 -7t-23.5 -26.5q-3 -7 -6 -7.5t-5.5 3.5t-4.5 10l-4 12t3 26.5t15.5 43t25.5 40t35 17.5z" />
    <glyph glyph-name="aring" unicode="&#xe5;" horiz-adv-x="641" 
d="M362 706q1 15 11.5 17t25 -6.5t30.5 -25t30 -38t22.5 -46t8.5 -48.5q0 -8 -6.5 -32.5t-16 -59.5t-21.5 -76.5t-23 -82.5t-20.5 -79t-14.5 -66q-11 -52 -3 -58.5t34 15.5q35 28 69.5 70.5t65.5 91t57.5 98t46.5 91t33 70.5t16 36q13 29 24.5 35.5t18 -2t6.5 -29t-10 -46.5
q-13 -35 -37 -88t-57 -112.5t-73 -119.5t-83 -107.5t-88.5 -77.5t-89.5 -30q-11 0 -26.5 5t-29.5 18.5t-24.5 38t-11.5 62.5q0 6 5.5 32t15 64t21 86t24 98t24.5 99t22 90t16.5 71t7.5 42zM-51 232q-3 34 1.5 83t19 102t39 106.5t61 96.5t85 72.5t110.5 34.5q20 2 39 -8.5
t32.5 -34.5t19.5 -61t0 -88q0 -5 -5 -19.5t-11 -27t-10.5 -19t-2.5 4.5q5 32 4 58.5t-6.5 45.5t-14 30t-18.5 12q-24 3 -53 -29.5t-55 -88t-45 -126.5t-23 -144q0 -8 1.5 -28t7 -40t14 -35.5t21.5 -15.5t28.5 19t29.5 42q16 27 31 62l42 -56q-17 -47 -42.5 -77.5t-55 -49
t-59 -25.5t-54.5 -6q-35 3 -59 27t-39 57t-23 68t-10 58zM148 872q-2 24 2.5 45.5t15 37t25.5 25t33 9.5t34.5 -9.5t29.5 -25t22 -37t11 -45.5q3 -24 -2 -44.5t-15 -36.5t-24.5 -25t-32.5 -9t-34.5 9t-30 25t-22.5 36.5t-12 44.5zM197 874q2 -20 14.5 -34t28.5 -14t25.5 14
t7.5 34t-14.5 34.5t-28.5 14.5t-25.5 -14.5t-7.5 -34.5z" />
    <glyph glyph-name="ccedilla" unicode="&#xe7;" horiz-adv-x="545" 
d="M304 415q-8 -9 -18.5 -8t-18.5 9t-10.5 20.5t5.5 26.5q23 30 37.5 60t17.5 53q4 21 -2.5 35.5t-23.5 14.5q-12 0 -29.5 -19.5t-37 -52.5t-39 -77.5t-35 -94.5t-25 -103.5t-9.5 -103.5q0 -25 4 -49.5t12 -43t20 -29.5t28 -9q24 4 51.5 22t55 45t55 62t53.5 74
q27 42 51.5 85t44.5 83t36 74.5t27 57.5q13 29 24.5 35.5t18 -2t6.5 -29t-10 -46.5q-16 -47 -42.5 -105t-60.5 -117t-74.5 -114t-83.5 -97.5t-87.5 -67t-86.5 -21.5q-63 4 -105 30t-67.5 64t-37 82t-14.5 85q-6 94 19 178t69.5 147.5t101.5 102t116 40.5q49 2 75.5 -13
t38.5 -37.5t13.5 -48t0.5 -43.5q-3 -48 -20.5 -86t-43.5 -69zM80 20q-4 10 8.5 15t28.5 6t30.5 -3t15.5 -12l-20 -127q13 -18 22 -36q8 -16 13 -34t2 -33q-7 -29 -19.5 -44.5t-27.5 -22t-30.5 -5.5t-28.5 5t-22 9.5t-10 8.5q-2 4 -4.5 12t-3 15t2 10t10.5 -2q7 -6 18.5 -3.5
t22 10t18 17.5t7.5 19q-2 34 -8 53.5t-12.5 29.5t-12 14t-6.5 8q-2 4 -1.5 19.5t1.5 32t3 28.5t3 10z" />
    <glyph glyph-name="eacute" unicode="&#xe9;" horiz-adv-x="486" 
d="M599 564q-16 -47 -44 -109t-65 -127.5t-80.5 -129t-89.5 -112t-92.5 -77.5t-88.5 -26q-63 4 -105.5 30t-68 64t-37 82t-13.5 85q-6 94 19 179.5t70 151.5t102.5 105.5t116.5 41.5q48 2 74.5 -13t39 -37t14 -47t0.5 -43q-3 -39 -16 -73t-32.5 -62.5t-43 -52t-47.5 -41.5
q-56 -43 -126 -71q-28 30 -40 51q-5 9 -7.5 17t0.5 13t12 6.5t27 -2.5q33 -8 70 14t69.5 57.5t55.5 77t27 72.5q2 9 1 19t-4 17.5t-9 11.5t-14 2q-14 -4 -33 -26t-38.5 -56.5t-38.5 -79.5t-34 -95t-24.5 -103t-9.5 -103q1 -50 13.5 -78.5t44.5 -23.5q24 4 52 17.5t57 35
t57.5 52t54.5 69.5q28 42 56.5 94t53.5 103t44.5 94.5t29.5 67.5q14 29 25.5 35.5t18 -2.5t6.5 -29.5t-10 -45.5zM168 978q0 -3 11.5 -16t25.5 -28q16 -18 36 -39l-128 -123l-36 54q25 45 45 79q9 15 17 28.5t14.5 24t10.5 16t4 4.5z" />
    <glyph glyph-name="egrave" unicode="&#xe8;" horiz-adv-x="486" 
d="M599 564q-16 -47 -44 -109t-65 -127.5t-80.5 -129t-89.5 -112t-92.5 -77.5t-88.5 -26q-63 4 -105.5 30t-68 64t-37 82t-13.5 85q-6 94 19 179.5t70 151.5t102.5 105.5t116.5 41.5q48 2 74.5 -13t39 -37t14 -47t0.5 -43q-3 -39 -16 -73t-32.5 -62.5t-43 -52t-47.5 -41.5
q-56 -43 -126 -71q-28 30 -40 51q-5 9 -7.5 17t0.5 13t12 6.5t27 -2.5q33 -8 70 14t69.5 57.5t55.5 77t27 72.5q2 9 1 19t-4 17.5t-9 11.5t-14 2q-14 -4 -33 -26t-38.5 -56.5t-38.5 -79.5t-34 -95t-24.5 -103t-9.5 -103q1 -50 13.5 -78.5t44.5 -23.5q24 4 52 17.5t57 35
t57.5 52t54.5 69.5q28 42 56.5 94t53.5 103t44.5 94.5t29.5 67.5q14 29 25.5 35.5t18 -2.5t6.5 -29.5t-10 -45.5zM244 838l-26 -63l-147 156l56 90z" />
    <glyph glyph-name="ecircumflex" unicode="&#xea;" horiz-adv-x="486" 
d="M599 564q-16 -47 -44 -109t-65 -127.5t-80.5 -129t-89.5 -112t-92.5 -77.5t-88.5 -26q-63 4 -105.5 30t-68 64t-37 82t-13.5 85q-6 94 19 179.5t70 151.5t102.5 105.5t116.5 41.5q48 2 74.5 -13t39 -37t14 -47t0.5 -43q-3 -39 -16 -73t-32.5 -62.5t-43 -52t-47.5 -41.5
q-56 -43 -126 -71q-28 30 -40 51q-5 9 -7.5 17t0.5 13t12 6.5t27 -2.5q33 -8 70 14t69.5 57.5t55.5 77t27 72.5q2 9 1 19t-4 17.5t-9 11.5t-14 2q-14 -4 -33 -26t-38.5 -56.5t-38.5 -79.5t-34 -95t-24.5 -103t-9.5 -103q1 -50 13.5 -78.5t44.5 -23.5q24 4 52 17.5t57 35
t57.5 52t54.5 69.5q28 42 56.5 94t53.5 103t44.5 94.5t29.5 67.5q14 29 25.5 35.5t18 -2.5t6.5 -29.5t-10 -45.5zM186 1024l3.5 -6.5t10 -17.5t15 -25t17.5 -29q20 -34 47 -77q-10 -28 -19 -50q-8 -19 -15 -34.5t-9 -14.5q-2 2 -16 19.5t-30 38.5q-18 25 -42 55
q-16 -25 -30 -45l-24 -34t-17 -22t-10.5 -0.5t-10 12.5t-6 16t2.5 10q2 1 13 16.5t26 38t32 48.5t31 48.5t23 37.5t8 15z" />
    <glyph glyph-name="edieresis" unicode="&#xeb;" horiz-adv-x="486" 
d="M599 564q-16 -47 -44 -109t-65 -127.5t-80.5 -129t-89.5 -112t-92.5 -77.5t-88.5 -26q-63 4 -105.5 30t-68 64t-37 82t-13.5 85q-6 94 19 179.5t70 151.5t102.5 105.5t116.5 41.5q48 2 74.5 -13t39 -37t14 -47t0.5 -43q-3 -39 -16 -73t-32.5 -62.5t-43 -52t-47.5 -41.5
q-56 -43 -126 -71q-28 30 -40 51q-5 9 -7.5 17t0.5 13t12 6.5t27 -2.5q33 -8 70 14t69.5 57.5t55.5 77t27 72.5q2 9 1 19t-4 17.5t-9 11.5t-14 2q-14 -4 -33 -26t-38.5 -56.5t-38.5 -79.5t-34 -95t-24.5 -103t-9.5 -103q1 -50 13.5 -78.5t44.5 -23.5q24 4 52 17.5t57 35
t57.5 52t54.5 69.5q28 42 56.5 94t53.5 103t44.5 94.5t29.5 67.5q14 29 25.5 35.5t18 -2.5t6.5 -29.5t-10 -45.5zM43 845q-3 29 8.5 48.5t31.5 19.5t36.5 -19.5t19.5 -48.5q3 -28 -10 -47t-33 -19t-35 19t-18 47zM186 838q-3 27 9 45t32 18t35 -18t18 -45q2 -26 -9.5 -44.5
t-31.5 -18.5t-35.5 18.5t-17.5 44.5z" />
    <glyph glyph-name="iacute" unicode="&#xed;" horiz-adv-x="350" 
d="M66 722q-4 16 6.5 15.5t28 -12t38.5 -32.5t39.5 -46.5t30.5 -53t12 -51.5q0 -8 -6 -32t-16 -58t-22 -74.5t-23.5 -81.5t-21 -78.5t-14.5 -65.5q-5 -26 -7 -38.5t0.5 -14.5t10 4t21.5 17q35 28 68 68.5t62 85.5t53.5 90.5t43 83.5t30 65t14.5 34q14 29 25.5 35.5t18 -2
t6 -29t-9.5 -46.5q-13 -35 -36 -86t-54 -107t-69 -112t-79.5 -100.5t-86 -72t-88.5 -27.5q-11 0 -26 5t-29 18.5t-24.5 38t-10.5 62.5q0 8 11 44t27.5 88.5t34 115.5t30 127t17.5 122.5t-5 100.5zM198 1022q0 -3 11.5 -16t25.5 -28q16 -18 36 -39l-128 -123l-36 54
q25 45 45 79q9 15 17 28.5t14.5 24t10.5 16t4 4.5z" />
    <glyph glyph-name="igrave" unicode="&#xec;" horiz-adv-x="350" 
d="M66 722q-4 16 6.5 15.5t28 -12t38.5 -32.5t39.5 -46.5t30.5 -53t12 -51.5q0 -8 -6 -32t-16 -58t-22 -74.5t-23.5 -81.5t-21 -78.5t-14.5 -65.5q-5 -26 -7 -38.5t0.5 -14.5t10 4t21.5 17q35 28 68 68.5t62 85.5t53.5 90.5t43 83.5t30 65t14.5 34q14 29 25.5 35.5t18 -2
t6 -29t-9.5 -46.5q-13 -35 -36 -86t-54 -107t-69 -112t-79.5 -100.5t-86 -72t-88.5 -27.5q-11 0 -26 5t-29 18.5t-24.5 38t-10.5 62.5q0 8 11 44t27.5 88.5t34 115.5t30 127t17.5 122.5t-5 100.5zM175 838l-26 -63l-147 156l56 90z" />
    <glyph glyph-name="icircumflex" unicode="&#xee;" horiz-adv-x="350" 
d="M66 722q-4 16 6.5 15.5t28 -12t38.5 -32.5t39.5 -46.5t30.5 -53t12 -51.5q0 -8 -6 -32t-16 -58t-22 -74.5t-23.5 -81.5t-21 -78.5t-14.5 -65.5q-5 -26 -7 -38.5t0.5 -14.5t10 4t21.5 17q35 28 68 68.5t62 85.5t53.5 90.5t43 83.5t30 65t14.5 34q14 29 25.5 35.5t18 -2
t6 -29t-9.5 -46.5q-13 -35 -36 -86t-54 -107t-69 -112t-79.5 -100.5t-86 -72t-88.5 -27.5q-11 0 -26 5t-29 18.5t-24.5 38t-10.5 62.5q0 8 11 44t27.5 88.5t34 115.5t30 127t17.5 122.5t-5 100.5zM171 1046l3.5 -6.5t10 -17.5t15 -25t17.5 -29q20 -34 47 -77
q-10 -28 -19 -50q-8 -19 -15 -34.5t-9 -14.5q-2 2 -16 19.5t-30 38.5q-18 25 -42 55q-16 -25 -30 -45l-24 -34t-17 -22t-10.5 -0.5t-10 12.5t-6 16t2.5 10q2 1 13 16.5t26 38t32 48.5t31 48.5t23 37.5t8 15z" />
    <glyph glyph-name="idieresis" unicode="&#xef;" horiz-adv-x="350" 
d="M66 722q-4 16 6.5 15.5t28 -12t38.5 -32.5t39.5 -46.5t30.5 -53t12 -51.5q0 -8 -6 -32t-16 -58t-22 -74.5t-23.5 -81.5t-21 -78.5t-14.5 -65.5q-5 -26 -7 -38.5t0.5 -14.5t10 4t21.5 17q35 28 68 68.5t62 85.5t53.5 90.5t43 83.5t30 65t14.5 34q14 29 25.5 35.5t18 -2
t6 -29t-9.5 -46.5q-13 -35 -36 -86t-54 -107t-69 -112t-79.5 -100.5t-86 -72t-88.5 -27.5q-11 0 -26 5t-29 18.5t-24.5 38t-10.5 62.5q0 8 11 44t27.5 88.5t34 115.5t30 127t17.5 122.5t-5 100.5zM36 868q-3 29 8.5 48.5t31.5 19.5t36.5 -19.5t19.5 -48.5q3 -28 -10 -47
t-33 -19t-35 19t-18 47zM179 861q-3 27 9 45t32 18t35 -18t18 -45q2 -26 -9.5 -44.5t-31.5 -18.5t-35.5 18.5t-17.5 44.5z" />
    <glyph glyph-name="ntilde" unicode="&#xf1;" horiz-adv-x="739" 
d="M157 764q48 -2 78 -39t29 -106q0 -50 -12.5 -101.5t-30 -102t-36.5 -99.5t-32 -94.5t-16 -87t11 -75.5q4 -9 -4 -22t-24 -24t-37 -18.5t-44 -4.5q-22 3 -44 16.5t-38 37t-22 55.5t4 71q14 61 32.5 116.5l35.5 106.5t30.5 96.5t18.5 86.5q4 32 -1 57.5t-22 40.5
q-9 8 -9.5 17.5t2.5 17.5t7 13.5t5 7.5q2 1 10 7.5t22.5 12.5t36 10.5t50.5 3.5zM445 130q-5 -27 4.5 -27.5t32.5 17.5q39 28 76.5 70.5t71.5 91t63 98t51 91t36 70.5t17 36q13 29 24.5 35.5t18 -2t6.5 -29t-9 -46.5q-11 -31 -34 -78.5t-54.5 -102t-69.5 -111.5
t-79.5 -106.5t-84.5 -86.5t-85 -52q-24 -9 -52.5 -1.5t-52 28t-37.5 51t-9 67.5q6 49 15 92.5t20.5 85.5t24 85.5t24.5 92.5q10 45 9 64.5t-10 21t-23.5 -12t-31.5 -34.5q-40 -49 -98 -142q3 29 7 52q3 20 5.5 37t4.5 19q10 21 25.5 48t36 53t44.5 49t51 36.5t56.5 14.5
t60.5 -16q28 -16 40 -48.5t13.5 -70t-5 -74t-16.5 -58.5q-15 -32 -29 -70.5t-26 -79t-20.5 -81t-11.5 -77.5zM262 973q10 0 22 -8t25.5 -17.5t28.5 -17t32 -6.5q12 2 20.5 9.5t14 16.5t9.5 17.5t7 13.5q4 4 8 2t7.5 -8t6 -13.5t2.5 -14.5q1 -7 -3 -26t-12.5 -39t-22.5 -36.5
t-33 -17.5q-10 -1 -23.5 4t-29.5 11.5t-32.5 12t-32.5 6t-29.5 -7t-23.5 -26.5q-3 -7 -6 -7.5t-5.5 3.5t-4.5 10l-4 12t3 26.5t15.5 43t25.5 40t35 17.5z" />
    <glyph glyph-name="oacute" unicode="&#xf3;" horiz-adv-x="592" 
d="M247 712q49 1 81 -7t50 -19t24 -23t5 -20q-2 -6 -7 -7.5t-13.5 -2t-20 -2.5t-24.5 -11q-44 9 -79 -14t-61.5 -63.5t-45.5 -92t-31 -100t-17.5 -87.5t-4.5 -54q2 -64 20 -87t45 -16.5t58.5 37t60.5 72.5q23 33 38 75t24 80.5t13 68.5t6 41q1 12 8 13.5t15.5 -4.5t16 -19
t10.5 -30q2 -11 -4.5 -48t-22 -86.5t-39.5 -105t-57.5 -103t-76.5 -81t-95 -38.5q-22 -3 -53 5.5t-61 31t-55 62t-35 98.5q-9 52 -5 111.5t20 118.5t43.5 114t67 97.5t90 68t112.5 27.5zM387 791q15 15 35.5 20.5t37 -4.5t26 -39t3.5 -84q-1 -8 -8.5 -28t-17.5 -43t-19 -45
t-12 -33q-9 -29 -6 -48.5t15 -30.5t31 -13.5t40 2.5q22 6 47.5 28.5t48.5 47t40 44.5t22 23q14 8 27.5 4t21 -15.5t7.5 -27.5t-13 -31q-11 -11 -36.5 -37t-56.5 -53.5t-62 -49t-53 -23.5q-33 -3 -62.5 2.5t-53 24t-40.5 51.5t-25 85q-7 49 -4.5 91t12 76.5t24 61t31.5 44.5z
M306 1069q0 -3 11.5 -16t25.5 -28q16 -18 36 -39l-128 -123l-36 54q25 45 45 79q9 15 17 28.5t14.5 24t10.5 16t4 4.5z" />
    <glyph glyph-name="ograve" unicode="&#xf2;" horiz-adv-x="592" 
d="M247 712q49 1 81 -7t50 -19t24 -23t5 -20q-2 -6 -7 -7.5t-13.5 -2t-20 -2.5t-24.5 -11q-44 9 -79 -14t-61.5 -63.5t-45.5 -92t-31 -100t-17.5 -87.5t-4.5 -54q2 -64 20 -87t45 -16.5t58.5 37t60.5 72.5q23 33 38 75t24 80.5t13 68.5t6 41q1 12 8 13.5t15.5 -4.5t16 -19
t10.5 -30q2 -11 -4.5 -48t-22 -86.5t-39.5 -105t-57.5 -103t-76.5 -81t-95 -38.5q-22 -3 -53 5.5t-61 31t-55 62t-35 98.5q-9 52 -5 111.5t20 118.5t43.5 114t67 97.5t90 68t112.5 27.5zM387 791q15 15 35.5 20.5t37 -4.5t26 -39t3.5 -84q-1 -8 -8.5 -28t-17.5 -43t-19 -45
t-12 -33q-9 -29 -6 -48.5t15 -30.5t31 -13.5t40 2.5q22 6 47.5 28.5t48.5 47t40 44.5t22 23q14 8 27.5 4t21 -15.5t7.5 -27.5t-13 -31q-11 -11 -36.5 -37t-56.5 -53.5t-62 -49t-53 -23.5q-33 -3 -62.5 2.5t-53 24t-40.5 51.5t-25 85q-7 49 -4.5 91t12 76.5t24 61t31.5 44.5z
M290 894l-26 -63l-147 156l56 90z" />
    <glyph glyph-name="ocircumflex" unicode="&#xf4;" horiz-adv-x="592" 
d="M247 712q49 1 81 -7t50 -19t24 -23t5 -20q-2 -6 -7 -7.5t-13.5 -2t-20 -2.5t-24.5 -11q-44 9 -79 -14t-61.5 -63.5t-45.5 -92t-31 -100t-17.5 -87.5t-4.5 -54q2 -64 20 -87t45 -16.5t58.5 37t60.5 72.5q23 33 38 75t24 80.5t13 68.5t6 41q1 12 8 13.5t15.5 -4.5t16 -19
t10.5 -30q2 -11 -4.5 -48t-22 -86.5t-39.5 -105t-57.5 -103t-76.5 -81t-95 -38.5q-22 -3 -53 5.5t-61 31t-55 62t-35 98.5q-9 52 -5 111.5t20 118.5t43.5 114t67 97.5t90 68t112.5 27.5zM387 791q15 15 35.5 20.5t37 -4.5t26 -39t3.5 -84q-1 -8 -8.5 -28t-17.5 -43t-19 -45
t-12 -33q-9 -29 -6 -48.5t15 -30.5t31 -13.5t40 2.5q22 6 47.5 28.5t48.5 47t40 44.5t22 23q14 8 27.5 4t21 -15.5t7.5 -27.5t-13 -31q-11 -11 -36.5 -37t-56.5 -53.5t-62 -49t-53 -23.5q-33 -3 -62.5 2.5t-53 24t-40.5 51.5t-25 85q-7 49 -4.5 91t12 76.5t24 61t31.5 44.5z
M257 1068l3.5 -6.5t10 -17.5t15 -25t17.5 -29q20 -34 47 -77q-10 -28 -19 -50q-8 -19 -15 -34.5t-9 -14.5q-2 2 -16 19.5t-30 38.5q-18 25 -42 55q-16 -25 -30 -45l-24 -34t-17 -22t-10.5 -0.5t-10 12.5t-6 16t2.5 10q2 1 13 16.5t26 38t32 48.5t31 48.5t23 37.5t8 15z" />
    <glyph glyph-name="odieresis" unicode="&#xf6;" horiz-adv-x="592" 
d="M247 712q49 1 81 -7t50 -19t24 -23t5 -20q-2 -6 -7 -7.5t-13.5 -2t-20 -2.5t-24.5 -11q-44 9 -79 -14t-61.5 -63.5t-45.5 -92t-31 -100t-17.5 -87.5t-4.5 -54q2 -64 20 -87t45 -16.5t58.5 37t60.5 72.5q23 33 38 75t24 80.5t13 68.5t6 41q1 12 8 13.5t15.5 -4.5t16 -19
t10.5 -30q2 -11 -4.5 -48t-22 -86.5t-39.5 -105t-57.5 -103t-76.5 -81t-95 -38.5q-22 -3 -53 5.5t-61 31t-55 62t-35 98.5q-9 52 -5 111.5t20 118.5t43.5 114t67 97.5t90 68t112.5 27.5zM387 791q15 15 35.5 20.5t37 -4.5t26 -39t3.5 -84q-1 -8 -8.5 -28t-17.5 -43t-19 -45
t-12 -33q-9 -29 -6 -48.5t15 -30.5t31 -13.5t40 2.5q22 6 47.5 28.5t48.5 47t40 44.5t22 23q14 8 27.5 4t21 -15.5t7.5 -27.5t-13 -31q-11 -11 -36.5 -37t-56.5 -53.5t-62 -49t-53 -23.5q-33 -3 -62.5 2.5t-53 24t-40.5 51.5t-25 85q-7 49 -4.5 91t12 76.5t24 61t31.5 44.5z
M113 924q-3 29 8.5 48.5t31.5 19.5t36.5 -19.5t19.5 -48.5q3 -28 -10 -47t-33 -19t-35 19t-18 47zM256 917q-3 27 9 45t32 18t35 -18t18 -45q2 -26 -9.5 -44.5t-31.5 -18.5t-35.5 18.5t-17.5 44.5z" />
    <glyph glyph-name="otilde" unicode="&#xf5;" horiz-adv-x="592" 
d="M247 712q49 1 81 -7t50 -19t24 -23t5 -20q-2 -6 -7 -7.5t-13.5 -2t-20 -2.5t-24.5 -11q-44 9 -79 -14t-61.5 -63.5t-45.5 -92t-31 -100t-17.5 -87.5t-4.5 -54q2 -64 20 -87t45 -16.5t58.5 37t60.5 72.5q23 33 38 75t24 80.5t13 68.5t6 41q1 12 8 13.5t15.5 -4.5t16 -19
t10.5 -30q2 -11 -4.5 -48t-22 -86.5t-39.5 -105t-57.5 -103t-76.5 -81t-95 -38.5q-22 -3 -53 5.5t-61 31t-55 62t-35 98.5q-9 52 -5 111.5t20 118.5t43.5 114t67 97.5t90 68t112.5 27.5zM387 791q15 15 35.5 20.5t37 -4.5t26 -39t3.5 -84q-1 -8 -8.5 -28t-17.5 -43t-19 -45
t-12 -33q-9 -29 -6 -48.5t15 -30.5t31 -13.5t40 2.5q22 6 47.5 28.5t48.5 47t40 44.5t22 23q14 8 27.5 4t21 -15.5t7.5 -27.5t-13 -31q-11 -11 -36.5 -37t-56.5 -53.5t-62 -49t-53 -23.5q-33 -3 -62.5 2.5t-53 24t-40.5 51.5t-25 85q-7 49 -4.5 91t12 76.5t24 61t31.5 44.5z
M213 973q10 0 22 -8t25.5 -17.5t28.5 -17t32 -6.5q12 2 20.5 9.5t14 16.5t9.5 17.5t7 13.5q4 4 8 2t7.5 -8t6 -13.5t2.5 -14.5q1 -7 -3 -26t-12.5 -39t-22.5 -36.5t-33 -17.5q-10 -1 -23.5 4t-29.5 11.5t-32.5 12t-32.5 6t-29.5 -7t-23.5 -26.5q-3 -7 -6 -7.5t-5.5 3.5
t-4.5 10l-4 12t3 26.5t15.5 43t25.5 40t35 17.5z" />
    <glyph glyph-name="uacute" unicode="&#xfa;" horiz-adv-x="700" 
d="M438 712q2 16 12 18t24.5 -6.5t30.5 -25.5t30 -38.5t22.5 -46.5t8.5 -49q0 -8 -6.5 -32.5t-16 -59t-21.5 -75.5t-23 -82.5t-20.5 -79t-14.5 -65.5q-5 -26 -5.5 -40.5t3 -19t12 -0.5t21.5 15q35 28 68.5 69t62.5 86t53.5 91t43 84t30 64.5t15.5 33.5q13 28 24.5 34.5
t17.5 -2t6 -28.5t-10 -45q-13 -35 -36 -86t-54 -107.5t-68.5 -112t-79.5 -100t-86 -72.5t-88 -28q-11 0 -26 5t-29.5 19t-24.5 38t-11 62q0 6 5.5 32t14.5 64t21 86l24.5 98t24.5 99t21.5 90t16 71t7.5 42zM86 706q2 23 22.5 16.5t44 -31t42.5 -60.5t18 -72q0 -8 -3.5 -34
t-9.5 -62.5t-13 -80.5t-15 -87t-15 -82.5t-12 -67.5q-10 -51 -2.5 -58t35.5 15q35 28 65.5 70t55.5 89t45 95t34.5 88t23.5 68t12 35q14 29 25.5 35.5t18 -2t6 -29t-9.5 -46.5q-13 -35 -33.5 -87.5t-48 -110.5t-60.5 -115.5t-71 -104t-80 -75.5t-86 -29q-11 0 -26 5
t-29 18.5t-24 38t-10 62.5q0 8 7 51t17.5 104.5t23 132.5t24 135t19 112t9.5 64zM362 966q0 -3 11.5 -16t25.5 -28q16 -18 36 -39l-128 -123l-36 54q25 45 45 79q9 15 17 28.5t14.5 24t10.5 16t4 4.5z" />
    <glyph glyph-name="ugrave" unicode="&#xf9;" horiz-adv-x="700" 
d="M438 712q2 16 12 18t24.5 -6.5t30.5 -25.5t30 -38.5t22.5 -46.5t8.5 -49q0 -8 -6.5 -32.5t-16 -59t-21.5 -75.5t-23 -82.5t-20.5 -79t-14.5 -65.5q-5 -26 -5.5 -40.5t3 -19t12 -0.5t21.5 15q35 28 68.5 69t62.5 86t53.5 91t43 84t30 64.5t15.5 33.5q13 28 24.5 34.5
t17.5 -2t6 -28.5t-10 -45q-13 -35 -36 -86t-54 -107.5t-68.5 -112t-79.5 -100t-86 -72.5t-88 -28q-11 0 -26 5t-29.5 19t-24.5 38t-11 62q0 6 5.5 32t14.5 64t21 86l24.5 98t24.5 99t21.5 90t16 71t7.5 42zM86 706q2 23 22.5 16.5t44 -31t42.5 -60.5t18 -72q0 -8 -3.5 -34
t-9.5 -62.5t-13 -80.5t-15 -87t-15 -82.5t-12 -67.5q-10 -51 -2.5 -58t35.5 15q35 28 65.5 70t55.5 89t45 95t34.5 88t23.5 68t12 35q14 29 25.5 35.5t18 -2t6 -29t-9.5 -46.5q-13 -35 -33.5 -87.5t-48 -110.5t-60.5 -115.5t-71 -104t-80 -75.5t-86 -29q-11 0 -26 5
t-29 18.5t-24 38t-10 62.5q0 8 7 51t17.5 104.5t23 132.5t24 135t19 112t9.5 64zM350 838l-26 -63l-147 156l56 90z" />
    <glyph glyph-name="ucircumflex" unicode="&#xfb;" horiz-adv-x="700" 
d="M438 712q2 16 12 18t24.5 -6.5t30.5 -25.5t30 -38.5t22.5 -46.5t8.5 -49q0 -8 -6.5 -32.5t-16 -59t-21.5 -75.5t-23 -82.5t-20.5 -79t-14.5 -65.5q-5 -26 -5.5 -40.5t3 -19t12 -0.5t21.5 15q35 28 68.5 69t62.5 86t53.5 91t43 84t30 64.5t15.5 33.5q13 28 24.5 34.5
t17.5 -2t6 -28.5t-10 -45q-13 -35 -36 -86t-54 -107.5t-68.5 -112t-79.5 -100t-86 -72.5t-88 -28q-11 0 -26 5t-29.5 19t-24.5 38t-11 62q0 6 5.5 32t14.5 64t21 86l24.5 98t24.5 99t21.5 90t16 71t7.5 42zM86 706q2 23 22.5 16.5t44 -31t42.5 -60.5t18 -72q0 -8 -3.5 -34
t-9.5 -62.5t-13 -80.5t-15 -87t-15 -82.5t-12 -67.5q-10 -51 -2.5 -58t35.5 15q35 28 65.5 70t55.5 89t45 95t34.5 88t23.5 68t12 35q14 29 25.5 35.5t18 -2t6 -29t-9.5 -46.5q-13 -35 -33.5 -87.5t-48 -110.5t-60.5 -115.5t-71 -104t-80 -75.5t-86 -29q-11 0 -26 5
t-29 18.5t-24 38t-10 62.5q0 8 7 51t17.5 104.5t23 132.5t24 135t19 112t9.5 64zM292 1024l3.5 -6.5t10 -17.5t15 -25t17.5 -29q20 -34 47 -77q-10 -28 -19 -50q-8 -19 -15 -34.5t-9 -14.5q-2 2 -16 19.5t-30 38.5q-18 25 -42 55q-16 -25 -30 -45l-24 -34t-17 -22
t-10.5 -0.5t-10 12.5t-6 16t2.5 10q2 1 13 16.5t26 38t32 48.5t31 48.5t23 37.5t8 15z" />
    <glyph glyph-name="udieresis" unicode="&#xfc;" horiz-adv-x="700" 
d="M438 712q2 16 12 18t24.5 -6.5t30.5 -25.5t30 -38.5t22.5 -46.5t8.5 -49q0 -8 -6.5 -32.5t-16 -59t-21.5 -75.5t-23 -82.5t-20.5 -79t-14.5 -65.5q-5 -26 -5.5 -40.5t3 -19t12 -0.5t21.5 15q35 28 68.5 69t62.5 86t53.5 91t43 84t30 64.5t15.5 33.5q13 28 24.5 34.5
t17.5 -2t6 -28.5t-10 -45q-13 -35 -36 -86t-54 -107.5t-68.5 -112t-79.5 -100t-86 -72.5t-88 -28q-11 0 -26 5t-29.5 19t-24.5 38t-11 62q0 6 5.5 32t14.5 64t21 86l24.5 98t24.5 99t21.5 90t16 71t7.5 42zM86 706q2 23 22.5 16.5t44 -31t42.5 -60.5t18 -72q0 -8 -3.5 -34
t-9.5 -62.5t-13 -80.5t-15 -87t-15 -82.5t-12 -67.5q-10 -51 -2.5 -58t35.5 15q35 28 65.5 70t55.5 89t45 95t34.5 88t23.5 68t12 35q14 29 25.5 35.5t18 -2t6 -29t-9.5 -46.5q-13 -35 -33.5 -87.5t-48 -110.5t-60.5 -115.5t-71 -104t-80 -75.5t-86 -29q-11 0 -26 5
t-29 18.5t-24 38t-10 62.5q0 8 7 51t17.5 104.5t23 132.5t24 135t19 112t9.5 64zM149 845q-3 29 8.5 48.5t31.5 19.5t36.5 -19.5t19.5 -48.5q3 -28 -10 -47t-33 -19t-35 19t-18 47zM292 838q-3 27 9 45t32 18t35 -18t18 -45q2 -26 -9.5 -44.5t-31.5 -18.5t-35.5 18.5
t-17.5 44.5z" />
    <glyph glyph-name="oslash" unicode="&#xf8;" horiz-adv-x="592" 
d="M247 712q49 1 81 -7t50 -19t24 -23t5 -20q-2 -6 -7 -7.5t-13.5 -2t-20 -2.5t-24.5 -11q-44 9 -79 -14t-61.5 -63.5t-45.5 -92t-31 -100t-17.5 -87.5t-4.5 -54q2 -64 20 -87t45 -16.5t58.5 37t60.5 72.5q23 33 38 75t24 80.5t13 68.5t6 41q1 12 8 13.5t15.5 -4.5t16 -19
t10.5 -30q2 -11 -4.5 -48t-22 -86.5t-39.5 -105t-57.5 -103t-76.5 -81t-95 -38.5q-22 -3 -53 5.5t-61 31t-55 62t-35 98.5q-9 52 -5 111.5t20 118.5t43.5 114t67 97.5t90 68t112.5 27.5zM387 791q15 15 35.5 20.5t37 -4.5t26 -39t3.5 -84q-1 -8 -8.5 -28t-17.5 -43t-19 -45
t-12 -33q-9 -29 -6 -48.5t15 -30.5t31 -13.5t40 2.5q22 6 47.5 28.5t48.5 47t40 44.5t22 23q14 8 27.5 4t21 -15.5t7.5 -27.5t-13 -31q-11 -11 -36.5 -37t-56.5 -53.5t-62 -49t-53 -23.5q-33 -3 -62.5 2.5t-53 24t-40.5 51.5t-25 85q-7 49 -4.5 91t12 76.5t24 61t31.5 44.5z
M398 896h48l-431 -1011h-48z" />
    <glyph glyph-name="ae" unicode="&#xe6;" horiz-adv-x="1128" 
d="M362 706q1 15 11.5 17t25 -6.5t30.5 -25t30 -38t22.5 -46t8.5 -48.5q0 -8 -6.5 -32.5t-16 -59.5t-21.5 -76.5t-23 -82.5t-20.5 -79t-14.5 -66q-11 -52 -3 -58.5t34 15.5q35 28 69.5 70.5t65.5 91t57.5 98t46.5 91t33 70.5t16 36q13 29 24.5 35.5t18 -2t6.5 -29t-10 -46.5
q-13 -35 -37 -88t-57 -112.5t-73 -119.5t-83 -107.5t-88.5 -77.5t-89.5 -30q-11 0 -26.5 5t-29.5 18.5t-24.5 38t-11.5 62.5q0 6 5.5 32t15 64t21 86t24 98t24.5 99t22 90t16.5 71t7.5 42zM-51 232q-3 34 1.5 83t19 102t39 106.5t61 96.5t85 72.5t110.5 34.5q20 2 39 -8.5
t32.5 -34.5t19.5 -61t0 -88q0 -5 -5 -19.5t-11 -27t-10.5 -19t-2.5 4.5q5 32 4 58.5t-6.5 45.5t-14 30t-18.5 12q-24 3 -53 -29.5t-55 -88t-45 -126.5t-23 -144q0 -8 1.5 -28t7 -40t14 -35.5t21.5 -15.5t28.5 19t29.5 42q16 27 31 62l42 -56q-17 -47 -42.5 -77.5t-55 -49
t-59 -25.5t-54.5 -6q-35 3 -59 27t-39 57t-23 68t-10 58zM1240 564q-16 -47 -44 -109t-65 -127.5t-80.5 -129t-89.5 -112t-92.5 -77.5t-88.5 -26q-63 4 -105.5 30t-68 64t-37 82t-13.5 85q-6 94 19 179.5t70 151.5t102.5 105.5t116.5 41.5q48 2 74.5 -13t39 -37t14 -47
t0.5 -43q-3 -39 -16 -73t-32.5 -62.5t-43 -52t-47.5 -41.5q-56 -43 -126 -71q-28 30 -40 51q-5 9 -7.5 17t0.5 13t12 6.5t27 -2.5q33 -8 70 14t69.5 57.5t55.5 77t27 72.5q2 9 1 19t-4 17.5t-9 11.5t-14 2q-14 -4 -33 -26t-38.5 -56.5t-38.5 -79.5t-34 -95t-24.5 -103
t-9.5 -103q1 -50 13.5 -78.5t44.5 -23.5q24 4 52 17.5t57 35t57.5 52t54.5 69.5q28 42 56.5 94t53.5 103t44.5 94.5t29.5 67.5q14 29 25.5 35.5t18 -2.5t6.5 -29.5t-10 -45.5z" />
    <glyph glyph-name="fi" unicode="&#xfb01;" horiz-adv-x="817" 
d="M-27 -550q23 -13 44.5 15.5t38.5 85.5t28.5 134t13.5 162t-7 169.5t-32 155.5t-61.5 122t-95.5 67q-12 3 -16.5 17.5t-2.5 28.5t11 23.5t24 2.5q3 -1 24.5 -12.5t56 -25.5t79 -27.5t94 -19t101 0.5t99.5 31t89.5 72t71.5 124q4 11 11.5 10.5t14.5 -6.5t11 -14.5t3 -12.5
q-27 -73 -63 -123.5t-77 -83t-84.5 -49.5t-84.5 -24q-97 -16 -202 13q25 -37 42.5 -98t27 -136t10 -158t-7.5 -163t-25 -151t-43.5 -122.5t-62 -77.5t-80.5 -16q-13 3 -27 14.5t-26 32t-21 49t-12 65.5q-8 83 4 201t37 255t60 285.5t73 292.5q27 100 58 196.5t66 183.5
t72 161t75.5 128.5t78 86t77.5 33.5q43 4 67.5 -17t36.5 -55t15.5 -76.5t4.5 -81.5q1 -81 -15.5 -155.5t-44.5 -139.5t-65 -118.5t-76 -91.5t-78 -59t-71 -22q-49 -2 -89 18.5t-69.5 48t-46.5 55t-20 40.5q-7 27 -6.5 37.5t12.5 5.5q3 -2 12 -13.5t23 -28t32 -35t40.5 -33.5
t48 -25t53.5 -9q42 2 81.5 30.5t74.5 74t64.5 102.5t50.5 115.5t33 113.5t13 97q0 21 -3.5 38.5t-9.5 30.5t-12.5 19.5t-12.5 4.5q-8 -2 -26.5 -31t-44 -78.5t-57.5 -118t-66 -150t-69.5 -172.5t-68.5 -187q-40 -116 -75 -233.5t-62 -228t-45.5 -208.5t-24.5 -174t1 -125.5
t30 -62.5zM533 722q-4 16 6.5 15.5t28 -12t38.5 -32.5t39.5 -46.5t30.5 -53t12 -51.5q0 -8 -6 -32t-16 -58t-22 -74.5t-23.5 -81.5t-21 -78.5t-14.5 -65.5q-5 -26 -7 -38.5t0.5 -14.5t10 4t21.5 17q35 28 68 68.5t62 85.5t53.5 90.5t43 83.5t30 65t14.5 34q14 29 25.5 35.5
t18 -2t6 -29t-9.5 -46.5q-13 -35 -36 -86t-54 -107t-69 -112t-79.5 -100.5t-86 -72t-88.5 -27.5q-11 0 -26 5t-29 18.5t-24.5 38t-10.5 62.5q0 8 11 44t27.5 88.5t34 115.5t30 127t17.5 122.5t-5 100.5zM614 850q3 25 11 47t18.5 38.5t23 26t24.5 9.5t21 -9.5t14.5 -26
t6.5 -38.5t-2 -47q-4 -25 -12.5 -47t-19.5 -38.5t-23.5 -26.5t-24.5 -10t-21 10t-14 26.5t-6 38.5t4 47z" />
    <glyph glyph-name="fl" unicode="&#xfb02;" horiz-adv-x="944" 
d="M-27 -550q23 -13 44.5 15.5t38.5 85.5t28.5 134t13.5 162t-7 169.5t-32 155.5t-61.5 122t-95.5 67q-12 3 -16.5 17.5t-2.5 28.5t11 23.5t24 2.5q3 -1 24.5 -12.5t56 -25.5t79 -27.5t94 -19t101 0.5t99.5 31t89.5 72t71.5 124q4 11 11.5 10.5t14.5 -6.5t11 -14.5t3 -12.5
q-27 -73 -63 -123.5t-77 -83t-84.5 -49.5t-84.5 -24q-97 -16 -202 13q25 -37 42.5 -98t27 -136t10 -158t-7.5 -163t-25 -151t-43.5 -122.5t-62 -77.5t-80.5 -16q-13 3 -27 14.5t-26 32t-21 49t-12 65.5q-8 83 4 201t37 255t60 285.5t73 292.5q27 100 58 196.5t66 183.5
t72 161t75.5 128.5t78 86t77.5 33.5q43 4 67.5 -17t36.5 -55t15.5 -76.5t4.5 -81.5q1 -81 -15.5 -155.5t-44.5 -139.5t-65 -118.5t-76 -91.5t-78 -59t-71 -22q-49 -2 -89 18.5t-69.5 48t-46.5 55t-20 40.5q-7 27 -6.5 37.5t12.5 5.5q3 -2 12 -13.5t23 -28t32 -35t40.5 -33.5
t48 -25t53.5 -9q42 2 81.5 30.5t74.5 74t64.5 102.5t50.5 115.5t33 113.5t13 97q0 21 -3.5 38.5t-9.5 30.5t-12.5 19.5t-12.5 4.5q-8 -2 -26.5 -31t-44 -78.5t-57.5 -118t-66 -150t-69.5 -172.5t-68.5 -187q-40 -116 -75 -233.5t-62 -228t-45.5 -208.5t-24.5 -174t1 -125.5
t30 -62.5zM922 1352q43 3 70 -17t41 -50t17.5 -63.5t0.5 -57.5q-14 -123 -49 -220.5t-80.5 -170.5t-96 -122.5t-95 -77t-77 -34t-41.5 6.5q-1 2 -8.5 9.5t-16 17t-14.5 19.5t-3.5 16t16 7t44.5 -8q27 -8 62 9.5t72.5 54t75 91t70.5 121.5t59 144.5t39 160.5q5 31 -4 35
t-23 -6t-29.5 -27.5t-23.5 -29.5q-21 -33 -51 -84.5t-63 -119.5t-65 -151t-57 -178.5t-41 -202.5t-15 -222q0 -21 2 -42.5t6.5 -38t12 -27t17.5 -10.5q17 0 40.5 21t49.5 55t53.5 78t53.5 90t49.5 90t41.5 79.5t29 58.5t13 25q7 11 14.5 14t13.5 -1.5t9 -16.5t0 -31
q-1 -4 -11.5 -30.5t-29.5 -66t-44.5 -89.5t-55.5 -101t-63.5 -99.5t-68 -86t-69.5 -60.5t-68 -23q-18 0 -45.5 9t-53 38t-43 83t-17.5 144q0 63 9 143t25.5 167t40 178t53.5 176t65.5 161t76.5 133t86 92t94 38z" />
    <glyph glyph-name="Oslash" unicode="&#xd8;" horiz-adv-x="1137" 
d="M584 786q28 -95 29 -157.5t-14.5 -99.5t-44 -51t-60.5 -12q-74 3 -134 44.5t-105 109.5t-75.5 158t-44.5 190.5t-11.5 206t22 205.5t57.5 189t94.5 156t132 107t171.5 41q135 2 233 -61.5t162.5 -173.5t97 -256t36 -309.5t-19 -333.5t-68.5 -327t-113.5 -291.5
t-153 -226.5t-187 -132t-215.5 -8q-83 23 -145 71.5t-106.5 111t-73.5 133t-47 138t-27 126.5t-13 98q-12 134 -2 254t34 225t58.5 194.5t72.5 163.5q89 172 210 302q11 12 35.5 7.5t54 -19.5t59 -37t50 -45t27.5 -43t-9 -31q-4 -3 -36 -25.5t-78.5 -69.5t-100.5 -120.5
t-101.5 -178.5t-81.5 -244.5t-40 -316.5q-1 -46 3 -107.5t15.5 -128t31.5 -131t50.5 -117t73 -86.5t98.5 -39q66 -6 131 44.5t125 141.5t112 214.5t92.5 264t66.5 290t33 291t-6.5 268.5t-52 222.5t-105 152t-164.5 58.5q-89 1 -155.5 -33.5t-113 -94t-74.5 -139.5
t-40.5 -170.5t-10 -185.5t16.5 -185.5t39 -170.5t57.5 -140t72 -94.5t82.5 -33.5q26 0 45.5 21t31.5 55.5t16 79t0 91.5zM841 2076h75l-680 -2506h-75z" />
    <glyph glyph-name="AE" unicode="&#xc6;" horiz-adv-x="2526" 
d="M795 1120q-83 27 -128 68t-63.5 92t-15 109t17.5 118q18 79 64.5 142t118 106t165.5 64.5t208 17.5q71 -3 125.5 -18t96 -37.5t70 -50.5t48.5 -57q46 -68 56 -152l-107 -128q-3 28 -7 57q-3 25 -7.5 54.5t-9.5 58.5q-6 27 -24 64t-50 70.5t-79 57.5t-111 27
q-71 3 -130.5 -21.5t-107 -67t-82.5 -97.5t-57 -113t-31.5 -114t-4.5 -100q10 -108 45 -150zM511 505q8 13 14 41.5t10 77.5q4 55 -12.5 94.5t-44 64.5t-61.5 36t-65 8q-77 -7 -129.5 -57.5t-81.5 -127.5t-35.5 -173t8.5 -193q9 -59 30 -110t52 -88.5t70 -58.5t83 -19
q61 2 127 53t134.5 136t139 197t141 237.5t141 257.5t139 255.5t134.5 232t127 187.5q3 4 8 -7t10 -26q6 -18 13 -42q-97 -137 -179.5 -279t-155 -281t-137 -270.5t-125.5 -248t-120.5 -214t-122 -168t-130 -110.5t-144.5 -41q-75 -1 -138.5 30t-112 87.5t-80.5 135
t-44 172.5q-16 124 8 230t76 187.5t127.5 134t162.5 68.5q56 11 111.5 -4.5t99 -47.5t70 -77t26 -94t-34 -97.5t-109.5 -88.5zM1137 624q5 -54 5 -93q0 -17 -1 -31.5t-3.5 -24.5t-7.5 -12.5t-12 5.5q-33 34 -64 51t-61 20.5t-59.5 -3.5t-59.5 -22q-6 5 -7 15q-1 8 2.5 22.5
t16.5 37.5q10 19 26.5 30.5t36.5 17.5t41.5 7t42.5 0q49 -4 104 -20zM1389 1433q1 0 11 12.5t24 30.5t31.5 38.5t34 35.5t30.5 22t22 -1q12 -13 18 -30.5t8.5 -36.5t1 -39t-4.5 -38q-1 -9 -19.5 -71.5t-47 -161.5t-63 -225.5t-68 -263.5t-62 -275.5t-45 -261.5t-16.5 -221
t23 -155q9 -23 1.5 -37.5t-24.5 -14.5q-6 0 -22 11t-37 32.5t-44.5 55t-44 78t-35 101t-17.5 124.5q-3 51 10 134t36.5 183t54.5 211.5t63.5 219.5t64.5 206.5t57.5 173t41.5 119t17 44.5zM1446 1149q-70 22 -112 58.5t-60.5 81t-16 94t20.5 98.5t50.5 93.5t73 79.5
t87.5 56.5t95 24.5q56 3 101 -12.5t83 -43.5t71.5 -65.5t67.5 -77t70 -78t79.5 -70t96 -52t118.5 -23.5q40 -2 80 12.5t71.5 41t50 64t15.5 81.5q-3 46 -18 73.5t-39 42t-56 19.5t-69 7q-27 0 -65.5 -17.5t-80.5 -49.5t-84.5 -77t-78.5 -99.5t-62 -117t-34.5 -130t4 -137.5
t52.5 -140q-47 23 -90.5 8t-81 -57t-67.5 -105.5t-51 -137.5t-31.5 -153.5t-7.5 -153.5q1 -28 8 -68t23 -83.5t41 -86t61 -77t84.5 -56.5t110.5 -23q76 -1 142 22.5t122 63.5t103 92.5t84.5 110.5t67 116.5t50.5 110.5t34.5 93t20.5 64q6 18 17 21t20.5 -4t13.5 -22.5
t-4 -34.5q-6 -15 -16.5 -53.5t-28 -91t-43.5 -115.5t-64 -127t-88 -125t-116 -110.5t-149 -82.5t-186 -42q-34 -3 -83 5t-103 30t-108.5 59.5t-100 93.5t-78 132.5t-42.5 176.5q-16 160 24 292.5t122 230t200 156.5t259 72q25 2 51.5 -4t48.5 -22.5t37.5 -46t17.5 -74.5
q1 -30 -11 -51.5t-32 -35t-44.5 -19.5t-46.5 -6t-59 15t-76 51t-72 95.5t-47 148.5q-4 24 -5 65t3.5 91t17 106.5t35.5 112.5t59 108t87.5 93.5t121 69.5t160.5 35q76 7 132.5 -11t94.5 -53.5t57.5 -84.5t22.5 -104q3 -61 -23.5 -110.5t-69.5 -85t-95 -55.5t-100 -21
q-57 -1 -106.5 17t-94 47t-85.5 66t-80 74.5t-77 71.5t-77.5 58t-81.5 34t-88 -2q-57 -14 -97 -47.5t-64.5 -77.5t-34 -94t-4.5 -97q4 -38 16.5 -73.5t28.5 -61.5z" />
    <glyph glyph-name="OE" unicode="&#x152;" horiz-adv-x="2294" 
d="M584 786q28 -95 29 -157.5t-14.5 -99.5t-44 -51t-60.5 -12q-74 3 -134 44.5t-105 109.5t-75.5 158t-44.5 190.5t-11.5 206t22 205.5t57.5 189t94.5 156t132 107t171.5 41q135 2 233 -61.5t162.5 -173.5t97 -256t36 -309.5t-19 -333.5t-68.5 -327t-113.5 -291.5
t-153 -226.5t-187 -132t-215.5 -8q-83 23 -145 71.5t-106.5 111t-73.5 133t-47 138t-27 126.5t-13 98q-12 134 -2 254t34 225t58.5 194.5t72.5 163.5q89 172 210 302q11 12 35.5 7.5t54 -19.5t59 -37t50 -45t27.5 -43t-9 -31q-4 -3 -36 -25.5t-78.5 -69.5t-100.5 -120.5
t-101.5 -178.5t-81.5 -244.5t-40 -316.5q-1 -46 3 -107.5t15.5 -128t31.5 -131t50.5 -117t73 -86.5t98.5 -39q66 -6 131 44.5t125 141.5t112 214.5t92.5 264t66.5 290t33 291t-6.5 268.5t-52 222.5t-105 152t-164.5 58.5q-89 1 -155.5 -33.5t-113 -94t-74.5 -139.5
t-40.5 -170.5t-10 -185.5t16.5 -185.5t39 -170.5t57.5 -140t72 -94.5t82.5 -33.5q26 0 45.5 21t31.5 55.5t16 79t0 91.5zM1213 1149q-70 22 -112 58.5t-60.5 81t-16 94t20.5 98.5t50.5 93.5t73 79.5t87.5 56.5t95 24.5q56 3 101 -12.5t83 -43.5t71.5 -65.5t67.5 -77t70 -78
t79.5 -70t96 -52t118.5 -23.5q40 -2 80 12.5t71.5 41t50 64t15.5 81.5q-3 46 -18 73.5t-39 42t-56 19.5t-69 7q-27 0 -65.5 -17.5t-80.5 -49.5t-84.5 -77t-78.5 -99.5t-62 -117t-34.5 -130t4 -137.5t52.5 -140q-47 23 -90.5 8t-81 -57t-67.5 -105.5t-51 -137.5t-31.5 -153.5
t-7.5 -153.5q1 -28 8 -68t23 -83.5t41 -86t61 -77t84.5 -56.5t110.5 -23q76 -1 142 22.5t122 63.5t103 92.5t84.5 110.5t67 116.5t50.5 110.5t34.5 93t20.5 64q6 18 17 21t20.5 -4t13.5 -22.5t-4 -34.5q-6 -15 -16.5 -53.5t-28 -91t-43.5 -115.5t-64 -127t-88 -125
t-116 -110.5t-149 -82.5t-186 -42q-34 -3 -83 5t-103 30t-108.5 59.5t-100 93.5t-78 132.5t-42.5 176.5q-16 160 24 292.5t122 230t200 156.5t259 72q25 2 51.5 -4t48.5 -22.5t37.5 -46t17.5 -74.5q1 -30 -11 -51.5t-32 -35t-44.5 -19.5t-46.5 -6t-59 15t-76 51t-72 95.5
t-47 148.5q-4 24 -5 65t3.5 91t17 106.5t35.5 112.5t59 108t87.5 93.5t121 69.5t160.5 35q76 7 132.5 -11t94.5 -53.5t57.5 -84.5t22.5 -104q3 -61 -23.5 -110.5t-69.5 -85t-95 -55.5t-100 -21q-57 -1 -106.5 17t-94 47t-85.5 66t-80 74.5t-77 71.5t-77.5 58t-81.5 34
t-88 -2q-57 -14 -97 -47.5t-64.5 -77.5t-34 -94t-4.5 -97q4 -38 16.5 -73.5t28.5 -61.5z" />
    <glyph glyph-name="oe" unicode="&#x153;" horiz-adv-x="1079" 
d="M247 712q49 1 81 -7t50 -19t24 -23t5 -20q-2 -6 -7 -7.5t-13.5 -2t-20 -2.5t-24.5 -11q-44 9 -79 -14t-61.5 -63.5t-45.5 -92t-31 -100t-17.5 -87.5t-4.5 -54q2 -64 20 -87t45 -16.5t58.5 37t60.5 72.5q23 33 38 75t24 80.5t13 68.5t6 41q1 12 8 13.5t15.5 -4.5t16 -19
t10.5 -30q2 -11 -4.5 -48t-22 -86.5t-39.5 -105t-57.5 -103t-76.5 -81t-95 -38.5q-22 -3 -53 5.5t-61 31t-55 62t-35 98.5q-9 52 -5 111.5t20 118.5t43.5 114t67 97.5t90 68t112.5 27.5zM387 791q15 15 35.5 20.5t37 -4.5t26 -39t3.5 -84q-1 -8 -8.5 -28t-17.5 -43t-19 -45
t-12 -33q-9 -29 -6 -48.5t15 -30.5t31 -13.5t40 2.5q22 6 47.5 28.5t48.5 47t40 44.5t22 23q14 8 27.5 4t21 -15.5t7.5 -27.5t-13 -31q-11 -11 -36.5 -37t-56.5 -53.5t-62 -49t-53 -23.5q-33 -3 -62.5 2.5t-53 24t-40.5 51.5t-25 85q-7 49 -4.5 91t12 76.5t24 61t31.5 44.5z
M1191 564q-15 -47 -43.5 -109t-65.5 -127.5t-80.5 -129t-89.5 -112t-92.5 -77.5t-88.5 -26q-63 4 -105.5 30t-68 64t-37 82t-13.5 85q-6 94 19 179.5t70 151.5t102.5 105.5t116.5 41.5q48 2 74.5 -13t39 -37t14 -47t0.5 -43q-3 -39 -16 -73t-32.5 -62.5t-43 -52t-47.5 -41.5
q-56 -43 -126 -71q-28 30 -40 51q-5 9 -7.5 17t0.5 13t12 6.5t27 -2.5q33 -8 70 14t69.5 57.5t55.5 77t27 72.5q2 9 1 19t-4 17.5t-9 11.5t-14 2q-14 -4 -33 -26t-38.5 -56.5t-38.5 -79.5t-34 -95t-24.5 -103t-9.5 -103q1 -50 13.5 -78.5t44.5 -23.5q24 4 52 17.5t57 35
t57.5 52t54.5 69.5q28 42 56.5 94t53.5 103t44.5 94.5t29.5 67.5q14 29 25.5 35.5t18 -2.5t6.5 -29.5t-10 -45.5z" />
    <glyph glyph-name="Otilde" unicode="&#xd5;" horiz-adv-x="1137" 
d="M584 786q28 -95 29 -157.5t-14.5 -99.5t-44 -51t-60.5 -12q-74 3 -134 44.5t-105 109.5t-75.5 158t-44.5 190.5t-11.5 206t22 205.5t57.5 189t94.5 156t132 107t171.5 41q135 2 233 -61.5t162.5 -173.5t97 -256t36 -309.5t-19 -333.5t-68.5 -327t-113.5 -291.5
t-153 -226.5t-187 -132t-215.5 -8q-83 23 -145 71.5t-106.5 111t-73.5 133t-47 138t-27 126.5t-13 98q-12 134 -2 254t34 225t58.5 194.5t72.5 163.5q89 172 210 302q11 12 35.5 7.5t54 -19.5t59 -37t50 -45t27.5 -43t-9 -31q-4 -3 -36 -25.5t-78.5 -69.5t-100.5 -120.5
t-101.5 -178.5t-81.5 -244.5t-40 -316.5q-1 -46 3 -107.5t15.5 -128t31.5 -131t50.5 -117t73 -86.5t98.5 -39q66 -6 131 44.5t125 141.5t112 214.5t92.5 264t66.5 290t33 291t-6.5 268.5t-52 222.5t-105 152t-164.5 58.5q-89 1 -155.5 -33.5t-113 -94t-74.5 -139.5
t-40.5 -170.5t-10 -185.5t16.5 -185.5t39 -170.5t57.5 -140t72 -94.5t82.5 -33.5q26 0 45.5 21t31.5 55.5t16 79t0 91.5zM601 2124q10 0 22 -8t25.5 -17.5t28.5 -17t32 -6.5q12 2 20.5 9.5t14 16.5t9.5 17.5t7 13.5q4 4 8 2t7.5 -8t6 -13.5t2.5 -14.5q1 -7 -3 -26t-12.5 -39
t-22.5 -36.5t-33 -17.5q-10 -1 -23.5 4t-29.5 11.5t-32.5 12t-32.5 6t-29.5 -7t-23.5 -26.5q-3 -7 -6 -7.5t-5.5 3.5t-4.5 10l-4 12t3 26.5t15.5 43t25.5 40t35 17.5z" />
    <glyph glyph-name="Atilde" unicode="&#xc3;" horiz-adv-x="1370" 
d="M795 1120q-83 27 -128 68t-63.5 92t-15 109t17.5 118q18 79 64.5 142t118 106t165.5 64.5t208 17.5q71 -3 125.5 -18t96 -37.5t70 -50.5t48.5 -57q46 -68 56 -152l-107 -128q-3 28 -7 57q-3 25 -7.5 54.5t-9.5 58.5q-6 27 -24 64t-50 70.5t-79 57.5t-111 27
q-71 3 -130.5 -21.5t-107 -67t-82.5 -97.5t-57 -113t-31.5 -114t-4.5 -100q10 -108 45 -150zM511 505q8 13 14 41.5t10 77.5q4 55 -12.5 94.5t-44 64.5t-61.5 36t-65 8q-77 -7 -129.5 -57.5t-81.5 -127.5t-35.5 -173t8.5 -193q9 -59 30 -110t52 -88.5t70 -58.5t83 -19
q61 2 127 53t134.5 136t139 197t141 237.5t141 257.5t139 255.5t134.5 232t127 187.5q3 4 8 -7t10 -26q6 -18 13 -42q-97 -137 -179.5 -279t-155 -281t-137 -270.5t-125.5 -248t-120.5 -214t-122 -168t-130 -110.5t-144.5 -41q-75 -1 -138.5 30t-112 87.5t-80.5 135
t-44 172.5q-16 124 8 230t76 187.5t127.5 134t162.5 68.5q56 11 111.5 -4.5t99 -47.5t70 -77t26 -94t-34 -97.5t-109.5 -88.5zM1137 624q5 -54 5 -93q0 -17 -1 -31.5t-3.5 -24.5t-7.5 -12.5t-12 5.5q-33 34 -64 51t-61 20.5t-59.5 -3.5t-59.5 -22q-6 5 -7 15q-1 8 2.5 22.5
t16.5 37.5q10 19 26.5 30.5t36.5 17.5t41.5 7t42.5 0q49 -4 104 -20zM1389 1433q1 0 11 12.5t24 30.5t31.5 38.5t34 35.5t30.5 22t22 -1q12 -13 18 -30.5t8.5 -36.5t1 -39t-4.5 -38q-1 -9 -19.5 -71.5t-47 -161.5t-63 -225.5t-68 -263.5t-62 -275.5t-45 -261.5t-16.5 -221
t23 -155q9 -23 1.5 -37.5t-24.5 -14.5q-6 0 -22 11t-37 32.5t-44.5 55t-44 78t-35 101t-17.5 124.5q-3 51 10 134t36.5 183t54.5 211.5t63.5 219.5t64.5 206.5t57.5 173t41.5 119t17 44.5zM1094 2056q10 0 22 -8t25.5 -17.5t28.5 -17t32 -6.5q12 2 20.5 9.5t14 16.5
t9.5 17.5t7 13.5q4 4 8 2t7.5 -8t6 -13.5t2.5 -14.5q1 -7 -3 -26t-12.5 -39t-22.5 -36.5t-33 -17.5q-10 -1 -23.5 4t-29.5 11.5t-32.5 12t-32.5 6t-29.5 -7t-23.5 -26.5q-3 -7 -6 -7.5t-5.5 3.5t-4.5 10l-4 12t3 26.5t15.5 43t25.5 40t35 17.5z" />
    <glyph glyph-name="Agrave" unicode="&#xc0;" horiz-adv-x="1370" 
d="M795 1120q-83 27 -128 68t-63.5 92t-15 109t17.5 118q18 79 64.5 142t118 106t165.5 64.5t208 17.5q71 -3 125.5 -18t96 -37.5t70 -50.5t48.5 -57q46 -68 56 -152l-107 -128q-3 28 -7 57q-3 25 -7.5 54.5t-9.5 58.5q-6 27 -24 64t-50 70.5t-79 57.5t-111 27
q-71 3 -130.5 -21.5t-107 -67t-82.5 -97.5t-57 -113t-31.5 -114t-4.5 -100q10 -108 45 -150zM511 505q8 13 14 41.5t10 77.5q4 55 -12.5 94.5t-44 64.5t-61.5 36t-65 8q-77 -7 -129.5 -57.5t-81.5 -127.5t-35.5 -173t8.5 -193q9 -59 30 -110t52 -88.5t70 -58.5t83 -19
q61 2 127 53t134.5 136t139 197t141 237.5t141 257.5t139 255.5t134.5 232t127 187.5q3 4 8 -7t10 -26q6 -18 13 -42q-97 -137 -179.5 -279t-155 -281t-137 -270.5t-125.5 -248t-120.5 -214t-122 -168t-130 -110.5t-144.5 -41q-75 -1 -138.5 30t-112 87.5t-80.5 135
t-44 172.5q-16 124 8 230t76 187.5t127.5 134t162.5 68.5q56 11 111.5 -4.5t99 -47.5t70 -77t26 -94t-34 -97.5t-109.5 -88.5zM1137 624q5 -54 5 -93q0 -17 -1 -31.5t-3.5 -24.5t-7.5 -12.5t-12 5.5q-33 34 -64 51t-61 20.5t-59.5 -3.5t-59.5 -22q-6 5 -7 15q-1 8 2.5 22.5
t16.5 37.5q10 19 26.5 30.5t36.5 17.5t41.5 7t42.5 0q49 -4 104 -20zM1389 1433q1 0 11 12.5t24 30.5t31.5 38.5t34 35.5t30.5 22t22 -1q12 -13 18 -30.5t8.5 -36.5t1 -39t-4.5 -38q-1 -9 -19.5 -71.5t-47 -161.5t-63 -225.5t-68 -263.5t-62 -275.5t-45 -261.5t-16.5 -221
t23 -155q9 -23 1.5 -37.5t-24.5 -14.5q-6 0 -22 11t-37 32.5t-44.5 55t-44 78t-35 101t-17.5 124.5q-3 51 10 134t36.5 183t54.5 211.5t63.5 219.5t64.5 206.5t57.5 173t41.5 119t17 44.5zM1246 1944l-26 -63l-147 156l56 90z" />
    <glyph glyph-name="Ugrave" unicode="&#xd9;" horiz-adv-x="1225" 
d="M55 1100q-59 -2 -96 14t-58.5 43.5t-29.5 63t-8 74.5q1 82 21.5 156t60.5 132t97.5 97.5t132.5 52.5q46 8 102.5 5t114.5 -21t112.5 -53t97 -92t68 -138t25.5 -191q0 -53 -15 -136.5t-38 -185t-51 -213t-56 -220t-53 -207t-40 -173.5t-18.5 -119t11.5 -44q42 1 89 48.5
t95.5 124.5t96.5 175t92 200q103 239 205 544l-48 -319q-85 -259 -178 -462q-40 -87 -85.5 -169.5t-95 -147t-101 -103.5t-103.5 -38q-51 1 -82.5 29.5t-50 67t-26.5 78t-10 62.5q-5 46 4.5 116t28 154t44 177.5t53.5 187.5t55 183.5t49 165.5t36.5 133.5t16.5 88.5
q6 98 -9 165t-44 109.5t-67 64.5t-77 29.5t-75.5 3.5t-61.5 -12q-53 -17 -90.5 -55.5t-60.5 -86.5t-32.5 -100t-7.5 -97q1 -25 6.5 -49.5t14 -46.5t18.5 -39t21 -27zM1176 1394q45 58 96.5 87.5t98 40.5t80.5 10.5t44 -1.5t17 -10.5t9 -22t-1 -24.5t-12 -17
q-57 -31 -107.5 -88.5t-94 -134t-80 -168.5t-65.5 -192t-51 -205.5t-37 -208.5t-23 -200t-8 -181q-1 -93 8.5 -154t23.5 -101t28.5 -63.5t24.5 -41.5q10 -19 11 -31t-4 -19t-13 -10t-14 -3q-5 1 -21.5 3t-40 14t-50.5 38.5t-51.5 76t-44 126t-27.5 189.5q-6 86 -4 190.5
t13.5 218.5t34 232.5t58 233t85.5 221t117 195.5zM935 1730l-26 -63l-147 156l56 90z" />
    <glyph glyph-name="Ucircumflex" unicode="&#xdb;" horiz-adv-x="1225" 
d="M55 1100q-59 -2 -96 14t-58.5 43.5t-29.5 63t-8 74.5q1 82 21.5 156t60.5 132t97.5 97.5t132.5 52.5q46 8 102.5 5t114.5 -21t112.5 -53t97 -92t68 -138t25.5 -191q0 -53 -15 -136.5t-38 -185t-51 -213t-56 -220t-53 -207t-40 -173.5t-18.5 -119t11.5 -44q42 1 89 48.5
t95.5 124.5t96.5 175t92 200q103 239 205 544l-48 -319q-85 -259 -178 -462q-40 -87 -85.5 -169.5t-95 -147t-101 -103.5t-103.5 -38q-51 1 -82.5 29.5t-50 67t-26.5 78t-10 62.5q-5 46 4.5 116t28 154t44 177.5t53.5 187.5t55 183.5t49 165.5t36.5 133.5t16.5 88.5
q6 98 -9 165t-44 109.5t-67 64.5t-77 29.5t-75.5 3.5t-61.5 -12q-53 -17 -90.5 -55.5t-60.5 -86.5t-32.5 -100t-7.5 -97q1 -25 6.5 -49.5t14 -46.5t18.5 -39t21 -27zM1176 1394q45 58 96.5 87.5t98 40.5t80.5 10.5t44 -1.5t17 -10.5t9 -22t-1 -24.5t-12 -17
q-57 -31 -107.5 -88.5t-94 -134t-80 -168.5t-65.5 -192t-51 -205.5t-37 -208.5t-23 -200t-8 -181q-1 -93 8.5 -154t23.5 -101t28.5 -63.5t24.5 -41.5q10 -19 11 -31t-4 -19t-13 -10t-14 -3q-5 1 -21.5 3t-40 14t-50.5 38.5t-51.5 76t-44 126t-27.5 189.5q-6 86 -4 190.5
t13.5 218.5t34 232.5t58 233t85.5 221t117 195.5zM919 1972l3.5 -6.5t10 -17.5t15 -25t17.5 -29q20 -34 47 -77q-10 -28 -19 -50q-8 -19 -15 -34.5t-9 -14.5q-2 2 -16 19.5t-30 38.5q-18 25 -42 55q-16 -25 -30 -45l-24 -34t-17 -22t-10.5 -0.5t-10 12.5t-6 16t2.5 10
q2 1 13 16.5t26 38t32 48.5t31 48.5t23 37.5t8 15z" />
    <glyph glyph-name="Uacute" unicode="&#xda;" horiz-adv-x="1225" 
d="M55 1100q-59 -2 -96 14t-58.5 43.5t-29.5 63t-8 74.5q1 82 21.5 156t60.5 132t97.5 97.5t132.5 52.5q46 8 102.5 5t114.5 -21t112.5 -53t97 -92t68 -138t25.5 -191q0 -53 -15 -136.5t-38 -185t-51 -213t-56 -220t-53 -207t-40 -173.5t-18.5 -119t11.5 -44q42 1 89 48.5
t95.5 124.5t96.5 175t92 200q103 239 205 544l-48 -319q-85 -259 -178 -462q-40 -87 -85.5 -169.5t-95 -147t-101 -103.5t-103.5 -38q-51 1 -82.5 29.5t-50 67t-26.5 78t-10 62.5q-5 46 4.5 116t28 154t44 177.5t53.5 187.5t55 183.5t49 165.5t36.5 133.5t16.5 88.5
q6 98 -9 165t-44 109.5t-67 64.5t-77 29.5t-75.5 3.5t-61.5 -12q-53 -17 -90.5 -55.5t-60.5 -86.5t-32.5 -100t-7.5 -97q1 -25 6.5 -49.5t14 -46.5t18.5 -39t21 -27zM1176 1394q45 58 96.5 87.5t98 40.5t80.5 10.5t44 -1.5t17 -10.5t9 -22t-1 -24.5t-12 -17
q-57 -31 -107.5 -88.5t-94 -134t-80 -168.5t-65.5 -192t-51 -205.5t-37 -208.5t-23 -200t-8 -181q-1 -93 8.5 -154t23.5 -101t28.5 -63.5t24.5 -41.5q10 -19 11 -31t-4 -19t-13 -10t-14 -3q-5 1 -21.5 3t-40 14t-50.5 38.5t-51.5 76t-44 126t-27.5 189.5q-6 86 -4 190.5
t13.5 218.5t34 232.5t58 233t85.5 221t117 195.5zM962 1868q0 -3 11.5 -16t25.5 -28q16 -18 36 -39l-128 -123l-36 54q25 45 45 79q9 15 17 28.5t14.5 24t10.5 16t4 4.5z" />
    <glyph glyph-name="Ograve" unicode="&#xd2;" horiz-adv-x="1137" 
d="M584 786q28 -95 29 -157.5t-14.5 -99.5t-44 -51t-60.5 -12q-74 3 -134 44.5t-105 109.5t-75.5 158t-44.5 190.5t-11.5 206t22 205.5t57.5 189t94.5 156t132 107t171.5 41q135 2 233 -61.5t162.5 -173.5t97 -256t36 -309.5t-19 -333.5t-68.5 -327t-113.5 -291.5
t-153 -226.5t-187 -132t-215.5 -8q-83 23 -145 71.5t-106.5 111t-73.5 133t-47 138t-27 126.5t-13 98q-12 134 -2 254t34 225t58.5 194.5t72.5 163.5q89 172 210 302q11 12 35.5 7.5t54 -19.5t59 -37t50 -45t27.5 -43t-9 -31q-4 -3 -36 -25.5t-78.5 -69.5t-100.5 -120.5
t-101.5 -178.5t-81.5 -244.5t-40 -316.5q-1 -46 3 -107.5t15.5 -128t31.5 -131t50.5 -117t73 -86.5t98.5 -39q66 -6 131 44.5t125 141.5t112 214.5t92.5 264t66.5 290t33 291t-6.5 268.5t-52 222.5t-105 152t-164.5 58.5q-89 1 -155.5 -33.5t-113 -94t-74.5 -139.5
t-40.5 -170.5t-10 -185.5t16.5 -185.5t39 -170.5t57.5 -140t72 -94.5t82.5 -33.5q26 0 45.5 21t31.5 55.5t16 79t0 91.5zM625 2034l-26 -63l-147 156l56 90z" />
    <glyph glyph-name="Ocircumflex" unicode="&#xd4;" horiz-adv-x="1137" 
d="M584 786q28 -95 29 -157.5t-14.5 -99.5t-44 -51t-60.5 -12q-74 3 -134 44.5t-105 109.5t-75.5 158t-44.5 190.5t-11.5 206t22 205.5t57.5 189t94.5 156t132 107t171.5 41q135 2 233 -61.5t162.5 -173.5t97 -256t36 -309.5t-19 -333.5t-68.5 -327t-113.5 -291.5
t-153 -226.5t-187 -132t-215.5 -8q-83 23 -145 71.5t-106.5 111t-73.5 133t-47 138t-27 126.5t-13 98q-12 134 -2 254t34 225t58.5 194.5t72.5 163.5q89 172 210 302q11 12 35.5 7.5t54 -19.5t59 -37t50 -45t27.5 -43t-9 -31q-4 -3 -36 -25.5t-78.5 -69.5t-100.5 -120.5
t-101.5 -178.5t-81.5 -244.5t-40 -316.5q-1 -46 3 -107.5t15.5 -128t31.5 -131t50.5 -117t73 -86.5t98.5 -39q66 -6 131 44.5t125 141.5t112 214.5t92.5 264t66.5 290t33 291t-6.5 268.5t-52 222.5t-105 152t-164.5 58.5q-89 1 -155.5 -33.5t-113 -94t-74.5 -139.5
t-40.5 -170.5t-10 -185.5t16.5 -185.5t39 -170.5t57.5 -140t72 -94.5t82.5 -33.5q26 0 45.5 21t31.5 55.5t16 79t0 91.5zM638 2220l3.5 -6.5t10 -17.5t15 -25t17.5 -29q20 -34 47 -77q-10 -28 -19 -50q-8 -19 -15 -34.5t-9 -14.5q-2 2 -16 19.5t-30 38.5q-18 25 -42 55
q-16 -25 -30 -45l-24 -34t-17 -22t-10.5 -0.5t-10 12.5t-6 16t2.5 10q2 1 13 16.5t26 38t32 48.5t31 48.5t23 37.5t8 15z" />
    <glyph glyph-name="Oacute" unicode="&#xd3;" horiz-adv-x="1137" 
d="M584 786q28 -95 29 -157.5t-14.5 -99.5t-44 -51t-60.5 -12q-74 3 -134 44.5t-105 109.5t-75.5 158t-44.5 190.5t-11.5 206t22 205.5t57.5 189t94.5 156t132 107t171.5 41q135 2 233 -61.5t162.5 -173.5t97 -256t36 -309.5t-19 -333.5t-68.5 -327t-113.5 -291.5
t-153 -226.5t-187 -132t-215.5 -8q-83 23 -145 71.5t-106.5 111t-73.5 133t-47 138t-27 126.5t-13 98q-12 134 -2 254t34 225t58.5 194.5t72.5 163.5q89 172 210 302q11 12 35.5 7.5t54 -19.5t59 -37t50 -45t27.5 -43t-9 -31q-4 -3 -36 -25.5t-78.5 -69.5t-100.5 -120.5
t-101.5 -178.5t-81.5 -244.5t-40 -316.5q-1 -46 3 -107.5t15.5 -128t31.5 -131t50.5 -117t73 -86.5t98.5 -39q66 -6 131 44.5t125 141.5t112 214.5t92.5 264t66.5 290t33 291t-6.5 268.5t-52 222.5t-105 152t-164.5 58.5q-89 1 -155.5 -33.5t-113 -94t-74.5 -139.5
t-40.5 -170.5t-10 -185.5t16.5 -185.5t39 -170.5t57.5 -140t72 -94.5t82.5 -33.5q26 0 45.5 21t31.5 55.5t16 79t0 91.5zM651 2174q0 -3 11.5 -16t25.5 -28q16 -18 36 -39l-128 -123l-36 54q25 45 45 79q9 15 17 28.5t14.5 24t10.5 16t4 4.5z" />
    <glyph glyph-name="Igrave" unicode="&#xcc;" horiz-adv-x="1079" 
d="M454 754q-93 58 -143.5 133.5t-66.5 158.5t-2.5 169.5t49 168t88 153.5t113 126.5t125 86.5t124.5 33q58 1 118.5 -18.5t112 -71t88 -140.5t45.5 -227q7 -104 -2.5 -227.5t-35 -254.5t-66 -263t-95 -252.5t-122 -223.5t-146.5 -176t-169.5 -109t-190.5 -23
q-73 9 -130.5 48t-96 93.5t-57.5 117.5t-14 120t34.5 101.5t87.5 61.5q-16 -36 -24.5 -87t-3.5 -101q4 -45 22 -91t47 -82.5t67.5 -59t83.5 -20.5q53 2 111 53.5t116 139.5t114 204t105 247t88 268.5t64 267.5t32.5 245.5t-7 202.5t-53.5 137.5t-107 50.5q-50 1 -99.5 -28.5
t-94 -82t-81.5 -124.5t-60.5 -157.5t-31 -180t6.5 -191.5q3 -24 8 -51.5t11.5 -54t16 -50.5t21.5 -40zM756 2002l-26 -63l-147 156l56 90z" />
    <glyph glyph-name="Idieresis" unicode="&#xcf;" horiz-adv-x="1079" 
d="M454 754q-93 58 -143.5 133.5t-66.5 158.5t-2.5 169.5t49 168t88 153.5t113 126.5t125 86.5t124.5 33q58 1 118.5 -18.5t112 -71t88 -140.5t45.5 -227q7 -104 -2.5 -227.5t-35 -254.5t-66 -263t-95 -252.5t-122 -223.5t-146.5 -176t-169.5 -109t-190.5 -23
q-73 9 -130.5 48t-96 93.5t-57.5 117.5t-14 120t34.5 101.5t87.5 61.5q-16 -36 -24.5 -87t-3.5 -101q4 -45 22 -91t47 -82.5t67.5 -59t83.5 -20.5q53 2 111 53.5t116 139.5t114 204t105 247t88 268.5t64 267.5t32.5 245.5t-7 202.5t-53.5 137.5t-107 50.5q-50 1 -99.5 -28.5
t-94 -82t-81.5 -124.5t-60.5 -157.5t-31 -180t6.5 -191.5q3 -24 8 -51.5t11.5 -54t16 -50.5t21.5 -40zM634 2007q-3 29 8.5 48.5t31.5 19.5t36.5 -19.5t19.5 -48.5q3 -28 -10 -47t-33 -19t-35 19t-18 47zM777 2000q-3 27 9 45t32 18t35 -18t18 -45q2 -26 -9.5 -44.5
t-31.5 -18.5t-35.5 18.5t-17.5 44.5z" />
    <glyph glyph-name="Icircumflex" unicode="&#xce;" horiz-adv-x="1079" 
d="M454 754q-93 58 -143.5 133.5t-66.5 158.5t-2.5 169.5t49 168t88 153.5t113 126.5t125 86.5t124.5 33q58 1 118.5 -18.5t112 -71t88 -140.5t45.5 -227q7 -104 -2.5 -227.5t-35 -254.5t-66 -263t-95 -252.5t-122 -223.5t-146.5 -176t-169.5 -109t-190.5 -23
q-73 9 -130.5 48t-96 93.5t-57.5 117.5t-14 120t34.5 101.5t87.5 61.5q-16 -36 -24.5 -87t-3.5 -101q4 -45 22 -91t47 -82.5t67.5 -59t83.5 -20.5q53 2 111 53.5t116 139.5t114 204t105 247t88 268.5t64 267.5t32.5 245.5t-7 202.5t-53.5 137.5t-107 50.5q-50 1 -99.5 -28.5
t-94 -82t-81.5 -124.5t-60.5 -157.5t-31 -180t6.5 -191.5q3 -24 8 -51.5t11.5 -54t16 -50.5t21.5 -40zM801 2186l3.5 -6.5t10 -17.5t15 -25t17.5 -29q20 -34 47 -77q-10 -28 -19 -50q-8 -19 -15 -34.5t-9 -14.5q-2 2 -16 19.5t-30 38.5q-18 25 -42 55q-16 -25 -30 -45
l-24 -34t-17 -22t-10.5 -0.5t-10 12.5t-6 16t2.5 10q2 1 13 16.5t26 38t32 48.5t31 48.5t23 37.5t8 15z" />
    <glyph glyph-name="Iacute" unicode="&#xcd;" horiz-adv-x="1079" 
d="M454 754q-93 58 -143.5 133.5t-66.5 158.5t-2.5 169.5t49 168t88 153.5t113 126.5t125 86.5t124.5 33q58 1 118.5 -18.5t112 -71t88 -140.5t45.5 -227q7 -104 -2.5 -227.5t-35 -254.5t-66 -263t-95 -252.5t-122 -223.5t-146.5 -176t-169.5 -109t-190.5 -23
q-73 9 -130.5 48t-96 93.5t-57.5 117.5t-14 120t34.5 101.5t87.5 61.5q-16 -36 -24.5 -87t-3.5 -101q4 -45 22 -91t47 -82.5t67.5 -59t83.5 -20.5q53 2 111 53.5t116 139.5t114 204t105 247t88 268.5t64 267.5t32.5 245.5t-7 202.5t-53.5 137.5t-107 50.5q-50 1 -99.5 -28.5
t-94 -82t-81.5 -124.5t-60.5 -157.5t-31 -180t6.5 -191.5q3 -24 8 -51.5t11.5 -54t16 -50.5t21.5 -40zM817 2107q0 -3 11.5 -16t25.5 -28q16 -18 36 -39l-128 -123l-36 54q25 45 45 79q9 15 17 28.5t14.5 24t10.5 16t4 4.5z" />
    <glyph glyph-name="Egrave" unicode="&#xc8;" horiz-adv-x="1156" 
d="M76 1149q-70 22 -112 58.5t-60.5 81t-16 94t20.5 98.5t50.5 93.5t73 79.5t87.5 56.5t95 24.5q56 3 101 -12.5t83 -43.5t71.5 -65.5t67.5 -77t70 -78t79.5 -70t96 -52t118.5 -23.5q40 -2 80 12.5t71.5 41t50 64t15.5 81.5q-3 46 -18 73.5t-39 42t-56 19.5t-69 7
q-27 0 -65.5 -17.5t-80.5 -49.5t-84.5 -77t-78.5 -99.5t-62 -117t-34.5 -130t4 -137.5t52.5 -140q-47 23 -90.5 8t-81 -57t-67.5 -105.5t-51 -137.5t-31.5 -153.5t-7.5 -153.5q1 -28 8 -68t23 -83.5t41 -86t61 -77t84.5 -56.5t110.5 -23q76 -1 142 22.5t122 63.5t103 92.5
t84.5 110.5t67 116.5t50.5 110.5t34.5 93t20.5 64q6 18 17 21t20.5 -4t13.5 -22.5t-4 -34.5q-6 -15 -16.5 -53.5t-28 -91t-43.5 -115.5t-64 -127t-88 -125t-116 -110.5t-149 -82.5t-186 -42q-34 -3 -83 5t-103 30t-108.5 59.5t-100 93.5t-78 132.5t-42.5 176.5
q-16 160 24 292.5t122 230t200 156.5t259 72q25 2 51.5 -4t48.5 -22.5t37.5 -46t17.5 -74.5q1 -30 -11 -51.5t-32 -35t-44.5 -19.5t-46.5 -6t-59 15t-76 51t-72 95.5t-47 148.5q-4 24 -5 65t3.5 91t17 106.5t35.5 112.5t59 108t87.5 93.5t121 69.5t160.5 35q76 7 132.5 -11
t94.5 -53.5t57.5 -84.5t22.5 -104q3 -61 -23.5 -110.5t-69.5 -85t-95 -55.5t-100 -21q-57 -1 -106.5 17t-94 47t-85.5 66t-80 74.5t-77 71.5t-77.5 58t-81.5 34t-88 -2q-57 -14 -97 -47.5t-64.5 -77.5t-34 -94t-4.5 -97q4 -38 16.5 -73.5t28.5 -61.5zM860 1978l-26 -63
l-147 156l56 90z" />
    <glyph glyph-name="Edieresis" unicode="&#xcb;" horiz-adv-x="1156" 
d="M76 1149q-70 22 -112 58.5t-60.5 81t-16 94t20.5 98.5t50.5 93.5t73 79.5t87.5 56.5t95 24.5q56 3 101 -12.5t83 -43.5t71.5 -65.5t67.5 -77t70 -78t79.5 -70t96 -52t118.5 -23.5q40 -2 80 12.5t71.5 41t50 64t15.5 81.5q-3 46 -18 73.5t-39 42t-56 19.5t-69 7
q-27 0 -65.5 -17.5t-80.5 -49.5t-84.5 -77t-78.5 -99.5t-62 -117t-34.5 -130t4 -137.5t52.5 -140q-47 23 -90.5 8t-81 -57t-67.5 -105.5t-51 -137.5t-31.5 -153.5t-7.5 -153.5q1 -28 8 -68t23 -83.5t41 -86t61 -77t84.5 -56.5t110.5 -23q76 -1 142 22.5t122 63.5t103 92.5
t84.5 110.5t67 116.5t50.5 110.5t34.5 93t20.5 64q6 18 17 21t20.5 -4t13.5 -22.5t-4 -34.5q-6 -15 -16.5 -53.5t-28 -91t-43.5 -115.5t-64 -127t-88 -125t-116 -110.5t-149 -82.5t-186 -42q-34 -3 -83 5t-103 30t-108.5 59.5t-100 93.5t-78 132.5t-42.5 176.5
q-16 160 24 292.5t122 230t200 156.5t259 72q25 2 51.5 -4t48.5 -22.5t37.5 -46t17.5 -74.5q1 -30 -11 -51.5t-32 -35t-44.5 -19.5t-46.5 -6t-59 15t-76 51t-72 95.5t-47 148.5q-4 24 -5 65t3.5 91t17 106.5t35.5 112.5t59 108t87.5 93.5t121 69.5t160.5 35q76 7 132.5 -11
t94.5 -53.5t57.5 -84.5t22.5 -104q3 -61 -23.5 -110.5t-69.5 -85t-95 -55.5t-100 -21q-57 -1 -106.5 17t-94 47t-85.5 66t-80 74.5t-77 71.5t-77.5 58t-81.5 34t-88 -2q-57 -14 -97 -47.5t-64.5 -77.5t-34 -94t-4.5 -97q4 -38 16.5 -73.5t28.5 -61.5zM699 1974
q-3 29 8.5 48.5t31.5 19.5t36.5 -19.5t19.5 -48.5q3 -28 -10 -47t-33 -19t-35 19t-18 47zM842 1967q-3 27 9 45t32 18t35 -18t18 -45q2 -26 -9.5 -44.5t-31.5 -18.5t-35.5 18.5t-17.5 44.5z" />
    <glyph glyph-name="Aacute" unicode="&#xc1;" horiz-adv-x="1370" 
d="M795 1120q-83 27 -128 68t-63.5 92t-15 109t17.5 118q18 79 64.5 142t118 106t165.5 64.5t208 17.5q71 -3 125.5 -18t96 -37.5t70 -50.5t48.5 -57q46 -68 56 -152l-107 -128q-3 28 -7 57q-3 25 -7.5 54.5t-9.5 58.5q-6 27 -24 64t-50 70.5t-79 57.5t-111 27
q-71 3 -130.5 -21.5t-107 -67t-82.5 -97.5t-57 -113t-31.5 -114t-4.5 -100q10 -108 45 -150zM511 505q8 13 14 41.5t10 77.5q4 55 -12.5 94.5t-44 64.5t-61.5 36t-65 8q-77 -7 -129.5 -57.5t-81.5 -127.5t-35.5 -173t8.5 -193q9 -59 30 -110t52 -88.5t70 -58.5t83 -19
q61 2 127 53t134.5 136t139 197t141 237.5t141 257.5t139 255.5t134.5 232t127 187.5q3 4 8 -7t10 -26q6 -18 13 -42q-97 -137 -179.5 -279t-155 -281t-137 -270.5t-125.5 -248t-120.5 -214t-122 -168t-130 -110.5t-144.5 -41q-75 -1 -138.5 30t-112 87.5t-80.5 135
t-44 172.5q-16 124 8 230t76 187.5t127.5 134t162.5 68.5q56 11 111.5 -4.5t99 -47.5t70 -77t26 -94t-34 -97.5t-109.5 -88.5zM1137 624q5 -54 5 -93q0 -17 -1 -31.5t-3.5 -24.5t-7.5 -12.5t-12 5.5q-33 34 -64 51t-61 20.5t-59.5 -3.5t-59.5 -22q-6 5 -7 15q-1 8 2.5 22.5
t16.5 37.5q10 19 26.5 30.5t36.5 17.5t41.5 7t42.5 0q49 -4 104 -20zM1389 1433q1 0 11 12.5t24 30.5t31.5 38.5t34 35.5t30.5 22t22 -1q12 -13 18 -30.5t8.5 -36.5t1 -39t-4.5 -38q-1 -9 -19.5 -71.5t-47 -161.5t-63 -225.5t-68 -263.5t-62 -275.5t-45 -261.5t-16.5 -221
t23 -155q9 -23 1.5 -37.5t-24.5 -14.5q-6 0 -22 11t-37 32.5t-44.5 55t-44 78t-35 101t-17.5 124.5q-3 51 10 134t36.5 183t54.5 211.5t63.5 219.5t64.5 206.5t57.5 173t41.5 119t17 44.5zM1141 2209q0 -3 11.5 -16t25.5 -28q16 -18 36 -39l-128 -123l-36 54q25 45 45 79
q9 15 17 28.5t14.5 24t10.5 16t4 4.5z" />
    <glyph glyph-name="Ecircumflex" unicode="&#xca;" horiz-adv-x="1156" 
d="M76 1149q-70 22 -112 58.5t-60.5 81t-16 94t20.5 98.5t50.5 93.5t73 79.5t87.5 56.5t95 24.5q56 3 101 -12.5t83 -43.5t71.5 -65.5t67.5 -77t70 -78t79.5 -70t96 -52t118.5 -23.5q40 -2 80 12.5t71.5 41t50 64t15.5 81.5q-3 46 -18 73.5t-39 42t-56 19.5t-69 7
q-27 0 -65.5 -17.5t-80.5 -49.5t-84.5 -77t-78.5 -99.5t-62 -117t-34.5 -130t4 -137.5t52.5 -140q-47 23 -90.5 8t-81 -57t-67.5 -105.5t-51 -137.5t-31.5 -153.5t-7.5 -153.5q1 -28 8 -68t23 -83.5t41 -86t61 -77t84.5 -56.5t110.5 -23q76 -1 142 22.5t122 63.5t103 92.5
t84.5 110.5t67 116.5t50.5 110.5t34.5 93t20.5 64q6 18 17 21t20.5 -4t13.5 -22.5t-4 -34.5q-6 -15 -16.5 -53.5t-28 -91t-43.5 -115.5t-64 -127t-88 -125t-116 -110.5t-149 -82.5t-186 -42q-34 -3 -83 5t-103 30t-108.5 59.5t-100 93.5t-78 132.5t-42.5 176.5
q-16 160 24 292.5t122 230t200 156.5t259 72q25 2 51.5 -4t48.5 -22.5t37.5 -46t17.5 -74.5q1 -30 -11 -51.5t-32 -35t-44.5 -19.5t-46.5 -6t-59 15t-76 51t-72 95.5t-47 148.5q-4 24 -5 65t3.5 91t17 106.5t35.5 112.5t59 108t87.5 93.5t121 69.5t160.5 35q76 7 132.5 -11
t94.5 -53.5t57.5 -84.5t22.5 -104q3 -61 -23.5 -110.5t-69.5 -85t-95 -55.5t-100 -21q-57 -1 -106.5 17t-94 47t-85.5 66t-80 74.5t-77 71.5t-77.5 58t-81.5 34t-88 -2q-57 -14 -97 -47.5t-64.5 -77.5t-34 -94t-4.5 -97q4 -38 16.5 -73.5t28.5 -61.5zM684 2164l3.5 -6.5
t10 -17.5t15 -25t17.5 -29q20 -34 47 -77q-10 -28 -19 -50q-8 -19 -15 -34.5t-9 -14.5q-2 2 -16 19.5t-30 38.5q-18 25 -42 55q-16 -25 -30 -45l-24 -34t-17 -22t-10.5 -0.5t-10 12.5t-6 16t2.5 10q2 1 13 16.5t26 38t32 48.5t31 48.5t23 37.5t8 15z" />
    <glyph glyph-name="Acircumflex" unicode="&#xc2;" horiz-adv-x="1370" 
d="M795 1120q-83 27 -128 68t-63.5 92t-15 109t17.5 118q18 79 64.5 142t118 106t165.5 64.5t208 17.5q71 -3 125.5 -18t96 -37.5t70 -50.5t48.5 -57q46 -68 56 -152l-107 -128q-3 28 -7 57q-3 25 -7.5 54.5t-9.5 58.5q-6 27 -24 64t-50 70.5t-79 57.5t-111 27
q-71 3 -130.5 -21.5t-107 -67t-82.5 -97.5t-57 -113t-31.5 -114t-4.5 -100q10 -108 45 -150zM511 505q8 13 14 41.5t10 77.5q4 55 -12.5 94.5t-44 64.5t-61.5 36t-65 8q-77 -7 -129.5 -57.5t-81.5 -127.5t-35.5 -173t8.5 -193q9 -59 30 -110t52 -88.5t70 -58.5t83 -19
q61 2 127 53t134.5 136t139 197t141 237.5t141 257.5t139 255.5t134.5 232t127 187.5q3 4 8 -7t10 -26q6 -18 13 -42q-97 -137 -179.5 -279t-155 -281t-137 -270.5t-125.5 -248t-120.5 -214t-122 -168t-130 -110.5t-144.5 -41q-75 -1 -138.5 30t-112 87.5t-80.5 135
t-44 172.5q-16 124 8 230t76 187.5t127.5 134t162.5 68.5q56 11 111.5 -4.5t99 -47.5t70 -77t26 -94t-34 -97.5t-109.5 -88.5zM1137 624q5 -54 5 -93q0 -17 -1 -31.5t-3.5 -24.5t-7.5 -12.5t-12 5.5q-33 34 -64 51t-61 20.5t-59.5 -3.5t-59.5 -22q-6 5 -7 15q-1 8 2.5 22.5
t16.5 37.5q10 19 26.5 30.5t36.5 17.5t41.5 7t42.5 0q49 -4 104 -20zM1389 1433q1 0 11 12.5t24 30.5t31.5 38.5t34 35.5t30.5 22t22 -1q12 -13 18 -30.5t8.5 -36.5t1 -39t-4.5 -38q-1 -9 -19.5 -71.5t-47 -161.5t-63 -225.5t-68 -263.5t-62 -275.5t-45 -261.5t-16.5 -221
t23 -155q9 -23 1.5 -37.5t-24.5 -14.5q-6 0 -22 11t-37 32.5t-44.5 55t-44 78t-35 101t-17.5 124.5q-3 51 10 134t36.5 183t54.5 211.5t63.5 219.5t64.5 206.5t57.5 173t41.5 119t17 44.5zM1164 2220l3.5 -6.5t10 -17.5t15 -25t17.5 -29q20 -34 47 -77q-10 -28 -19 -50
q-8 -19 -15 -34.5t-9 -14.5q-2 2 -16 19.5t-30 38.5q-18 25 -42 55q-16 -25 -30 -45l-24 -34t-17 -22t-10.5 -0.5t-10 12.5t-6 16t2.5 10q2 1 13 16.5t26 38t32 48.5t31 48.5t23 37.5t8 15z" />
    <glyph glyph-name="Ntilde" unicode="&#xd1;" horiz-adv-x="1448" 
d="M950 1745q0 2 7.5 8t20 13.5t28.5 16.5t33 18q40 21 90 47q14 -511 36 -935q6 -120 13.5 -241t16.5 -234.5t19 -215.5t21.5 -184.5t24.5 -142.5t28 -88q7 -13 7.5 -25t-6 -19t-19.5 -6t-33 15q-39 28 -71.5 100t-59 175t-47 230.5t-36.5 265.5t-27.5 280.5t-19.5 275.5
t-13 250t-8 204.5t-4 138.5t-1 53zM2195 1495q10 24 14.5 54t4.5 62.5t-2.5 64t-6.5 58.5q-5 34 -14.5 70t-25 66.5t-37.5 52t-52 27.5q-110 3 -202 -51.5t-168.5 -150.5t-138 -225t-109.5 -276.5t-83.5 -304t-59.5 -307t-37.5 -286.5t-18 -242.5t-1 -174.5t14.5 -82
l-97 205q6 67 15 169t22.5 225.5t33.5 263t48 282.5t66.5 283.5t88.5 266t113.5 230t143 175.5t176.5 102.5t213 11.5q57 -10 106.5 -47t84 -89.5t51 -114.5t8.5 -121.5t-44 -112t-107 -84.5zM461 454q8 55 -5.5 97.5t-40 69.5t-62.5 36.5t-72 -1.5q-45 -14 -78 -43.5
t-55.5 -70.5t-34.5 -92t-15 -107t3.5 -114.5t21.5 -115.5q13 -52 36.5 -94.5t54 -71t66.5 -40t75 -1.5q54 13 101 70.5t88.5 147.5t78.5 208t71 253.5t67 282t65.5 294.5t66.5 292t71 273q2 5 12.5 -0.5t23.5 -13.5q15 -10 34 -23q-61 -249 -108.5 -481.5t-91.5 -437
t-88.5 -376t-98.5 -300t-122 -208.5t-158 -101q-65 -14 -124.5 2.5t-107.5 58.5t-83 107t-52 148q-18 85 -17.5 163.5t15.5 147t42.5 125.5t63.5 99t79 67t88 30q56 7 100 -3.5t70.5 -43.5t32.5 -90t-13 -143zM203 1212q-56 -19 -98 -14.5t-71.5 29t-47.5 67t-25 100.5
q-15 115 7 199.5t64 137.5t95.5 74.5t101.5 10.5q96 -22 176 -42.5t148.5 -34.5t128.5 -21t117 -2t114 23.5t119 54.5q16 9 24 -1.5t12 -27.5q4 -19 4 -47q-85 -46 -167 -64t-160 -18t-151 13.5t-139 31.5t-124 36.5t-106 27.5q-38 8 -67 -8t-49 -47t-32 -72t-17.5 -82.5
t-4.5 -79t7 -62.5q15 -60 33 -96t36 -55t36.5 -25t35.5 -6zM1317 2101q10 0 22 -8t25.5 -17.5t28.5 -17t32 -6.5q12 2 20.5 9.5t14 16.5t9.5 17.5t7 13.5q4 4 8 2t7.5 -8t6 -13.5t2.5 -14.5q1 -7 -3 -26t-12.5 -39t-22.5 -36.5t-33 -17.5q-10 -1 -23.5 4t-29.5 11.5
t-32.5 12t-32.5 6t-29.5 -7t-23.5 -26.5q-3 -7 -6 -7.5t-5.5 3.5t-4.5 10l-4 12t3 26.5t15.5 43t25.5 40t35 17.5z" />
    <glyph glyph-name="Odieresis" unicode="&#xd6;" horiz-adv-x="1137" 
d="M584 786q28 -95 29 -157.5t-14.5 -99.5t-44 -51t-60.5 -12q-74 3 -134 44.5t-105 109.5t-75.5 158t-44.5 190.5t-11.5 206t22 205.5t57.5 189t94.5 156t132 107t171.5 41q135 2 233 -61.5t162.5 -173.5t97 -256t36 -309.5t-19 -333.5t-68.5 -327t-113.5 -291.5
t-153 -226.5t-187 -132t-215.5 -8q-83 23 -145 71.5t-106.5 111t-73.5 133t-47 138t-27 126.5t-13 98q-12 134 -2 254t34 225t58.5 194.5t72.5 163.5q89 172 210 302q11 12 35.5 7.5t54 -19.5t59 -37t50 -45t27.5 -43t-9 -31q-4 -3 -36 -25.5t-78.5 -69.5t-100.5 -120.5
t-101.5 -178.5t-81.5 -244.5t-40 -316.5q-1 -46 3 -107.5t15.5 -128t31.5 -131t50.5 -117t73 -86.5t98.5 -39q66 -6 131 44.5t125 141.5t112 214.5t92.5 264t66.5 290t33 291t-6.5 268.5t-52 222.5t-105 152t-164.5 58.5q-89 1 -155.5 -33.5t-113 -94t-74.5 -139.5
t-40.5 -170.5t-10 -185.5t16.5 -185.5t39 -170.5t57.5 -140t72 -94.5t82.5 -33.5q26 0 45.5 21t31.5 55.5t16 79t0 91.5zM502 2053q-3 29 8.5 48.5t31.5 19.5t36.5 -19.5t19.5 -48.5q3 -28 -10 -47t-33 -19t-35 19t-18 47zM645 2046q-3 27 9 45t32 18t35 -18t18 -45
q2 -26 -9.5 -44.5t-31.5 -18.5t-35.5 18.5t-17.5 44.5z" />
    <glyph glyph-name="Udieresis" unicode="&#xdc;" horiz-adv-x="1225" 
d="M55 1100q-59 -2 -96 14t-58.5 43.5t-29.5 63t-8 74.5q1 82 21.5 156t60.5 132t97.5 97.5t132.5 52.5q46 8 102.5 5t114.5 -21t112.5 -53t97 -92t68 -138t25.5 -191q0 -53 -15 -136.5t-38 -185t-51 -213t-56 -220t-53 -207t-40 -173.5t-18.5 -119t11.5 -44q42 1 89 48.5
t95.5 124.5t96.5 175t92 200q103 239 205 544l-48 -319q-85 -259 -178 -462q-40 -87 -85.5 -169.5t-95 -147t-101 -103.5t-103.5 -38q-51 1 -82.5 29.5t-50 67t-26.5 78t-10 62.5q-5 46 4.5 116t28 154t44 177.5t53.5 187.5t55 183.5t49 165.5t36.5 133.5t16.5 88.5
q6 98 -9 165t-44 109.5t-67 64.5t-77 29.5t-75.5 3.5t-61.5 -12q-53 -17 -90.5 -55.5t-60.5 -86.5t-32.5 -100t-7.5 -97q1 -25 6.5 -49.5t14 -46.5t18.5 -39t21 -27zM1176 1394q45 58 96.5 87.5t98 40.5t80.5 10.5t44 -1.5t17 -10.5t9 -22t-1 -24.5t-12 -17
q-57 -31 -107.5 -88.5t-94 -134t-80 -168.5t-65.5 -192t-51 -205.5t-37 -208.5t-23 -200t-8 -181q-1 -93 8.5 -154t23.5 -101t28.5 -63.5t24.5 -41.5q10 -19 11 -31t-4 -19t-13 -10t-14 -3q-5 1 -21.5 3t-40 14t-50.5 38.5t-51.5 76t-44 126t-27.5 189.5q-6 86 -4 190.5
t13.5 218.5t34 232.5t58 233t85.5 221t117 195.5zM793 1769q-3 29 8.5 48.5t31.5 19.5t36.5 -19.5t19.5 -48.5q3 -28 -10 -47t-33 -19t-35 19t-18 47zM936 1762q-3 27 9 45t32 18t35 -18t18 -45q2 -26 -9.5 -44.5t-31.5 -18.5t-35.5 18.5t-17.5 44.5z" />
    <glyph glyph-name="Eth" unicode="&#xd0;" horiz-adv-x="1306" 
d="M340 1276q24 -85 28 -137t-5 -80.5t-28 -38.5t-42 -11q-38 -3 -80.5 10.5t-80.5 47.5t-67 90t-38 139q-9 76 2 143.5t36 124t62.5 101t81.5 75.5q51 40 120.5 66t163.5 36q109 10 205 -11.5t177.5 -67.5t148 -113t118 -148t86.5 -173.5t53 -188.5q30 -160 25.5 -315.5
t-38 -295.5t-93.5 -259t-141.5 -207t-182.5 -140t-215 -57q-64 -3 -115.5 20.5t-95 60.5t-81 81.5t-73.5 83.5t-72.5 66.5t-78.5 30.5q-15 1 -22.5 -15t-6.5 -40t10.5 -52t29.5 -50.5t49.5 -34.5t70.5 -5q22 3 44.5 41t45.5 101t47 146t48 177.5t49 195.5t50 199t50.5 189
t51 165t51 127t51.5 75q32 28 69.5 38.5t69.5 12.5q38 2 76 -4q6 0 11.5 -5t9 -12t3.5 -15.5t-6 -15.5q-61 -73 -106.5 -179.5t-82.5 -230.5t-69 -258t-65 -263t-71 -244t-87.5 -201.5t-113 -136.5t-148.5 -48q-34 1 -67 19.5t-62 48.5t-52.5 68t-38.5 78t-20 78t2.5 68.5
t29 49t60.5 19.5q50 1 94 -23.5t84.5 -62.5t80.5 -83t82 -83t89 -63t103 -24q85 1 158.5 51.5t133 137t103 202.5t68.5 249t30 276.5t-12 285.5q-6 49 -18 113.5t-36 132.5t-64 133.5t-102 117t-149.5 83t-206.5 31.5q-93 0 -155.5 -28t-100.5 -72q-30 -36 -50.5 -79
t-32 -91t-15 -98t1.5 -99t16.5 -84.5t26.5 -58.5t31.5 -35t31.5 -14q45 3 60 44.5t7 121.5zM780 740l-9 -93l-380 -4l7 94z" />
    <glyph glyph-name="eth" unicode="&#xf0;" horiz-adv-x="715" 
d="M159 382q1 13 4.5 35t5 42.5t-1.5 36t-15 16.5q-22 3 -37 -11t-24.5 -39t-14 -57t-6 -65t1 -64t6.5 -53q6 -32 18 -59.5t29 -47t38.5 -29.5t46.5 -7q25 4 58 47.5t67 117t64.5 172.5t50.5 213.5t25.5 241.5t-9.5 256q-1 7 -2.5 26t-6 42t-12 48.5t-21 46.5t-32.5 34.5
t-45 13.5q-20 0 -50.5 -28t-57 -80t-41 -125.5t-2.5 -163.5q10 -65 26 -105t33 -62t32 -28.5t23 -4.5q39 10 70 37t52.5 66t32.5 87.5t10 99.5q0 4 6.5 -12.5t14.5 -41.5t14.5 -51t6.5 -41q-1 -11 -8.5 -29.5t-21.5 -41.5t-33 -46.5t-42 -43.5t-49.5 -34t-54.5 -17
q-10 -1 -28 0t-40 9t-46.5 25.5t-47.5 48.5t-43 78.5t-32 116.5q-2 11 -4 46t1.5 82.5t15.5 101t38 100.5t67.5 82t105.5 46q72 12 123.5 -14.5t86 -76.5t54.5 -115t30.5 -129.5t13 -121t2.5 -87.5q0 -12 -1 -54.5t-6.5 -104t-16 -136.5t-29 -152.5t-46.5 -151t-68.5 -131.5
t-94.5 -95t-125 -41q-9 0 -26 2t-38 11t-44 25.5t-44.5 45.5t-39.5 71t-28 102q-1 8 -2 34t1.5 60t11 72t26 71t45 55.5t69.5 26.5q23 2 40 -8.5t21 -34t-7 -61t-44 -90.5z" />
    <glyph glyph-name="Lslash" unicode="&#x141;" horiz-adv-x="1069" 
d="M809 547l-6 -99l-402 -176l3 100zM313 1537q-46 24 -75 12.5t-40 -46.5t-5.5 -87t28.5 -108q39 -75 96 -126.5t124.5 -80t140 -34.5t141.5 11q65 15 136.5 45.5t140.5 73.5t131.5 97.5t110 116.5t75.5 130.5t29 140.5q1 88 -23.5 133.5t-61.5 43.5t-76 -47.5t-78 -123
t-77.5 -180t-75.5 -218t-70.5 -237.5t-63 -237.5t-54 -219t-41.5 -181.5t-27 -125t-11 -50q-36 -144 -80 -233t-93.5 -141.5t-103 -76.5t-110.5 -36q-51 -12 -96.5 -0.5t-82 38t-62 65t-36.5 81t-5.5 85.5t30 79t70 60.5t116.5 30.5q45 4 112.5 -18t151 -59.5t179 -85
t195 -95t200.5 -90.5t194.5 -71t177 -35.5t149.5 15.5q8 3 20.5 9t25 10.5t22.5 5.5t14.5 -6t1.5 -24.5t-18 -48.5q-17 -38 -55.5 -74t-103.5 -63q-83 -35 -170.5 -31.5t-176.5 32.5t-177 78.5t-173 106.5t-165.5 115.5t-153 106t-135.5 79t-114 33.5q-30 1 -50.5 -19
t-29.5 -49.5t-6.5 -63.5t18 -60.5t44 -39t72.5 0.5q48 14 85 82.5t68.5 175t59 243.5t57 287.5t62 307t74.5 303.5t94.5 276t121 223.5t156 147.5t197.5 48q39 -2 69.5 -15.5t53 -34.5t37.5 -47.5t24 -54.5t12 -54.5t2 -48.5q-6 -103 -40.5 -188.5t-88.5 -155t-125 -124
t-150 -94.5t-162.5 -67t-162.5 -41q-77 -14 -166.5 -14.5t-175 23t-158 77t-114.5 148.5q-27 62 -34.5 128t1 122.5t31 96.5t54 51t69.5 -14.5t79 -100.5z" />
    <glyph glyph-name="lslash" unicode="&#x142;" horiz-adv-x="477" 
d="M384 950l-7 -99l-399 -175l2 99zM455 1352q43 3 70 -17t41 -50t17.5 -63.5t0.5 -57.5q-14 -123 -49 -220.5t-80.5 -170.5t-96 -122.5t-95 -77t-77 -34t-41.5 6.5q-1 2 -8.5 9.5t-16 17t-14.5 19.5t-3.5 16t16 7t44.5 -8q27 -8 62 9.5t72.5 54t75 91t70.5 121.5t59 144.5
t39 160.5q5 31 -4 35t-23 -6t-29.5 -27.5t-23.5 -29.5q-21 -33 -51 -84.5t-63 -119.5t-65 -151t-57 -178.5t-41 -202.5t-15 -222q0 -21 2 -42.5t6.5 -38t12 -27t17.5 -10.5q17 0 40.5 21t49.5 55t53.5 78t53.5 90t49.5 90t41.5 79.5t29 58.5t13 25q7 11 14.5 14t13.5 -1.5
t9 -16.5t0 -31q-1 -4 -11.5 -30.5t-29.5 -66t-44.5 -89.5t-55.5 -101t-63.5 -99.5t-68 -86t-69.5 -60.5t-68 -23q-18 0 -45.5 9t-53 38t-43 83t-17.5 144q0 63 9 143t25.5 167t40 178t53.5 176t65.5 161t76.5 133t86 92t94 38z" />
    <glyph glyph-name="Scaron" unicode="&#x160;" horiz-adv-x="1108" 
d="M223 459q-15 -11 -29.5 -31.5t-26 -50.5t-18 -68t-4.5 -83q2 -69 23.5 -126.5t57.5 -101t83 -71t101 -36.5q52 -8 103 3.5t93.5 47t73 97t40.5 153.5q8 71 -3 140.5t-32 141t-47.5 148.5t-50 162.5t-39.5 182.5t-16 209q0 91 18 178.5t51.5 165t81.5 140.5t108.5 106
t132.5 62t154 7q83 -12 138 -52t87.5 -92t45 -108t11.5 -100q-3 -86 -33.5 -146.5t-72.5 -99t-88.5 -55.5t-80.5 -17q-73 1 -139 31t-128.5 75t-125 99t-128 104t-137.5 90t-154 57q-35 7 -63 -1.5t-49 -27t-36 -45t-24 -54.5t-13 -56t-2 -49q3 -47 10.5 -77t19 -48.5
t24.5 -27t27 -11.5q-43 -11 -77 -0.5t-57 39t-34.5 72.5t-9.5 100q2 85 27 148.5t65.5 103.5t91.5 56.5t106 8.5q61 -9 125.5 -47.5t130.5 -92.5t132.5 -115t131 -115t126.5 -94t119 -50q61 -11 112.5 22t89.5 128q6 16 12 46.5t6.5 67.5t-6.5 77t-27 74.5t-55.5 60.5
t-91.5 36t-101 -3.5t-79.5 -42t-60 -68.5t-43.5 -83.5t-29.5 -87t-18 -79.5t-9 -60t-2.5 -28q-5 -119 8.5 -217t37 -183t51.5 -160t51.5 -148t37.5 -148t10 -159q-5 -96 -30 -172.5t-64 -135.5t-89.5 -100.5t-106.5 -67t-115.5 -35t-116.5 -4.5q-77 6 -146.5 45t-120.5 105
t-77.5 155.5t-16.5 197.5q3 36 11.5 68t27 57.5t49.5 42t81 20.5zM891 1908l-3.5 6.5t-10 17.5t-15 24.5t-17.5 28.5l-48 78l20 50q8 19 14.5 34t8.5 13t15.5 -20t30.5 -38q19 -25 43 -54l30 45q12 17 23.5 34t16.5 22q6 5 11.5 0.5t10 -12t5.5 -15.5t-2 -10
q-3 -1 -14 -16.5t-26 -38.5t-31.5 -49t-30.5 -48t-23 -37t-8 -15z" />
    <glyph glyph-name="scaron" unicode="&#x161;" horiz-adv-x="408" 
d="M71 593q-2 54 10 92.5t32.5 65.5t46 44t49 26.5t42.5 13.5t26 6q16 4 28.5 -4.5t18 -21.5t2.5 -27t-17 -20q-5 -2 -14.5 -15.5t-19.5 -34t-17.5 -46t-9.5 -52.5q-4 -50 1 -117t8.5 -139.5t2 -145t-17.5 -133t-51 -103t-98 -55.5q-37 -8 -65 1.5t-45.5 30.5t-24.5 51
t-2 61.5t21.5 62.5t46.5 54q33 25 76.5 51t90.5 54t94 59t88 67t72 77t46 90q7 24 18.5 30t20.5 -1t12.5 -25t-4.5 -43q-14 -44 -48 -87.5t-78.5 -85t-95.5 -80.5t-100 -73.5t-91.5 -63.5t-69.5 -50q-20 -16 -32 -32t-14 -27.5t7 -16t30 2.5q23 7 33.5 47.5t13.5 98.5t0 125
t-7.5 126.5t-9.5 104t-5 57.5zM225 881l-3.5 6.5t-10 17.5t-15 24.5t-17.5 28.5l-48 78l20 50q8 19 14.5 34t8.5 13t15.5 -20t30.5 -38q19 -25 43 -54l30 45q12 17 23.5 34t16.5 22q6 5 11.5 0.5t10 -12t5.5 -15.5t-2 -10q-3 -1 -14 -16.5t-26 -38.5t-31.5 -49t-30.5 -48
t-23 -37t-8 -15z" />
    <glyph glyph-name="Yacute" unicode="&#xdd;" horiz-adv-x="1662" 
d="M621 -416q-17 0 -34.5 -26t-30 -67.5t-18.5 -93t0 -101.5q6 -54 29 -111t59 -103t83 -73t102 -22q68 7 125.5 80.5t107.5 195t94.5 281.5t86.5 340t83 370.5t84.5 373t91.5 347.5t103 294t118.5 213t139.5 104q11 4 27 5.5t26.5 -3t11.5 -17.5t-17 -39q-47 -67 -89 -175
t-80 -243.5t-73.5 -292t-70 -321t-68 -329.5t-68.5 -318t-72.5 -287t-78.5 -236q-16 -41 -42 -89.5t-59.5 -97t-74.5 -93t-88.5 -78t-100 -52t-108.5 -14.5q-81 5 -141.5 33.5t-104 70t-71.5 90t-45 94t-24.5 82.5t-9.5 54q-9 74 -2 138t30.5 103t65 46t103.5 -33zM544 1100
q-59 -2 -96 14t-58.5 43.5t-29.5 63t-8 74.5q1 82 21.5 156t60.5 132t97.5 97.5t132.5 52.5q46 8 102.5 5t114.5 -21t112.5 -53t97 -92t68 -138t25.5 -191q0 -53 -15 -136.5t-38 -185t-51 -213t-56 -220t-53 -207t-40 -173.5t-18.5 -119t11.5 -44q42 1 89 48.5t95.5 124.5
t96.5 175t92 200q103 239 205 544l-48 -319q-85 -259 -178 -462q-40 -87 -85.5 -169.5t-95 -147t-101 -103.5t-103.5 -38q-51 1 -82.5 29.5t-50 67t-26.5 78t-10 62.5q-5 46 4.5 116t28 154t44 177.5t53.5 187.5t55 183.5t49 165.5t36.5 133.5t16.5 88.5q7 98 -8.5 165
t-44.5 109.5t-67 64.5t-77 29.5t-75.5 3.5t-61.5 -12q-53 -17 -90.5 -55.5t-60.5 -86.5t-32.5 -100t-7.5 -97q1 -25 6.5 -49.5t14 -46.5t18.5 -39t21 -27zM1410 1914q0 -3 11.5 -16t25.5 -28q16 -18 36 -39l-128 -123l-36 54q25 45 45 79q9 15 17 28.5t14.5 24t10.5 16
t4 4.5z" />
    <glyph glyph-name="yacute" unicode="&#xfd;" horiz-adv-x="680" 
d="M86 706q2 23 22.5 16.5t44 -31t42.5 -60.5t18 -72q0 -8 -3.5 -34t-9.5 -62.5t-13 -80.5t-15 -87t-15 -82.5t-12 -67.5q-10 -51 -2.5 -58t35.5 15q35 28 65.5 70t55.5 89t45 95t34.5 88t23.5 68t12 35q14 29 25.5 35.5t18 -2t6 -29t-9.5 -46.5q-13 -35 -33.5 -87.5
t-48 -110.5t-60.5 -115.5t-71 -104t-80 -75.5t-86 -29q-11 0 -26 5t-29 18.5t-24 38t-10 62.5q0 8 7 51t17.5 104.5t23 132.5t24 135t19 112t9.5 64zM760 -163q52 -1 93 -24.5t69.5 -61t43 -84.5t14.5 -94q0 -91 -22.5 -149.5t-55.5 -92.5t-69 -47t-63 -14q-52 -1 -118 20.5
t-140 54t-152.5 71t-155 72.5t-148 57t-131.5 25q-50 2 -87.5 -16t-62.5 -51t-37.5 -79.5t-12.5 -100.5q0 -21 9 -48.5t29.5 -50.5t52 -37t75.5 -8q33 5 67.5 43t69.5 100.5t70 145.5t68.5 178.5t65 199.5t59.5 208t52.5 203.5t44 187.5t33 159t20.5 118q2 17 13.5 10
t27 -28.5t32.5 -52t31 -60.5t22 -54.5t6 -32.5q-48 -189 -93 -363.5t-92 -326.5t-98.5 -277.5t-111.5 -217t-131 -145t-157 -60.5q-83 -8 -139.5 15.5t-90.5 63t-48.5 88t-14.5 90.5q-1 67 22.5 122t65 92t99 54t125.5 9q72 -8 152.5 -37t162.5 -67t161.5 -79t149 -73
t126.5 -49t93 -7q58 17 85 84.5t25 170.5q0 81 -29.5 139t-74.5 107zM454 109l13 11q35 28 68 68.5t62 85.5t53.5 90.5t43 83.5t30 65t14.5 34q14 29 25.5 35.5t18 -2t6.5 -29t-10 -46.5q-11 -30 -29.5 -72.5t-43.5 -90t-55.5 -97t-64.5 -93.5t-71 -79t-75 -54zM392 1034
q0 -3 11.5 -16t25.5 -28q16 -18 36 -39l-128 -123l-36 54q25 45 45 79q9 15 17 28.5t14.5 24t10.5 16t4 4.5z" />
    <glyph glyph-name="Zcaron" unicode="&#x17d;" horiz-adv-x="1480" 
d="M1183 323q84 1 141 -24.5t89 -68.5t41 -99t-3 -114.5t-43 -115t-79 -101t-111 -73t-138 -30.5q-62 -2 -125 16t-127 47.5t-127 67.5t-124.5 75.5t-119.5 72t-112 58t-102.5 31.5t-90.5 -6q-29 -11 -50.5 -31t-26.5 -37t12 -25.5t65 3.5q63 15 122 76.5t116 156t113 215
t113 253t116.5 270.5t123 268t133 245t147 201t163.5 136.5t183 51.5q48 0 83 -11t57 -30t32 -44t10 -52q0 -32 -14 -63.5t-39.5 -56.5t-61.5 -40t-81 -14q-11 0 -54 7t-104.5 17.5t-135.5 24t-146 26t-135 23.5t-104 17q-59 8 -122 -4.5t-114.5 -51.5t-84 -106.5
t-29.5 -167.5q1 -19 8 -51t22 -62.5t40 -52.5t62 -22q-41 -23 -83 -20.5t-78 23.5t-61.5 58t-34.5 85q-17 94 -3.5 168t47.5 129t84.5 91.5t108 57t117.5 25.5t113 -3q51 -8 113 -24.5t130 -36t137.5 -38.5t134 -31t121 -14t97.5 12q29 10 51 29t27 36t-12 26t-65 -1
q-68 -13 -130 -73t-121.5 -153.5t-117 -213t-115.5 -252t-117 -270.5t-122 -268t-130.5 -245.5t-142.5 -203t-158 -139.5t-176 -55q-48 -2 -80.5 9t-53.5 30t-32 44.5t-17 52.5q-6 30 0.5 65.5t28.5 68t60.5 57t96.5 31.5q26 3 65.5 -11t87.5 -38.5t102.5 -57t111 -67.5
t112.5 -69t106.5 -62.5t93 -48t73.5 -24.5q59 -8 122 5t114.5 52t83.5 106t29 167q0 17 -6 45t-18.5 56.5t-32.5 52.5t-49 32zM1086 1897l-3.5 6.5t-10 17.5t-15 24.5t-17.5 28.5l-48 78l20 50q8 19 14.5 34t8.5 13t15.5 -20t30.5 -38q19 -25 43 -54l30 45q12 17 23.5 34
t16.5 22q6 5 11.5 0.5t10 -12t5.5 -15.5t-2 -10q-3 -1 -14 -16.5t-26 -38.5t-31.5 -49t-30.5 -48t-23 -37t-8 -15z" />
    <glyph glyph-name="zcaron" unicode="&#x17e;" horiz-adv-x="661" 
d="M30 405q-55 64 -71.5 112t-6 82.5t41 56t69.5 33.5t79.5 15.5t70.5 1.5q24 -2 57 -4.5t69.5 -5.5t72.5 -5.5t66 -4t50.5 -1t26.5 3.5q8 4 15 1.5t10.5 -9.5t4 -17.5t-4.5 -20.5q-3 -5 -15.5 -38.5t-33.5 -84t-48 -113.5t-58.5 -127.5t-66 -126t-69.5 -109.5t-70.5 -77
t-67.5 -29q-31 0 -59.5 5.5t-50 21t-35.5 43t-17 71.5q-5 65 14 95.5t52 36.5q25 5 57.5 -9t68 -36.5t71 -50t67 -51t56.5 -37.5t39 -10q38 10 69.5 42t64.5 95t72.5 162t93.5 243q6 17 15.5 21t17.5 -2t11.5 -20t-2.5 -32q-54 -163 -94.5 -277t-76.5 -186t-73.5 -106
t-85.5 -36q-26 -1 -58 16.5t-66.5 43t-69.5 55t-67 53.5t-59 37t-45 6q-14 -5 -22.5 -21t-10.5 -49q0 -10 2.5 -20t9 -16.5t16.5 -8t24 4.5q7 3 23.5 30t39 69t49 94.5t52.5 106.5q62 128 135 288q-34 7 -63 11q-25 4 -48.5 6t-31.5 -1q-6 -2 -24.5 -4t-43 -9.5t-51 -21
t-47.5 -37.5t-33 -60.5t-7 -88.5zM312 791l-3.5 6.5t-10 17.5t-15 24.5t-17.5 28.5l-48 78l20 50q8 19 14.5 34t8.5 13t15.5 -20t30.5 -38q19 -25 43 -54l30 45q12 17 23.5 34t16.5 22q6 5 11.5 0.5t10 -12t5.5 -15.5t-2 -10q-3 -1 -14 -16.5t-26 -38.5t-31.5 -49t-30.5 -48
t-23 -37t-8 -15z" />
    <glyph glyph-name="ydieresis" unicode="&#xff;" horiz-adv-x="680" 
d="M86 706q2 23 22.5 16.5t44 -31t42.5 -60.5t18 -72q0 -8 -3.5 -34t-9.5 -62.5t-13 -80.5t-15 -87t-15 -82.5t-12 -67.5q-10 -51 -2.5 -58t35.5 15q35 28 65.5 70t55.5 89t45 95t34.5 88t23.5 68t12 35q14 29 25.5 35.5t18 -2t6 -29t-9.5 -46.5q-13 -35 -33.5 -87.5
t-48 -110.5t-60.5 -115.5t-71 -104t-80 -75.5t-86 -29q-11 0 -26 5t-29 18.5t-24 38t-10 62.5q0 8 7 51t17.5 104.5t23 132.5t24 135t19 112t9.5 64zM760 -163q52 -1 93 -24.5t69.5 -61t43 -84.5t14.5 -94q0 -91 -22.5 -149.5t-55.5 -92.5t-69 -47t-63 -14q-52 -1 -118 20.5
t-140 54t-152.5 71t-155 72.5t-148 57t-131.5 25q-50 2 -87.5 -16t-62.5 -51t-37.5 -79.5t-12.5 -100.5q0 -21 9 -48.5t29.5 -50.5t52 -37t75.5 -8q33 5 67.5 43t69.5 100.5t70 145.5t68.5 178.5t65 199.5t59.5 208t52.5 203.5t44 187.5t33 159t20.5 118q2 17 13.5 10
t27 -28.5t32.5 -52t31 -60.5t22 -54.5t6 -32.5q-48 -189 -93 -363.5t-92 -326.5t-98.5 -277.5t-111.5 -217t-131 -145t-157 -60.5q-83 -8 -139.5 15.5t-90.5 63t-48.5 88t-14.5 90.5q-1 67 22.5 122t65 92t99 54t125.5 9q72 -8 152.5 -37t162.5 -67t161.5 -79t149 -73
t126.5 -49t93 -7q58 17 85 84.5t25 170.5q0 81 -29.5 139t-74.5 107zM454 109l13 11q35 28 68 68.5t62 85.5t53.5 90.5t43 83.5t30 65t14.5 34q14 29 25.5 35.5t18 -2t6.5 -29t-10 -46.5q-11 -30 -29.5 -72.5t-43.5 -90t-55.5 -97t-64.5 -93.5t-71 -79t-75 -54zM139 845
q-3 29 8.5 48.5t31.5 19.5t36.5 -19.5t19.5 -48.5q3 -28 -10 -47t-33 -19t-35 19t-18 47zM282 838q-3 27 9 45t32 18t35 -18t18 -45q2 -26 -9.5 -44.5t-31.5 -18.5t-35.5 18.5t-17.5 44.5z" />
    <glyph glyph-name="Ydieresis" unicode="&#x178;" horiz-adv-x="1662" 
d="M621 -416q-17 0 -34.5 -26t-30 -67.5t-18.5 -93t0 -101.5q6 -54 29 -111t59 -103t83 -73t102 -22q68 7 125.5 80.5t107.5 195t94.5 281.5t86.5 340t83 370.5t84.5 373t91.5 347.5t103 294t118.5 213t139.5 104q11 4 27 5.5t26.5 -3t11.5 -17.5t-17 -39q-47 -67 -89 -175
t-80 -243.5t-73.5 -292t-70 -321t-68 -329.5t-68.5 -318t-72.5 -287t-78.5 -236q-16 -41 -42 -89.5t-59.5 -97t-74.5 -93t-88.5 -78t-100 -52t-108.5 -14.5q-81 5 -141.5 33.5t-104 70t-71.5 90t-45 94t-24.5 82.5t-9.5 54q-9 74 -2 138t30.5 103t65 46t103.5 -33zM544 1100
q-59 -2 -96 14t-58.5 43.5t-29.5 63t-8 74.5q1 82 21.5 156t60.5 132t97.5 97.5t132.5 52.5q46 8 102.5 5t114.5 -21t112.5 -53t97 -92t68 -138t25.5 -191q0 -53 -15 -136.5t-38 -185t-51 -213t-56 -220t-53 -207t-40 -173.5t-18.5 -119t11.5 -44q42 1 89 48.5t95.5 124.5
t96.5 175t92 200q103 239 205 544l-48 -319q-85 -259 -178 -462q-40 -87 -85.5 -169.5t-95 -147t-101 -103.5t-103.5 -38q-51 1 -82.5 29.5t-50 67t-26.5 78t-10 62.5q-5 46 4.5 116t28 154t44 177.5t53.5 187.5t55 183.5t49 165.5t36.5 133.5t16.5 88.5q7 98 -8.5 165
t-44.5 109.5t-67 64.5t-77 29.5t-75.5 3.5t-61.5 -12q-53 -17 -90.5 -55.5t-60.5 -86.5t-32.5 -100t-7.5 -97q1 -25 6.5 -49.5t14 -46.5t18.5 -39t21 -27zM1292 1815q-3 29 8.5 48.5t31.5 19.5t36.5 -19.5t19.5 -48.5q3 -28 -10 -47t-33 -19t-35 19t-18 47zM1435 1808
q-3 27 9 45t32 18t35 -18t18 -45q2 -26 -9.5 -44.5t-31.5 -18.5t-35.5 18.5t-17.5 44.5z" />
    <glyph glyph-name="florin" unicode="&#x192;" horiz-adv-x="467" 
d="M-27 -550q23 -13 44.5 15.5t38.5 85.5t28.5 134t13.5 162t-7 169.5t-32 155.5t-61.5 122t-95.5 67q-12 3 -16.5 17.5t-2.5 28.5t11 23.5t24 2.5q3 -1 24.5 -12.5t56 -25.5t79 -27.5t94 -19t101 0.5t99.5 31t89.5 72t71.5 124q4 11 11.5 10.5t14.5 -6.5t11 -14.5t3 -12.5
q-27 -73 -63 -123.5t-77 -83t-84.5 -49.5t-84.5 -24q-97 -16 -202 13q25 -37 42.5 -98t27 -136t10 -158t-7.5 -163t-25 -151t-43.5 -122.5t-62 -77.5t-80.5 -16q-13 3 -27 14.5t-26 32t-21 49t-12 65.5q-8 83 4 201t37 255t60 285.5t73 292.5q27 100 58 196.5t66 183.5
t72 161t75.5 128.5t78 86t77.5 33.5q43 4 67.5 -17t36.5 -55t15.5 -76.5t4.5 -81.5q1 -81 -15.5 -155.5t-44.5 -139.5t-65 -118.5t-76 -91.5t-78 -59t-71 -22q-49 -2 -89 18.5t-69.5 48t-46.5 55t-20 40.5q-7 27 -6.5 37.5t12.5 5.5q3 -2 12 -13.5t23 -28t32 -35t40.5 -33.5
t48 -25t53.5 -9q42 2 81.5 30.5t74.5 74t64.5 102.5t50.5 115.5t33 113.5t13 97q0 21 -3.5 38.5t-9.5 30.5t-12.5 19.5t-12.5 4.5q-8 -2 -26.5 -31t-44 -78.5t-57.5 -118t-66 -150t-69.5 -172.5t-68.5 -187q-40 -116 -75 -233.5t-62 -228t-45.5 -208.5t-24.5 -174t1 -125.5
t30 -62.5z" />
    <glyph glyph-name="underscore" unicode="_" 
 />
    <glyph glyph-name="minus" unicode="&#x2212;" horiz-adv-x="503" 
d="M398 456l-9 -94l-227 -3l6 93z" />
    <glyph glyph-name="multiply" unicode="&#xd7;" horiz-adv-x="559" 
d="M405 245l-183 235l25 84l185 -238zM382 568l42 -86l-137 -235l-43 84z" />
    <glyph glyph-name="NULL" horiz-adv-x="0" 
 />
    <glyph glyph-name="NULL" horiz-adv-x="0" 
 />
    <glyph glyph-name="nonmarkingreturn" unicode="&#xd;" horiz-adv-x="457" 
 />
    <glyph glyph-name="a" unicode="a" horiz-adv-x="641" 
d="M362 706q1 15 11.5 17t25 -6.5t30.5 -25t30 -38t22.5 -46t8.5 -48.5q0 -8 -6.5 -32.5t-16 -59.5t-21.5 -76.5t-23 -82.5t-20.5 -79t-14.5 -66q-11 -52 -3 -58.5t34 15.5q35 28 69.5 70.5t65.5 91t57.5 98t46.5 91t33 70.5t16 36q13 29 24.5 35.5t18 -2t6.5 -29t-10 -46.5
q-13 -35 -37 -88t-57 -112.5t-73 -119.5t-83 -107.5t-88.5 -77.5t-89.5 -30q-11 0 -26.5 5t-29.5 18.5t-24.5 38t-11.5 62.5q0 6 5.5 32t15 64t21 86t24 98t24.5 99t22 90t16.5 71t7.5 42zM-51 232q-3 34 1.5 83t19 102t39 106.5t61 96.5t85 72.5t110.5 34.5q20 2 39 -8.5
t32.5 -34.5t19.5 -61t0 -88q0 -5 -5 -19.5t-11 -27t-10.5 -19t-2.5 4.5q5 32 4 58.5t-6.5 45.5t-14 30t-18.5 12q-24 3 -53 -29.5t-55 -88t-45 -126.5t-23 -144q0 -8 1.5 -28t7 -40t14 -35.5t21.5 -15.5t28.5 19t29.5 42q16 27 31 62l42 -56q-17 -47 -42.5 -77.5t-55 -49
t-59 -25.5t-54.5 -6q-35 3 -59 27t-39 57t-23 68t-10 58z" />
    <glyph glyph-name="zero" unicode="0" horiz-adv-x="813" 
d="M584 521l-91 -83l24 -124l-107 63l-110 -63l26 121l-92 86l124 13l52 114l50 -113zM455 384l-29 172h-35l-30 -172l15 -9l13 9l6 39h26l7 -39l14 -9zM419 448h-20l9 68zM407 14h14l-5 12q-1 2 -1 3.5t-2 3.5q0 -3 -2 -7zM235 -3v5h7v-5h-7zM563 -3v42h5v-38h21v-4h-26z
M525 -3v42h30v-6h-25v-13h23v-5h-23v-14h25v-4h-30zM377 -3v17l-16 25h7l8 -13q2 -6 4 -7q1 1 2 3t3 4l8 13h6l-17 -25v-17h-5zM251 -3v42h16q2 0 3.5 -1t2.5 -1q4 -1 5 -4q2 -2 2 -6q0 -3 -2 -4q-1 -4 -4 -4q3 -1 6 -4q2 -4 2 -6t-0.5 -3t-0.5 -2q-1 -4 -4 -4q-1 -2 -2 -2
t-2 -1h-6h-16zM137 -3l-12 42h6l6 -28q1 -3 1 -5t1 -4q1 5 1 8l8 29h7l6 -22q1 -5 2 -8t1 -7q1 2 1 4t1 5l7 28h5l-12 -42h-5l-8 31q-1 3 -1 5q-1 -2 -1 -5l-9 -31h-5zM82 -3l-12 42h7l5 -28q0 -5 3 -9q1 5 1 8l8 29h6l7 -22q1 -5 1.5 -8t0.5 -7q2 2 2 4t1 5l6 28h6l-12 -42
h-5l-8 31q-1 3 -1 5q-2 -2 -2 -5l-9 -31h-5zM256 20h9q4 0 5 2q3 0 3 1q1 1 1 4t-1 4h-1q-1 0 -1 0.5t-1 0.5q-1 1 -6 1h-8v-13zM190 -3l-11 42h6l6 -28q1 -3 1 -5t2 -4q0 4 0.5 5.5t0.5 2.5l8 29h6l7 -22q1 -5 1.5 -8t0.5 -7q2 2 2 4t1 5l7 28h5l-12 -42h-5l-8 31
q-1 3 -1 5q-2 -2 -2 -5l-9 -31h-6zM443 19h12q2 0 3.5 0.5t3.5 0.5t2 3q1 1 1 4t-2 5q-1 1 -7 1h-13v-14zM256 1h11q2 0 3 1h3q1 2 3 3v4q0 2 -2 4q0 2 -2 2h-7h-9v-14zM290 -3v42h5v-42h-5zM657 17q0 -9 3 -12q4 -4 11 -4t10 4q4 3 4 13q0 5 -1 8q-2 5 -5 6t-8 1
q-6 0 -9 -3q-5 -4 -5 -13zM651 17q0 11 6 16q4 6 14 6q3 0 5.5 -1t4.5 -2q3 -1 4.5 -3t3.5 -5q1 -2 1 -10q0 -9 -2 -12q-3 -5 -7 -8q-4 -2 -10 -2q-3 0 -5.5 0.5t-5.5 1.5q-2 2 -3.5 4t-2.5 4q-1 3 -2 5.5t-1 5.5zM395 -3l16 42h6l17 -42h-6l-5 12h-17l-6 -12h-5zM306 -3v42
h5v-38h19v-4h-24zM595 -3v5h7v-5h-7zM499 13v5h17v-16q-4 -4 -8 -5q-2 0 -4.5 -0.5t-4.5 -0.5q-6 0 -10 2q-3 2 -5 3.5t-3 4.5t-2 5.5t-1 5.5q0 4 1 6t2 5q2 6 7 8q2 1 5 2t6 1q5 0 8 -2q4 -1 5 -4q3 -3 4 -6l-5 -1q0 1 -3 4q0 2 -4 3h-5h-6q-3 -1 -5 -3q0 -1 -3 -4
q0 -2 -0.5 -4t-0.5 -4q0 -7 2 -9q4 -6 5 -7q3 -1 8 -1q4 0 7 1q2 2 3 2t2 1v8h-12zM438 -3v42h18q3 0 5 -1t4 -1q3 -1 4 -4q2 -2 2 -6q0 -5 -3 -8q-1 -1 -3.5 -1.5t-5.5 -2.5q2 0 2.5 -0.5t1.5 -0.5q1 -2 1.5 -3.5t2.5 -3.5l8 -10h-7l-6 8q-2 2 -2.5 3.5t-1.5 2.5q0 2 -1 2
t-2 1h-1q-1 0 -1 0.5t-1 0.5h-2h-7v-18h-5zM337 -3v42h6v-38h20v-4h-26zM641 11l5 -1q-2 -8 -6 -10q-4 -4 -11 -4q-6 0 -10 2q-3 2 -4 4t-3 4q-2 8 -2 12t2 12q5 5 7 6q3 1 5 2t5 1t6 -1t5 -2q2 -2 3.5 -4t2.5 -5l-6 -1q0 4 -4 6q-2 1 -7 1q-6 0 -8 -1t-2.5 -2.5t-2.5 -3.5
q0 -2 -0.5 -4t-0.5 -4q0 -6 3 -9q0 -2 1 -3.5t2 -3.5q3 -1 8 -1t8 3t4 7zM698 -3v42h8l10 -30q0 -2 1 -3.5t1 -3.5q0 1 2 7l9 30h8v-42h-5v34l-12 -34h-5l-12 35v-35h-5zM407 14h14l-5 12q-1 2 -1 3.5t-2 3.5q0 -3 -2 -7zM235 -3v5h7v-5h-7zM563 -3v42h5v-38h21v-4h-26z
M525 -3v42h30v-6h-25v-13h23v-5h-23v-14h25v-4h-30zM377 -3v17l-16 25h7l8 -13q2 -6 4 -7q1 1 2 3t3 4l8 13h6l-17 -25v-17h-5zM251 -3v42h16q2 0 3.5 -1t2.5 -1q4 -1 5 -4q2 -2 2 -6q0 -3 -2 -4q-1 -4 -4 -4q3 -1 6 -4q2 -4 2 -6t-0.5 -3t-0.5 -2q-1 -4 -4 -4q-1 -2 -2 -2
t-2 -1h-6h-16zM137 -3l-12 42h6l6 -28q1 -3 1 -5t1 -4q1 5 1 8l8 29h7l6 -22q1 -5 2 -8t1 -7q1 2 1 4t1 5l7 28h5l-12 -42h-5l-8 31q-1 3 -1 5q-1 -2 -1 -5l-9 -31h-5zM82 -3l-12 42h7l5 -28q0 -5 3 -9q1 5 1 8l8 29h6l7 -22q1 -5 1.5 -8t0.5 -7q2 2 2 4t1 5l6 28h6l-12 -42
h-5l-8 31q-1 3 -1 5q-2 -2 -2 -5l-9 -31h-5zM256 20h9q4 0 5 2q3 0 3 1q1 1 1 4t-1 4h-1q-1 0 -1 0.5t-1 0.5q-1 1 -6 1h-8v-13zM190 -3l-11 42h6l6 -28q1 -3 1 -5t2 -4q0 4 0.5 5.5t0.5 2.5l8 29h6l7 -22q1 -5 1.5 -8t0.5 -7q2 2 2 4t1 5l7 28h5l-12 -42h-5l-8 31
q-1 3 -1 5q-2 -2 -2 -5l-9 -31h-6zM443 19h12q2 0 3.5 0.5t3.5 0.5t2 3q1 1 1 4t-2 5q-1 1 -7 1h-13v-14zM256 1h11q2 0 3 1h3q1 2 3 3v4q0 2 -2 4q0 2 -2 2h-7h-9v-14zM290 -3v42h5v-42h-5zM657 17q0 -9 3 -12q4 -4 11 -4t10 4q4 3 4 13q0 5 -1 8q-2 5 -5 6t-8 1
q-6 0 -9 -3q-5 -4 -5 -13zM651 17q0 11 6 16q4 6 14 6q3 0 5.5 -1t4.5 -2q3 -1 4.5 -3t3.5 -5q1 -2 1 -10q0 -9 -2 -12q-3 -5 -7 -8q-4 -2 -10 -2q-3 0 -5.5 0.5t-5.5 1.5q-2 2 -3.5 4t-2.5 4q-1 3 -2 5.5t-1 5.5zM395 -3l16 42h6l17 -42h-6l-5 12h-17l-6 -12h-5zM306 -3v42
h5v-38h19v-4h-24zM595 -3v5h7v-5h-7zM499 13v5h17v-16q-4 -4 -8 -5q-2 0 -4.5 -0.5t-4.5 -0.5q-6 0 -10 2q-3 2 -5 3.5t-3 4.5t-2 5.5t-1 5.5q0 4 1 6t2 5q2 6 7 8q2 1 5 2t6 1q5 0 8 -2q4 -1 5 -4q3 -3 4 -6l-5 -1q0 1 -3 4q0 2 -4 3h-5h-6q-3 -1 -5 -3q0 -1 -3 -4
q0 -2 -0.5 -4t-0.5 -4q0 -7 2 -9q4 -6 5 -7q3 -1 8 -1q4 0 7 1q2 2 3 2t2 1v8h-12zM438 -3v42h18q3 0 5 -1t4 -1q3 -1 4 -4q2 -2 2 -6q0 -5 -3 -8q-1 -1 -3.5 -1.5t-5.5 -2.5q2 0 2.5 -0.5t1.5 -0.5q1 -2 1.5 -3.5t2.5 -3.5l8 -10h-7l-6 8q-2 2 -2.5 3.5t-1.5 2.5q0 2 -1 2
t-2 1h-1q-1 0 -1 0.5t-1 0.5h-2h-7v-18h-5zM337 -3v42h6v-38h20v-4h-26zM641 11l5 -1q-2 -8 -6 -10q-4 -4 -11 -4q-6 0 -10 2q-3 2 -4 4t-3 4q-2 8 -2 12t2 12q5 5 7 6q3 1 5 2t5 1t6 -1t5 -2q2 -2 3.5 -4t2.5 -5l-6 -1q0 4 -4 6q-2 1 -7 1q-6 0 -8 -1t-2.5 -2.5t-2.5 -3.5
q0 -2 -0.5 -4t-0.5 -4q0 -6 3 -9q0 -2 1 -3.5t2 -3.5q3 -1 8 -1t8 3t4 7zM698 -3v42h8l10 -30q0 -2 1 -3.5t1 -3.5q0 1 2 7l9 30h8v-42h-5v34l-12 -34h-5l-12 35v-35h-5zM407 14h14l-5 12q-1 2 -1 3.5t-2 3.5q0 -3 -2 -7zM235 -3v5h7v-5h-7zM563 -3v42h5v-38h21v-4h-26z
M525 -3v42h30v-6h-25v-13h23v-5h-23v-14h25v-4h-30zM377 -3v17l-16 25h7l8 -13q2 -6 4 -7q1 1 2 3t3 4l8 13h6l-17 -25v-17h-5zM251 -3v42h16q2 0 3.5 -1t2.5 -1q4 -1 5 -4q2 -2 2 -6q0 -3 -2 -4q-1 -4 -4 -4q3 -1 6 -4q2 -4 2 -6t-0.5 -3t-0.5 -2q-1 -4 -4 -4q-1 -2 -2 -2
t-2 -1h-6h-16zM137 -3l-12 42h6l6 -28q1 -3 1 -5t1 -4q1 5 1 8l8 29h7l6 -22q1 -5 2 -8t1 -7q1 2 1 4t1 5l7 28h5l-12 -42h-5l-8 31q-1 3 -1 5q-1 -2 -1 -5l-9 -31h-5zM82 -3l-12 42h7l5 -28q0 -5 3 -9q1 5 1 8l8 29h6l7 -22q1 -5 1.5 -8t0.5 -7q2 2 2 4t1 5l6 28h6l-12 -42
h-5l-8 31q-1 3 -1 5q-2 -2 -2 -5l-9 -31h-5zM256 20h9q4 0 5 2q3 0 3 1q1 1 1 4t-1 4h-1q-1 0 -1 0.5t-1 0.5q-1 1 -6 1h-8v-13zM190 -3l-11 42h6l6 -28q1 -3 1 -5t2 -4q0 4 0.5 5.5t0.5 2.5l8 29h6l7 -22q1 -5 1.5 -8t0.5 -7q2 2 2 4t1 5l7 28h5l-12 -42h-5l-8 31
q-1 3 -1 5q-2 -2 -2 -5l-9 -31h-6zM443 19h12q2 0 3.5 0.5t3.5 0.5t2 3q1 1 1 4t-2 5q-1 1 -7 1h-13v-14zM256 1h11q2 0 3 1h3q1 2 3 3v4q0 2 -2 4q0 2 -2 2h-7h-9v-14zM290 -3v42h5v-42h-5zM657 17q0 -9 3 -12q4 -4 11 -4t10 4q4 3 4 13q0 5 -1 8q-2 5 -5 6t-8 1
q-6 0 -9 -3q-5 -4 -5 -13zM651 17q0 11 6 16q4 6 14 6q3 0 5.5 -1t4.5 -2q3 -1 4.5 -3t3.5 -5q1 -2 1 -10q0 -9 -2 -12q-3 -5 -7 -8q-4 -2 -10 -2q-3 0 -5.5 0.5t-5.5 1.5q-2 2 -3.5 4t-2.5 4q-1 3 -2 5.5t-1 5.5zM395 -3l16 42h6l17 -42h-6l-5 12h-17l-6 -12h-5zM306 -3v42
h5v-38h19v-4h-24zM595 -3v5h7v-5h-7zM499 13v5h17v-16q-4 -4 -8 -5q-2 0 -4.5 -0.5t-4.5 -0.5q-6 0 -10 2q-3 2 -5 3.5t-3 4.5t-2 5.5t-1 5.5q0 4 1 6t2 5q2 6 7 8q2 1 5 2t6 1q5 0 8 -2q4 -1 5 -4q3 -3 4 -6l-5 -1q0 1 -3 4q0 2 -4 3h-5h-6q-3 -1 -5 -3q0 -1 -3 -4
q0 -2 -0.5 -4t-0.5 -4q0 -7 2 -9q4 -6 5 -7q3 -1 8 -1q4 0 7 1q2 2 3 2t2 1v8h-12zM438 -3v42h18q3 0 5 -1t4 -1q3 -1 4 -4q2 -2 2 -6q0 -5 -3 -8q-1 -1 -3.5 -1.5t-5.5 -2.5q2 0 2.5 -0.5t1.5 -0.5q1 -2 1.5 -3.5t2.5 -3.5l8 -10h-7l-6 8q-2 2 -2.5 3.5t-1.5 2.5q0 2 -1 2
t-2 1h-1q-1 0 -1 0.5t-1 0.5h-2h-7v-18h-5zM337 -3v42h6v-38h20v-4h-26zM641 11l5 -1q-2 -8 -6 -10q-4 -4 -11 -4q-6 0 -10 2q-3 2 -4 4t-3 4q-2 8 -2 12t2 12q5 5 7 6q3 1 5 2t5 1t6 -1t5 -2q2 -2 3.5 -4t2.5 -5l-6 -1q0 4 -4 6q-2 1 -7 1q-6 0 -8 -1t-2.5 -2.5t-2.5 -3.5
q0 -2 -0.5 -4t-0.5 -4q0 -6 3 -9q0 -2 1 -3.5t2 -3.5q3 -1 8 -1t8 3t4 7zM698 -3v42h8l10 -30q0 -2 1 -3.5t1 -3.5q0 1 2 7l9 30h8v-42h-5v34l-12 -34h-5l-12 35v-35h-5zM117 74l8 -3q-2 -9 -9 -15q-8 -6 -17 -6t-17 4q-8 6 -9 12q-4 7 -4 17q0 11 4 18q3 7 10 10q7 4 16 4
q11 0 15 -5q7 -2 10 -13l-8 -1q-4 8 -7 9q-4 4 -10 4q-8 0 -12 -4q-6 -4 -8 -9q-1 -4 -1 -13t3 -13q2 -7 6 -9q5 -4 11 -4q8 0 13 5q2 2 3.5 5t2.5 7zM133 82q0 8 2 14t7 10q4 5 9.5 7t11.5 2q9 0 16 -4q6 -3 11 -11q4 -10 4 -17q0 -5 -1 -9t-3 -8q-5 -8 -12 -12
q-8 -4 -15 -4q-5 0 -8.5 1t-7.5 3q-7 4 -10 12q-4 7 -4 16zM142 82q0 -12 5 -19q7 -6 16 -6q10 0 15 8q7 7 7 18q0 4 -1 7l-2 6q-2 7 -8 9q-3 4 -11 4t-15 -7q-6 -5 -6 -20zM204 52v62h12l15 -44q3 -6 3 -9q2 2 4 10l16 43h10v-62h-8v52l-18 -52h-8l-18 53v-53h-8zM278 52
v62h24h9q5 0 8 -3q1 -1 5 -6q1 -2 1.5 -4t0.5 -5q0 -6 -5 -13q-5 -5 -19 -5h-16v-26h-8zM286 84h17q9 0 10 4q4 1 4 8q0 5 -1 6q-4 4 -7 4q-1 2 -7 2h-16v-24zM337 52v62h8v-56h31v-6h-39zM386 52v62h46v-6h-38v-20h35v-8h-35v-22h39v-6h-47zM460 52v56h-21v6h51v-6h-21v-56
h-9zM499 52v62h46v-6h-38v-20h35v-8h-35v-22h39v-6h-47zM580 71l8 1q0 -5 2 -7q2 -4 7 -6q2 -1 9 -1h4.5t4.5 1q3 0 5 4q1 2 1 6q0 3 -1 5q-1 1 -2.5 1.5t-3.5 2.5q-1 0 -11 2q-5 2 -8 2.5t-5 1.5q-4 2 -6 7q-2 1 -2.5 3t-0.5 4q0 6 4 10q1 2 3 3t5 3q2 1 12 1q7 0 11 -2
q3 -2 5 -3t3 -4q4 -3 4 -9l-8 -1q-2 8 -5 9q-3 3 -10 3q-10 0 -12 -3q-3 -3 -3 -7q0 -3 3 -5l12 -5q5 -1 8.5 -2t5.5 -2q3 -1 4.5 -2.5l3.5 -3.5q2 -3 2 -9q0 -7 -2 -10q-4 -4 -8 -6l-6 -2t-7 -1t-8 1t-6 2q-5 1 -10 8q-2 4 -2 10zM641 52v62h45v-6h-36v-20h35v-8h-35v-22
h38v-6h-47zM716 52v56h-20v6h49v-6h-21v-56h-8zM75 127v62h25h9q2 0 8 -2q1 -1 2.5 -3t2.5 -4q2 -2 2 -7q0 -9 -6 -15q-3 -5 -18 -5h-15v-26h-10zM85 161h15q9 0 12 2q4 4 4 8q0 2 -1 4l-2 4q-3 3 -5 3q-1 1 -8 1h-15v-22zM134 127v62h45v-6h-36v-20h34v-7h-34v-21h38v-8
h-47zM192 127v62h29q9 0 13 -1q5 -2 7 -5q2 -8 2 -10q0 -7 -4 -11t-14 -6q2 -2 3 -2t2 -1q5 -5 7 -9l11 -17h-10l-9 13q-1 3 -2.5 5t-2.5 4q-2 1 -2.5 2.5t-1.5 1.5q-2 1 -4 1q-1 2 -5 2h-9v-29h-10zM202 162h16q8 0 10 1q3 3 5 4q1 2 1 6t-3 7t-10 3h-19v-21zM254 148h7
q0 -2 1 -4l2 -4l2.5 -2.5t3.5 -1.5q6 -2 10 -2h4t3 1q6 2 7 4q0 1 0.5 2.5t0.5 2.5q0 4 -1 5q-3 2 -7 4q-1 1 -3.5 1t-6.5 2q-9 1 -13 4q-5 4 -7 6q-1 3 -1 8q0 2 0.5 4.5t2.5 4.5q1 4 8 6q2 2 11 2q8 0 12 -2q6 -3 8 -7q4 -6 4 -9l-8 -2q-2 7 -5 9q-4 4 -11 4q-8 0 -11 -4
q-3 -2 -3 -6t3 -5q1 -2 11 -4q9 -4 15 -4q2 -2 4 -3.5t3 -3.5q3 -3 3 -9q0 -5 -3 -9q-2 -3 -3.5 -4.5l-3.5 -3.5q-8 -2 -13 -2q-7 0 -15 2q-3 2 -5 3.5t-4 4.5q-1 3 -1.5 5.5t-0.5 6.5zM312 158q0 14 8 24q9 9 22 9q4 0 7.5 -1t8.5 -3q4 -2 6 -5t4 -7q4 -7 4 -17
q0 -9 -4 -17q-4 -7 -10 -11q-8 -4 -16 -4q-9 0 -16 5q-9 5 -10 12q-4 5 -4 15zM320 158q0 -12 6 -18t16 -6t16 6q5 7 5 18q0 4 -0.5 8t-2.5 7q-3 5 -6 7q-5 4 -12 4q-5 0 -8 -1.5t-8 -4.5q-6 -6 -6 -20zM382 127v62h9l33 -48v48h8v-62h-8l-34 49v-49h-8zM439 127l24 62h9
l26 -62h-10l-7 20h-26l-8 -20h-8zM456 153h22l-6 17q-2 4 -3 7.5t-2 5.5q0 -3 -1 -6l-2 -6zM503 127v62h9v-54h31v-8h-40zM615 189h8v-35q0 -11 -2 -15q-2 -6 -7 -9q-5 -4 -15 -4t-14 4q-3 1 -5 3.5t-4 5.5q-1 2 -1 15v35h7v-35q0 -10 2 -13q2 -4 5 -5q2 -1 4 -1.5t5 -0.5
q8 0 13 3q4 4 4 17v35zM634 148h8q0 -2 1 -4l2 -4l2.5 -2.5t3.5 -1.5q6 -2 9 -2q7 0 10 1q2 1 5 4q1 1 1 5t-1 5q-2 1 -2.5 2t-2.5 2t-5 1t-7 2q-4 1 -7.5 1.5t-4.5 2.5q-5 2 -6 6q-3 3 -3 8q0 4 3 9q1 4 7 6q4 2 12 2h6.5t5.5 -2q6 -3 9 -7q1 -2 2 -4.5t1 -4.5l-8 -2
q-2 3 -2.5 5.5t-2.5 3.5q-3 4 -11 4q-9 0 -10 -4q-4 -1 -4 -6q0 -3 2 -5t12 -4q11 -4 14 -4q3 -2 5 -3.5t3 -3.5q3 -2 3 -9q0 -6 -3 -9q-2 -3 -3.5 -4.5t-4.5 -3.5q-6 -2 -11 -2t-8.5 0.5t-6.5 1.5q-2 2 -4.5 3.5t-4.5 4.5t-3 5.5t-1 6.5zM696 127v62h45v-6h-36v-20h33v-7
h-33v-21h37v-8h-46zM205 259q0 10 -15 12q-2 0 -5 0.5t-7 0.5l-6 -7l-16 -17q-4 -5 -7.5 -9t-8.5 -7q6 -2 15 -3h5.5t6.5 1q15 1 23 8q15 12 15 21zM216 289q0 4 -5 4q-2 0 -17 -5l-11 -10q-2 -2 -4 -6l17 3q4 0 11 5q9 6 9 9zM229 307q0 -2 -3 -2q-2 0 -2.5 0.5t-2.5 0.5
q-10 -2 -23 -15q2 2 4.5 3t4.5 2q7 1 13 0q4 0 4 -5v-4q-5 -9 -28 -14q18 -2 18 -12q0 -12 -19 -25q-7 -4 -14.5 -6.5t-15.5 -3.5q-13 -3 -20 -2q-6 0 -13 3q-6 -4 -11 -4h-2q-6 2 -10 3h3q8 0 13 4v1q-7 -4 -15 -4q-11 0 -17 6q-10 7 -10 21q0 4 1 7.5t3 8.5q7 15 24 26
q5 5 10.5 6.5t10.5 2.5q11 0 15 -4q-5 3 -10 3q-6 0 -13 -4q-10 -4 -11 -6q-10 -5 -20 -17q-9 -14 -9 -24q0 -5 1 -8t3 -6q4 -6 11 -8q3 -1 5 -1.5t4 -0.5q4 0 7 1t7 3q-11 8 -11 22q2 13 16 23l-2 -3q-2 0 -4 -4q-6 -6 -6 -13q0 -13 15 -22q8 5 8 6q2 3 4 5l4 4t2.5 5
t2.5 6v-1q0 -5 -1 -8l12 14q31 35 51 41q-9 3 -14 3q-13 -1 -28 -9q-18 -9 -18 -22q0 -4 3 -7q1 -1 1 -2q-6 4 -6 10q0 11 13 22q16 12 34 10q6 0 18 -4h4q5 0 8 -2h1zM231 242q-1 -4 -8 -11q-7 -4 -12 -4t-5 6q0 5 6 13h-1q-1 -1 -4 -1l-1 1q3 0 10 7h1l3 4q3 3 3 5h3
q3 0 3 -1q0 -4 -6 -11l-7 -7q-6 -9 -6 -12t4 -3q5 0 12 10q1 1 2 1.5t3 2.5zM236 270q-4 -6 -10 -6q-3 0 -7 3h3q7 0 9 7v2l5 -2q1 -1 0 -4zM271 289q0 -5 -31 -42h-1q-9 -11 -9 -17q0 -3 3 -3q6 0 13 10q1 1 2 1.5t2 2.5q0 -5 -8 -11q-5 -4 -11 -4q-6 1 -6 6q-1 5 20 31
l12 15l6 6q3 4 5 10q3 -2 3 -5zM288 289q0 -4 -32 -42q-10 -12 -10 -17q0 -3 4 -3t13 10l4 4q-1 -5 -9 -11q-5 -4 -11 -4q-6 1 -6 6q0 6 20 31l12 15l6 6q5 6 6 10q3 -2 3 -5zM269 222q-16 -3 -25 -12q-7 -9 -7 -11q0 -4 4 -4q1 -1 7 1l4.5 4.5l5.5 5.5zM298 287
q-2 -14 -13 -25q0 -1 -0.5 -1t-0.5 -1q-3 -4 -6.5 -7.5t-6.5 -8.5q-2 -2 -2 -4q-1 2 1 6q-6 -9 -6 -14q0 -3 3 -3q1 0 5 2q15 12 21 34v-3v-3q2 -2 2 -5q0 -2 -5 -10l-8 -13l-9 -12q3 2 11 6l-1 -1q-2 -2 -5.5 -4.5t-6.5 -7.5l-8 -10l-4 -5q-6 -6 -13 -8q-6 0 -9 4
q-6 2 -2 9q1 1 2 3t3 4l1 1l-7 -1q17 12 28 13q1 0 2 0.5t2 0.5h1h2l6 9q-4 -4 -7 -4.5t-5 -0.5q-5 0 -5 5q0 12 21 31l2 1l10 10q2 4 4 7t3 6zM412 302q-6 2 -10 2q-10 0 -18.5 -2.5t-17.5 -7.5q-4 -2 -6.5 -4.5t-5.5 -4.5q12 -1 32 -13q22 22 38 28zM433 298
q-4 -1 -8.5 -2.5t-9.5 -6.5q-3 -2 -15 -14l-7 -7l10 -6q2 3 6 7.5t9 10.5zM442 315q0 -1 -1 -2q0 -7 -3 -14l1 -1h-1q-5 -12 -13 -20l-16 -19q2 -1 3 -1t3 -1q0 -2 -1 -2q-2 0 -3 0.5l-3 1.5q-12 -13 -13 -24q-2 -4 -2 -6q0 -4 4 -4q8 0 17 13l4 6q10 14 13 25v3q0 -1 1 -2
v-1q-2 -14 -10 -26l-13 -26q0 4 3 13q-12 -9 -18 -9q-9 0 -7 12q0 6 4 13.5t10 16.5l-10 5l-9 -9q-3 -4 -8.5 -10t-13.5 -16q-16 -16 -28 -16h-3q-3 0 -9 3h2q9 -2 18 7q-8 -4 -19 -4t-18 5h1q-10 7 -10 21q0 10 4 15q6 16 23 27q6 5 11.5 6.5t11.5 2.5q10 0 14 -4h-1
q-2 2 -9 2q-10 0 -25 -9q-11 -8 -19 -17q-9 -14 -9 -25q0 -16 15 -21q6 -2 9 -2q21 1 46 28l19 20q-15 9 -34 9h-1q-2 -4 -2 -9q1 0 5 -6q-7 4 -7 10q0 3 1 5q-10 -2 -13 -4q-18 -7 -16 -21q0 -9 6 -16l2 -2q-12 12 -12 21q0 13 12 22q10 7 25 7q14 16 35 19q5 1 16 1
q5 0 15 -2l12 -3h6l1 -1q4 7 6 17h1v-2zM455 250q0 -3 -1 -5q-5 -5 -8.5 -9t-6.5 -9h1h1q-1 -1 -2 -1t-1 -1q-5 0 -5 2q0 4 9 13q7 9 7 11q1 3 -3 6q-12 -17 -21 -21l-4 -2l-2 1q4 0 13 10q9 8 12 13q0 1 -0.5 1t-0.5 1t7 7q0 1 1 1l1 -1q0 -1 -5 -8q8 -3 8 -9zM484 253
q0 6 -4 4q-4 0 -6 -2q-3 -2 -9 -10t-6 -13q-1 -2 2 -2q6 2 10 7q4 8 4 11q0 2 -1 2q4 0 4 -5l-1 -2q2 2 3.5 4.5t3.5 4.5v1zM503 262q-4 0 -9 -5q-4 -5 -8 -11t-9 -14q-5 -10 -9 -15.5t-5 -7.5q-13 -16 -20 -16q-6 -1 -9 4v5q0 5 4 9q-2 -1 -5 -1q10 10 22 13q1 0 1.5 0.5
t2.5 0.5l1 -1q-19 -6 -23 -18q-1 -2 -1 -5q0 -1 1 -2q0 -1 1 -1q8 -1 19 15l7 10l4 6q-3 -1 -5 -1q-8 0 -8 8q0 9 13 21q6 6 11 6q7 0 7 -8h1l5 6q5 5 9 5q3 0 5 -3h-3zM521 255q0 -6 -11 -12q-1 -1 -2 -1h-1q-3 0 -6 5q2 -2 5 -2q7 4 9 11v2v1v1q-4 0 -13 -9v-1
q-3 -4 -3.5 -6.5t-0.5 -4.5q-1 1 -1 6q-2 -4 -3 -7q-2 -4 -2 -7q0 -1 1 -2q0 -2 4 -2q10 4 17 10q2 2 5 4q-2 -3 -4 -5.5t-7 -5.5q-8 -5 -14 -3q0 -1 -1 0q-6 0 -6 6q0 10 11 20q6 9 16 9q2 0 3 -1q4 -3 4 -6zM561 289q0 -4 -32 -42q-9 -11 -9 -17q0 -3 3 -3q6 0 13 10
q1 1 2 1.5t2 2.5q0 -5 -8 -11q-5 -4 -12 -4q-5 2 -5 6q0 8 19 31l12 15l6 6q6 6 6 10q3 -2 3 -5zM615 258q-17 6 -18 19q-5 -3 -10 -5.5t-8 -5.5q-19 -18 -19 -33q0 -6 3 -7h2h2q15 0 28 10q4 4 9.5 9t10.5 13zM635 287h-8q-12 -1 -29 -9q2 -14 19 -17l7 9zM653 305
q-13 0 -23.5 -2t-18.5 -7q5 5 12.5 8t16.5 5q-20 1 -35 -12q-3 -2 -7 -10q7 2 13.5 3t14.5 0h5t8 -1q2 3 5.5 7t8.5 9zM716 306q-2 -3 -4.5 -5.5t-7.5 -4.5q-8 -5 -15 -5h-2q-1 0 -2 1q1 1 1 2t2 3q-9 7 -25 7l-4 -5l-10 -12q8 -1 15 -2t13 -1q14 0 19 3q-4 -4 -15 -6
q-9 -2 -18 1l-16 3q-4 -5 -7.5 -8.5t-5.5 -7.5l-7 -10h5q25 2 29 12h1q-3 -6 -13 -11q-5 -2 -9.5 -3t-8.5 -1h-5q-7 -8 -11.5 -14t-8.5 -10q-13 -14 -24 -14q-5 1 -11 1q10 0 21 10q-14 -6 -22 -6l-6 1l8 -8q-8 4 -13 9q-1 0 -5 2q-12 9 -13 23v9t2 8q3 9 8 15.5t12 13.5
q17 15 30 15q7 0 12 -4l-1 -1q-3 3 -9 3q-13 -2 -27 -13q-12 -10 -18 -20q-8 -14 -8 -26q2 -18 16 -23q-2 6 -1 12q2 15 11 26q11 14 30 22q2 2 2 6l9 9q13 11 34 11h8.5t8.5 -1h1q7 5 12.5 7.5t11.5 1.5q4 0 6 -2l-11 -2q-2 -1 -4.5 -2t-5.5 -3q4 -1 8 -1.5t9 -2.5
q10 -3 16 -3q9 0 13 1zM655 236q-3 3 -3 7q0 2 0.5 3.5t0.5 3.5q-10 -13 -9 -19q0 -2 2 -2t9 7zM668 257q0 2 -2 2t-4 -1q-1 -1 -3 -5q-5 -10 -5 -13t1 -4l3 3v1v-1q1 1 1 1.5t1 1.5q2 6 2 8q0 1 -1 2q2 -4 2 -5q3 3 5 10zM672 254q0 -5 -7 -15q-9 -9 -13 -12h-8q-6 0 -6 5
q0 8 11 21q7 9 16 9q7 0 7 -8zM705 256q1 -2 -4 -11q-6 -8 -8 -10l-12 -11q-7 -7 -9 -15q1 12 9 21q4 4 6 7t4 7q1 1 2 4v-3l-1 -2q2 2 6 10q0 1 0.5 1.5t0.5 1.5q0 5 -5 3l-8 -6q-2 -5 -5.5 -8.5t-7.5 -8.5q-5 -6 -6 -9q-1 -1 -5 -9q0 2 -0.5 4.5t0.5 4.5q2 7 9 14l6 7
q5 7 5 11q0 1 -0.5 2t-0.5 2q6 -2 6 -6q6 5 13 5q4 -2 5 -6zM744 270h-15q-1 -2 -6.5 -8t-13.5 -17q-2 0 -4 -5q-4 -5 -4 -10q0 -3 2 -3q5 0 14 10l1 1q1 1 1 1.5t1 1.5q0 -5 -7 -11q-5 -4 -12 -4q-5 2 -6 6q0 2 4 10l12 14l11 14l-17 2q-4 1 -10 1h-9q-12 0 -24 -5h-1
q10 10 31 10q1 0 8.5 -1.5t21.5 -3.5l3 -1q3 5 5.5 8.5t4.5 6.5q2 -1 2 -5q0 -3 -2 -5l-4 -6l8 -1h6h1h3h-5zM751 257q0 -3 -7 -6l-1 -1q3 3 3 8v4h-3q-5 0 -6 -4q0 -2 3 -17q1 -14 -16 -14q-9 0 -11 6q-1 1 -1 3q0 8 12 10l4 -1h-2q-4 0 -6 -2q-3 -5 -3 -7q0 -8 8 -8t8 11
q0 5 -1 8t-1 7q0 10 9 10q2 0 3 -0.5t3 -0.5q4 -2 4 -3q1 -1 1 -3z" />
    </font>
</defs>
</svg>
